SplineFontDB: 3.0
FontName: California_Gothic_Normal
FullName: California Gothic Normal
FamilyName: California Gothic
Weight: Normal
Copyright: 
Version: 
ItalicAngle: 0
UnderlinePosition: 0
UnderlineWidth: 0
Ascent: 1638
Descent: 410
InvalidEm: 0
LayerCount: 2
Layer: 0 0 "Back" 1
Layer: 1 0 "Fore" 0
XUID: [1021 898 610667815 14573]
OS2Version: 0
OS2_WeightWidthSlopeOnly: 0
OS2_UseTypoMetrics: 0
CreationTime: 1578430951
ModificationTime: 1578431432
PfmFamily: 17
TTFWeight: 700
TTFWidth: 5
LineGap: 184
VLineGap: 184
Panose: 2 0 0 0 0 0 0 0 0 0
OS2TypoAscent: 0
OS2TypoAOffset: 1
OS2TypoDescent: 0
OS2TypoDOffset: 1
OS2TypoLinegap: 184
OS2WinAscent: 0
OS2WinAOffset: 1
OS2WinDescent: 0
OS2WinDOffset: 1
HheadAscent: 0
HheadAOffset: 1
HheadDescent: 0
HheadDOffset: 1
OS2Vendor: 'PfEd'
Lookup: 258 0 0 "'kern' Horizontal Kerning in Latin lookup 0" { "'kern' Horizontal Kerning in Latin lookup 0 subtable"  } ['kern' ('latn' <'dflt' > ) ]
MarkAttachClasses: 1
DEI: 91125
Encoding: Original
UnicodeInterp: none
NameList: AGL For New Fonts
DisplaySize: -72
AntiAlias: 1
FitToEm: 0
WinInfo: 0 14 6
BeginPrivate: 1
BlueValues 15 [0 0 1400 1400]
EndPrivate
BeginChars: 411 411

StartChar: .notdef
Encoding: 0 0 0
Width: 1064
Flags: HW
LayerCount: 2
Fore
SplineSet
100 1400 m 1
 100 1400 964 1400 964 1400 c 1
 964 1400 964 0 964 0 c 1
 964 0 100 0 100 0 c 1
 100 0 100 1400 100 1400 c 1
250 150 m 1
 250 150 814 150 814 150 c 1
 814 150 814 1250 814 1250 c 1
 814 1250 250 1250 250 1250 c 1
 250 1250 250 150 250 150 c 1
EndSplineSet
EndChar

StartChar: space
Encoding: 1 32 1
Width: 580
Flags: W
LayerCount: 2
Fore
SplineSet
0 0 m 1024
EndSplineSet
Validated: 1
EndChar

StartChar: A
Encoding: 2 65 2
Width: 940
Flags: W
LayerCount: 2
Fore
SplineSet
230 0 m 1
 230 0 0 0 0 0 c 1
 0 0 350 1400 350 1400 c 1
 350 1400 590 1400 590 1400 c 1
 590 1400 940 0 940 0 c 1
 940 0 710 0 710 0 c 1
 710 0 644 260 644 260 c 1
 644 260 296 260 296 260 c 1
 296 260 230 0 230 0 c 1
349 470 m 1
 349 470 591 470 591 470 c 1
 591 470 470 945 470 945 c 1
 470 945 349 470 349 470 c 1
EndSplineSet
Validated: 1
EndChar

StartChar: B
Encoding: 3 66 3
Width: 880
Flags: W
LayerCount: 2
Fore
SplineSet
100 0 m 1
 100 0 100 1400 100 1400 c 1
 100 1400 635 1400 635 1400 c 2
 715 1400 780 1335 780 1255 c 2
 780 1255 780 835 780 835 c 2
 780 775 743 722 688 700 c 1
 743 678 780 625 780 565 c 2
 780 565 780 145 780 145 c 2
 780 65 715 0 635 0 c 2
 635 0 100 0 100 0 c 1
350 820 m 1
 350 820 550 820 550 820 c 1
 550 820 550 1160 550 1160 c 1
 550 1160 350 1160 350 1160 c 1
 350 1160 350 820 350 820 c 1
350 240 m 1
 350 240 550 240 550 240 c 1
 550 240 550 580 550 580 c 1
 550 580 350 580 350 580 c 1
 350 580 350 240 350 240 c 1
EndSplineSet
Validated: 1
EndChar

StartChar: C
Encoding: 4 67 4
Width: 910
Flags: W
LayerCount: 2
Fore
SplineSet
100 145 m 2
 100 145 100 1255 100 1255 c 2
 100 1335 165 1400 245 1400 c 2
 245 1400 665 1400 665 1400 c 2
 745 1400 810 1335 810 1255 c 2
 810 1255 810 955 810 955 c 1
 810 955 560 955 560 955 c 1
 560 955 560 1143 560 1143 c 1
 560 1143 360 1143 360 1143 c 1
 360 1143 360 260 360 260 c 1
 360 260 560 260 560 260 c 1
 560 260 560 445 560 445 c 1
 560 445 810 445 810 445 c 1
 810 445 810 145 810 145 c 2
 810 66 746 0 667 0 c 2
 667 0 245 0 245 0 c 2
 165 0 100 65 100 145 c 2
EndSplineSet
Validated: 1
EndChar

StartChar: D
Encoding: 5 68 5
Width: 890
Flags: W
LayerCount: 2
Fore
SplineSet
100 0 m 1
 100 0 100 1400 100 1400 c 1
 100 1400 630 1400 630 1400 c 2
 718 1400 790 1328 790 1240 c 2
 790 1240 790 160 790 160 c 2
 790 72 718 0 630 0 c 2
 630 0 100 0 100 0 c 1
350 230 m 1
 350 230 529 230 529 230 c 2
 541 230 550 239 550 251 c 2
 550 251 550 1149 550 1149 c 2
 550 1161 541 1170 529 1170 c 2
 529 1170 350 1170 350 1170 c 1
 350 1170 350 230 350 230 c 1
EndSplineSet
Validated: 1
EndChar

StartChar: E
Encoding: 6 69 6
Width: 912
Flags: W
LayerCount: 2
Fore
SplineSet
100 0 m 1
 100 0 100 1400 100 1400 c 1
 100 1400 810 1400 810 1400 c 1
 810 1400 810 1170 810 1170 c 1
 810 1170 350 1170 350 1170 c 1
 350 1170 350 820 350 820 c 1
 350 820 730 820 730 820 c 1
 730 820 730 580 730 580 c 1
 730 580 350 580 350 580 c 1
 350 580 350 240 350 240 c 1
 350 240 812 240 812 240 c 1
 812 240 812 0 812 0 c 1
 812 0 100 0 100 0 c 1
EndSplineSet
Validated: 1
EndChar

StartChar: F
Encoding: 7 70 7
Width: 860
Flags: W
LayerCount: 2
Fore
SplineSet
350 0 m 1
 350 0 100 0 100 0 c 1
 100 0 100 1400 100 1400 c 1
 100 1400 810 1400 810 1400 c 1
 810 1400 810 1170 810 1170 c 1
 810 1170 350 1170 350 1170 c 1
 350 1170 350 820 350 820 c 1
 350 820 730 820 730 820 c 1
 730 820 730 580 730 580 c 1
 730 580 350 580 350 580 c 1
 350 580 350 0 350 0 c 1
EndSplineSet
Validated: 1
EndChar

StartChar: G
Encoding: 8 71 8
Width: 932
Flags: W
LayerCount: 2
Fore
SplineSet
100 145 m 2
 100 145 100 1255 100 1255 c 2
 100 1335 165 1400 245 1400 c 2
 245 1400 685 1400 685 1400 c 2
 765 1400 830 1335 830 1255 c 2
 830 1255 830 955 830 955 c 1
 830 955 600 955 600 955 c 1
 600 955 600 1152 600 1152 c 1
 600 1152 350 1152 350 1152 c 1
 350 1152 350 248 350 248 c 1
 350 248 537 248 537 248 c 2
 572 248 600 276 600 311 c 2
 600 311 600 470 600 470 c 1
 600 470 480 470 480 470 c 1
 480 470 480 700 480 700 c 1
 480 700 830 700 830 700 c 1
 830 700 830 144 830 144 c 2
 830 89 859 42 904 18 c 0
 907 16 912 14 912 8 c 0
 912 2 909 0 904 0 c 2
 904 0 826 0 826 0 c 2
 746 0 681 66 680 148 c 1
 680 148 678 148 678 148 c 1
 678 148 678 140 678 140 c 2
 678 62 614 0 536 0 c 0
 526 0 245 0 245 0 c 2
 165 0 100 65 100 145 c 2
EndSplineSet
Validated: 1
EndChar

StartChar: H
Encoding: 9 72 9
Width: 970
Flags: W
LayerCount: 2
Fore
SplineSet
350 0 m 1
 350 0 100 0 100 0 c 1
 100 0 100 1400 100 1400 c 1
 100 1400 350 1400 350 1400 c 1
 350 1400 350 810 350 810 c 1
 350 810 620 810 620 810 c 1
 620 810 620 1400 620 1400 c 1
 620 1400 870 1400 870 1400 c 1
 870 1400 870 0 870 0 c 1
 870 0 620 0 620 0 c 1
 620 0 620 570 620 570 c 1
 620 570 350 570 350 570 c 1
 350 570 350 0 350 0 c 1
EndSplineSet
Validated: 1
EndChar

StartChar: I
Encoding: 10 73 10
Width: 450
Flags: W
LayerCount: 2
Fore
SplineSet
100 1400 m 1
 100 1400 350 1400 350 1400 c 1
 350 1400 350 0 350 0 c 1
 350 0 100 0 100 0 c 1
 100 0 100 1400 100 1400 c 1
EndSplineSet
Validated: 1
EndChar

StartChar: J
Encoding: 11 74 11
Width: 910
Flags: W
LayerCount: 2
Fore
SplineSet
100 145 m 2
 100 145 100 430 100 430 c 1
 100 430 350 430 350 430 c 1
 350 430 350 260 350 260 c 1
 350 260 560 260 560 260 c 1
 560 260 560 1400 560 1400 c 1
 560 1400 810 1400 810 1400 c 1
 810 1400 810 145 810 145 c 2
 810 65 745 0 665 0 c 2
 665 0 245 0 245 0 c 2
 165 0 100 65 100 145 c 2
EndSplineSet
Validated: 1
EndChar

StartChar: K
Encoding: 12 75 12
Width: 950
Flags: W
LayerCount: 2
Fore
SplineSet
579 714 m 1
 579 714 900 0 900 0 c 1
 900 0 640 0 640 0 c 1
 640 0 368 603 368 603 c 1
 368 603 350 603 350 603 c 1
 350 603 350 0 350 0 c 1
 350 0 100 0 100 0 c 1
 100 0 100 1400 100 1400 c 1
 100 1400 350 1400 350 1400 c 1
 350 1400 350 813 350 813 c 1
 350 813 367 813 367 813 c 1
 367 813 620 1400 620 1400 c 1
 620 1400 880 1400 880 1400 c 1
 880 1400 579 714 579 714 c 1
EndSplineSet
Validated: 1
EndChar

StartChar: L
Encoding: 13 76 13
Width: 880
Flags: W
LayerCount: 2
Fore
SplineSet
350 255 m 1
 350 255 800 255 800 255 c 1
 800 255 800 0 800 0 c 1
 800 0 100 0 100 0 c 1
 100 0 100 1400 100 1400 c 1
 100 1400 350 1400 350 1400 c 1
 350 1400 350 255 350 255 c 1
EndSplineSet
Validated: 1
EndChar

StartChar: M
Encoding: 14 77 14
Width: 1320
Flags: W
LayerCount: 2
Fore
SplineSet
860 1400 m 1
 860 1400 1220 1400 1220 1400 c 1
 1220 1400 1220 0 1220 0 c 1
 1220 0 1000 0 1000 0 c 1
 1000 0 1000 1050 1000 1050 c 1
 1000 1050 750 0 750 0 c 1
 750 0 570 0 570 0 c 1
 570 0 320 1050 320 1050 c 1
 320 1050 320 0 320 0 c 1
 320 0 100 0 100 0 c 1
 100 0 100 1400 100 1400 c 1
 100 1400 460 1400 460 1400 c 1
 460 1400 660 482 660 482 c 1
 660 482 860 1400 860 1400 c 1
EndSplineSet
Validated: 1
EndChar

StartChar: N
Encoding: 15 78 15
Width: 980
Flags: W
LayerCount: 2
Fore
SplineSet
640 610 m 1
 640 610 640 1400 640 1400 c 1
 640 1400 880 1400 880 1400 c 1
 880 1400 880 0 880 0 c 1
 880 0 670 0 670 0 c 1
 670 0 330 754 330 754 c 1
 330 754 330 0 330 0 c 1
 330 0 100 0 100 0 c 1
 100 0 100 1400 100 1400 c 1
 100 1400 310 1400 310 1400 c 1
 310 1400 640 610 640 610 c 1
EndSplineSet
Validated: 1
EndChar

StartChar: O
Encoding: 16 79 16
Width: 940
Flags: W
LayerCount: 2
Fore
SplineSet
840 1255 m 2
 840 1255 840 145 840 145 c 2
 840 65 775 0 695 0 c 2
 695 0 245 0 245 0 c 2
 165 0 100 65 100 145 c 2
 100 145 100 1255 100 1255 c 2
 100 1335 165 1400 245 1400 c 2
 245 1400 695 1400 695 1400 c 2
 775 1400 840 1335 840 1255 c 2
350 250 m 1
 350 250 590 250 590 250 c 1
 590 250 590 1150 590 1150 c 1
 590 1150 350 1150 350 1150 c 1
 350 1150 350 250 350 250 c 1
EndSplineSet
Validated: 1
EndChar

StartChar: P
Encoding: 17 80 17
Width: 890
Flags: W
LayerCount: 2
Fore
SplineSet
810 1260 m 2
 810 1260 810 665 810 665 c 2
 810 585 745 520 665 520 c 2
 665 520 350 520 350 520 c 1
 350 520 350 0 350 0 c 1
 350 0 100 0 100 0 c 1
 100 0 100 1400 100 1400 c 1
 100 1400 670 1400 670 1400 c 2
 747 1400 810 1337 810 1260 c 2
350 770 m 1
 350 770 560 770 560 770 c 1
 560 770 560 1160 560 1160 c 1
 560 1160 350 1160 350 1160 c 1
 350 1160 350 770 350 770 c 1
EndSplineSet
Validated: 1
EndChar

StartChar: Q
Encoding: 18 81 18
Width: 940
Flags: W
LayerCount: 2
Fore
SplineSet
100 145 m 2
 100 145 100 1255 100 1255 c 2
 100 1335 165 1400 245 1400 c 2
 245 1400 695 1400 695 1400 c 2
 775 1400 840 1335 840 1255 c 2
 840 1255 840 145 840 145 c 2
 840 67 778 0 700 0 c 1
 700 0 820 -150 820 -150 c 1
 820 -150 640 -250 640 -250 c 1
 640 -250 499 -21 499 -21 c 1
 499 -21 490 0 465 0 c 2
 465 0 245 0 245 0 c 2
 165 0 100 65 100 145 c 2
590 250 m 1
 590 250 590 1150 590 1150 c 1
 590 1150 350 1150 350 1150 c 1
 350 1150 350 250 350 250 c 1
 350 250 590 250 590 250 c 1
EndSplineSet
Validated: 1
EndChar

StartChar: R
Encoding: 19 82 19
Width: 883
Flags: W
LayerCount: 2
Fore
SplineSet
350 0 m 1
 350 0 100 0 100 0 c 1
 100 0 100 1400 100 1400 c 1
 100 1400 635 1400 635 1400 c 2
 715 1400 780 1335 780 1255 c 2
 780 1255 780 745 780 745 c 2
 780 697 756 652 716 625 c 1
 756 598 780 553 780 505 c 2
 780 505 780 144 780 144 c 2
 780 91 809 43 855 18 c 0
 858 16 863 14 863 8 c 0
 863 2 860 0 855 0 c 2
 855 0 684 0 684 0 c 2
 604 0 540 64 540 144 c 2
 540 144 540 520 540 520 c 1
 540 520 350 520 350 520 c 1
 350 520 350 0 350 0 c 1
350 740 m 1
 350 740 540 740 540 740 c 1
 540 740 540 1150 540 1150 c 1
 540 1150 350 1150 350 1150 c 1
 350 1150 350 740 350 740 c 1
EndSplineSet
Validated: 1
EndChar

StartChar: S
Encoding: 20 83 20
Width: 940
Flags: W
LayerCount: 2
Fore
SplineSet
100 150 m 2
 100 150 100 463 100 463 c 1
 100 463 340 463 340 463 c 1
 340 463 340 261 340 261 c 2
 340 249 349 240 361 240 c 2
 361 240 579 240 579 240 c 2
 591 240 600 249 600 261 c 2
 600 261 600 559 600 559 c 2
 600 571 591 580 579 580 c 2
 579 580 250 580 250 580 c 2
 167 580 100 648 100 731 c 2
 100 731 100 1250 100 1250 c 2
 100 1333 167 1400 250 1400 c 2
 250 1400 690 1400 690 1400 c 2
 773 1400 840 1333 840 1250 c 2
 840 1250 840 980 840 980 c 1
 840 980 600 980 600 980 c 1
 600 980 600 1139 600 1139 c 2
 600 1151 591 1160 579 1160 c 2
 579 1160 361 1160 361 1160 c 2
 349 1160 340 1151 340 1139 c 2
 340 1139 340 841 340 841 c 2
 340 829 349 820 361 820 c 2
 361 820 690 820 690 820 c 2
 773 820 840 753 840 670 c 2
 840 670 840 150 840 150 c 2
 840 67 773 0 690 0 c 2
 690 0 250 0 250 0 c 2
 167 0 100 67 100 150 c 2
EndSplineSet
Validated: 1
EndChar

StartChar: T
Encoding: 21 84 21
Width: 880
Flags: W
LayerCount: 2
Fore
SplineSet
315 0 m 1
 315 0 315 1160 315 1160 c 1
 315 1160 50 1160 50 1160 c 1
 50 1160 50 1400 50 1400 c 1
 50 1400 830 1400 830 1400 c 1
 830 1400 830 1160 830 1160 c 1
 830 1160 565 1160 565 1160 c 1
 565 1160 565 0 565 0 c 1
 565 0 315 0 315 0 c 1
EndSplineSet
Validated: 1
EndChar

StartChar: U
Encoding: 22 85 22
Width: 970
Flags: W
LayerCount: 2
Fore
SplineSet
350 1400 m 1
 350 1400 350 250 350 250 c 1
 350 250 620 250 620 250 c 1
 620 250 620 1400 620 1400 c 1
 620 1400 870 1400 870 1400 c 1
 870 1400 870 145 870 145 c 2
 870 65 805 0 725 0 c 2
 725 0 245 0 245 0 c 2
 165 0 100 65 100 145 c 2
 100 145 100 1400 100 1400 c 1
 100 1400 350 1400 350 1400 c 1
EndSplineSet
Validated: 1
EndChar

StartChar: V
Encoding: 23 86 23
Width: 990
Flags: W
LayerCount: 2
Fore
SplineSet
495 460 m 1
 495 460 710 1400 710 1400 c 1
 710 1400 970 1400 970 1400 c 1
 970 1400 630 0 630 0 c 1
 630 0 360 0 360 0 c 1
 360 0 20 1400 20 1400 c 1
 20 1400 280 1400 280 1400 c 1
 280 1400 495 460 495 460 c 1
EndSplineSet
Validated: 1
EndChar

StartChar: W
Encoding: 24 87 24
Width: 1442
Flags: W
LayerCount: 2
Fore
SplineSet
996 470 m 1
 996 470 1182 1400 1182 1400 c 1
 1182 1400 1442 1400 1442 1400 c 1
 1442 1400 1105 0 1105 0 c 1
 1105 0 875 0 875 0 c 1
 875 0 721 811 721 811 c 1
 721 811 567 0 567 0 c 1
 567 0 337 0 337 0 c 1
 337 0 0 1400 0 1400 c 1
 0 1400 260 1400 260 1400 c 1
 260 1400 446 470 446 470 c 1
 446 470 607 1400 607 1400 c 1
 607 1400 835 1400 835 1400 c 1
 835 1400 996 470 996 470 c 1
EndSplineSet
Validated: 1
EndChar

StartChar: X
Encoding: 25 88 25
Width: 875
Flags: W
LayerCount: 2
Fore
SplineSet
855 1400 m 1
 855 1400 580 695 580 695 c 1
 580 695 865 0 865 0 c 1
 865 0 595 0 595 0 c 1
 595 0 440 413 440 413 c 1
 440 413 280 0 280 0 c 1
 280 0 10 0 10 0 c 1
 10 0 303 701 303 701 c 1
 303 701 20 1400 20 1400 c 1
 20 1400 260 1400 260 1400 c 1
 260 1400 445 958 445 958 c 1
 445 958 615 1400 615 1400 c 1
 615 1400 855 1400 855 1400 c 1
EndSplineSet
Validated: 1
EndChar

StartChar: Y
Encoding: 26 89 26
Width: 920
Flags: W
LayerCount: 2
Fore
SplineSet
860 1400 m 1
 860 1400 585 506 585 506 c 1
 585 506 585 0 585 0 c 1
 585 0 335 0 335 0 c 1
 335 0 335 506 335 506 c 1
 335 506 60 1400 60 1400 c 1
 60 1400 310 1400 310 1400 c 1
 310 1400 460 810 460 810 c 1
 460 810 600 1400 600 1400 c 1
 600 1400 860 1400 860 1400 c 1
EndSplineSet
Validated: 1
EndChar

StartChar: Z
Encoding: 27 90 27
Width: 890
Flags: W
LayerCount: 2
Fore
SplineSet
90 1400 m 1
 90 1400 800 1400 800 1400 c 1
 800 1400 800 1240 800 1240 c 1
 800 1240 384 230 384 230 c 1
 384 230 800 230 800 230 c 1
 800 230 800 0 800 0 c 1
 800 0 90 0 90 0 c 1
 90 0 90 160 90 160 c 1
 90 160 529 1170 529 1170 c 1
 529 1170 90 1170 90 1170 c 1
 90 1170 90 1400 90 1400 c 1
EndSplineSet
Validated: 1
EndChar

StartChar: exclam
Encoding: 28 33 28
Width: 450
Flags: W
LayerCount: 2
Fore
SplineSet
110 230 m 1
 110 230 340 230 340 230 c 1
 340 230 340 0 340 0 c 1
 340 0 110 0 110 0 c 1
 110 0 110 230 110 230 c 1
330 390 m 1
 330 390 120 390 120 390 c 1
 120 390 100 880 100 880 c 1
 100 880 100 1400 100 1400 c 1
 100 1400 350 1400 350 1400 c 1
 350 1400 350 880 350 880 c 1
 350 880 330 390 330 390 c 1
EndSplineSet
Validated: 1
EndChar

StartChar: quotedbl
Encoding: 29 34 29
Width: 720
Flags: W
LayerCount: 2
Fore
SplineSet
270 990 m 1
 270 990 160 990 160 990 c 1
 160 990 100 1220 100 1220 c 1
 100 1220 100 1450 100 1450 c 1
 100 1450 330 1450 330 1450 c 1
 330 1450 330 1220 330 1220 c 1
 330 1220 270 990 270 990 c 1
560 990 m 1
 560 990 450 990 450 990 c 1
 450 990 390 1220 390 1220 c 1
 390 1220 390 1450 390 1450 c 1
 390 1450 620 1450 620 1450 c 1
 620 1450 620 1220 620 1220 c 1
 620 1220 560 990 560 990 c 1
EndSplineSet
Validated: 1
EndChar

StartChar: numbersign
Encoding: 30 35 30
Width: 1232
Flags: W
LayerCount: 2
Fore
SplineSet
290 410 m 1
 290 410 100 410 100 410 c 1
 100 410 100 580 100 580 c 1
 100 580 324 580 324 580 c 1
 324 580 372 820 372 820 c 1
 372 820 182 820 182 820 c 1
 182 820 182 990 182 990 c 1
 182 990 406 990 406 990 c 1
 406 990 448 1200 448 1200 c 1
 448 1200 638 1200 638 1200 c 1
 638 1200 596 990 596 990 c 1
 596 990 786 990 786 990 c 1
 786 990 828 1200 828 1200 c 1
 828 1200 1018 1200 1018 1200 c 1
 1018 1200 976 990 976 990 c 1
 976 990 1132 990 1132 990 c 1
 1132 990 1132 820 1132 820 c 1
 1132 820 942 820 942 820 c 1
 942 820 894 580 894 580 c 1
 894 580 1050 580 1050 580 c 1
 1050 580 1050 410 1050 410 c 1
 1050 410 860 410 860 410 c 1
 860 410 818 200 818 200 c 1
 818 200 628 200 628 200 c 1
 628 200 670 410 670 410 c 1
 670 410 480 410 480 410 c 1
 480 410 438 200 438 200 c 1
 438 200 248 200 248 200 c 1
 248 200 290 410 290 410 c 1
514 580 m 1
 514 580 704 580 704 580 c 1
 704 580 752 820 752 820 c 1
 752 820 562 820 562 820 c 1
 562 820 514 580 514 580 c 1
EndSplineSet
Validated: 1
EndChar

StartChar: dollar
Encoding: 31 36 31
Width: 900
Flags: W
LayerCount: 2
Fore
SplineSet
100 235 m 2
 100 235 100 445 100 445 c 1
 100 445 330 445 330 445 c 1
 330 445 330 351 330 351 c 2
 330 339 339 330 351 330 c 2
 351 330 549 330 549 330 c 2
 561 330 570 339 570 351 c 2
 570 351 570 579 570 579 c 2
 570 591 561 600 549 600 c 2
 549 600 235 600 235 600 c 2
 160 600 100 660 100 735 c 2
 100 735 100 1165 100 1165 c 2
 100 1240 160 1300 235 1300 c 2
 235 1300 350 1300 350 1300 c 1
 350 1300 350 1500 350 1500 c 1
 350 1500 550 1500 550 1500 c 1
 550 1500 550 1300 550 1300 c 1
 550 1300 665 1300 665 1300 c 2
 740 1300 800 1240 800 1165 c 2
 800 1165 800 955 800 955 c 1
 800 955 570 955 570 955 c 1
 570 955 570 1049 570 1049 c 2
 570 1061 561 1070 549 1070 c 2
 549 1070 351 1070 351 1070 c 2
 339 1070 330 1061 330 1049 c 2
 330 1049 330 851 330 851 c 2
 330 839 339 830 351 830 c 2
 351 830 665 830 665 830 c 2
 740 830 800 770 800 695 c 2
 800 695 800 235 800 235 c 2
 800 160 740 100 665 100 c 2
 665 100 550 100 550 100 c 1
 550 100 550 -100 550 -100 c 1
 550 -100 350 -100 350 -100 c 1
 350 -100 350 100 350 100 c 1
 350 100 235 100 235 100 c 2
 160 100 100 160 100 235 c 2
EndSplineSet
Validated: 1
EndChar

StartChar: percent
Encoding: 32 37 32
Width: 1260
Flags: W
LayerCount: 2
Fore
SplineSet
100 1029 m 2
 100 1029 100 1080 100 1080 c 2
 100 1207 203 1310 330 1310 c 0
 457 1310 560 1207 560 1080 c 2
 560 1080 560 1029 560 1029 c 2
 560 902 457 800 330 800 c 0
 203 800 100 902 100 1029 c 2
259 1044 m 2
 259 991 291 949 330 949 c 0
 369 949 401 991 401 1044 c 2
 401 1044 401 1066 401 1066 c 2
 401 1119 369 1160 330 1160 c 0
 291 1160 259 1119 259 1066 c 2
 259 1066 259 1044 259 1044 c 2
930 600 m 0
 1057 600 1160 497 1160 370 c 2
 1160 370 1160 319 1160 319 c 2
 1160 192 1057 90 930 90 c 0
 803 90 700 192 700 319 c 2
 700 319 700 370 700 370 c 2
 700 497 803 600 930 600 c 0
930 450 m 0
 891 450 859 409 859 356 c 2
 859 356 859 334 859 334 c 2
 859 281 891 239 930 239 c 0
 969 239 1001 281 1001 334 c 2
 1001 334 1001 356 1001 356 c 2
 1001 409 969 450 930 450 c 0
220 0 m 1
 220 0 820 1400 820 1400 c 1
 820 1400 1020 1400 1020 1400 c 1
 1020 1400 420 0 420 0 c 1
 420 0 220 0 220 0 c 1
EndSplineSet
Validated: 1
EndChar

StartChar: ampersand
Encoding: 33 38 33
Width: 1170
Flags: W
LayerCount: 2
Fore
SplineSet
100 150 m 2
 100 150 100 327 100 430 c 0
 100 533 166 586 166 586 c 1
 166 586 337 752 337 752 c 1
 337 752 212 923 212 923 c 1
 212 923 170 973 170 1040 c 2
 170 1040 170 1250 170 1250 c 2
 170 1333 237 1400 320 1400 c 2
 320 1400 670 1400 670 1400 c 2
 753 1400 820 1333 820 1250 c 2
 820 1250 820 1096 820 1020 c 0
 820 944 776 902 776 902 c 1
 776 902 600 730 600 730 c 1
 600 730 782 481 782 481 c 1
 782 481 906 600 906 600 c 1
 906 600 1044 456 1044 456 c 1
 1044 456 900 317 900 317 c 1
 900 317 1050 112 1050 112 c 1
 1050 112 1070 81 1070 35 c 2
 1070 35 1070 0 1070 0 c 1
 1070 0 883 0 883 0 c 1
 883 0 755 177 755 177 c 1
 755 177 608 35 608 35 c 1
 608 35 567 0 511 0 c 2
 511 0 250 0 250 0 c 2
 167 0 100 67 100 150 c 2
599 1210 m 2
 599 1210 401 1210 401 1210 c 2
 389 1210 380 1201 380 1189 c 2
 380 1189 380 1033 380 1033 c 1
 380 1033 481 894 481 894 c 1
 481 894 620 1028 620 1028 c 1
 620 1028 620 1189 620 1189 c 2
 620 1201 611 1210 599 1210 c 2
300 234 m 2
 300 222 309 213 321 213 c 2
 321 213 505 213 505 213 c 1
 505 213 636 340 636 340 c 1
 636 340 455 591 455 591 c 1
 455 591 300 440 300 440 c 1
 300 440 300 234 300 234 c 2
EndSplineSet
Validated: 1
EndChar

StartChar: quotesingle
Encoding: 34 39 34
Width: 430
Flags: W
LayerCount: 2
Fore
SplineSet
270 990 m 1
 270 990 160 990 160 990 c 1
 160 990 100 1220 100 1220 c 1
 100 1220 100 1450 100 1450 c 1
 100 1450 330 1450 330 1450 c 1
 330 1450 330 1220 330 1220 c 1
 330 1220 270 990 270 990 c 1
EndSplineSet
Validated: 1
EndChar

StartChar: parenleft
Encoding: 35 40 35
Width: 640
Flags: W
LayerCount: 2
Fore
SplineSet
100 270 m 2
 100 270 100 1130 100 1130 c 2
 100 1377 303 1580 550 1580 c 2
 550 1580 630 1580 630 1580 c 1
 630 1580 630 1400 630 1400 c 1
 630 1400 550 1400 550 1400 c 2
 469 1400 330 1344 330 1190 c 2
 330 1190 330 210 330 210 c 2
 330 56 469 0 550 0 c 2
 550 0 630 0 630 0 c 1
 630 0 630 -180 630 -180 c 1
 630 -180 550 -180 550 -180 c 2
 303 -180 100 23 100 270 c 2
EndSplineSet
Validated: 1
EndChar

StartChar: parenright
Encoding: 36 41 36
Width: 640
Flags: W
LayerCount: 2
Fore
SplineSet
90 -180 m 2
 90 -180 10 -180 10 -180 c 1
 10 -180 10 0 10 0 c 1
 10 0 90 0 90 0 c 2
 171 0 310 56 310 210 c 2
 310 210 310 1190 310 1190 c 2
 310 1344 171 1400 90 1400 c 2
 90 1400 10 1400 10 1400 c 1
 10 1400 10 1580 10 1580 c 1
 10 1580 90 1580 90 1580 c 2
 337 1580 540 1377 540 1130 c 2
 540 1130 540 270 540 270 c 2
 540 23 337 -180 90 -180 c 2
EndSplineSet
Validated: 1
EndChar

StartChar: asterisk
Encoding: 37 42 37
Width: 1023
Flags: W
LayerCount: 2
Fore
SplineSet
355 999 m 1
 355 999 338 1001 338 1001 c 1
 338 1001 100 1079 100 1079 c 1
 100 1079 162 1269 162 1269 c 1
 162 1269 400 1191 400 1191 c 1
 400 1191 415 1183 415 1183 c 1
 415 1183 411 1200 411 1200 c 1
 411 1200 411 1450 411 1450 c 1
 411 1450 611 1450 611 1450 c 1
 611 1450 611 1200 611 1200 c 1
 611 1200 608 1183 608 1183 c 1
 608 1183 623 1191 623 1191 c 1
 623 1191 861 1269 861 1269 c 1
 861 1269 923 1079 923 1079 c 1
 923 1079 685 1001 685 1001 c 1
 685 1001 667 999 667 999 c 1
 667 999 680 987 680 987 c 1
 680 987 827 785 827 785 c 1
 827 785 666 668 666 668 c 1
 666 668 519 870 519 870 c 1
 519 870 511 886 511 886 c 1
 511 886 504 870 504 870 c 1
 504 870 357 668 357 668 c 1
 357 668 195 785 195 785 c 1
 195 785 342 987 342 987 c 1
 342 987 355 999 355 999 c 1
EndSplineSet
Validated: 1
EndChar

StartChar: plus
Encoding: 38 43 38
Width: 1000
Flags: W
LayerCount: 2
Fore
SplineSet
390 290 m 1
 390 290 390 580 390 580 c 1
 390 580 100 580 100 580 c 1
 100 580 100 800 100 800 c 1
 100 800 390 800 390 800 c 1
 390 800 390 1090 390 1090 c 1
 390 1090 610 1090 610 1090 c 1
 610 1090 610 800 610 800 c 1
 610 800 900 800 900 800 c 1
 900 800 900 580 900 580 c 1
 900 580 610 580 610 580 c 1
 610 580 610 290 610 290 c 1
 610 290 390 290 390 290 c 1
EndSplineSet
Validated: 1
EndChar

StartChar: comma
Encoding: 39 44 39
Width: 430
Flags: W
LayerCount: 2
Fore
SplineSet
120 -200 m 1
 120 -200 200 0 200 0 c 1
 200 0 100 0 100 0 c 1
 100 0 100 230 100 230 c 1
 100 230 330 230 330 230 c 1
 330 230 330 0 330 0 c 1
 330 0 220 -200 220 -200 c 1
 220 -200 120 -200 120 -200 c 1
EndSplineSet
Validated: 1
EndChar

StartChar: hyphen
Encoding: 40 45 40
Width: 1000
Flags: W
LayerCount: 2
Fore
SplineSet
100 810 m 1
 100 810 900 810 900 810 c 1
 900 810 900 590 900 590 c 1
 900 590 100 590 100 590 c 1
 100 590 100 810 100 810 c 1
EndSplineSet
Validated: 1
EndChar

StartChar: period
Encoding: 41 46 41
Width: 430
Flags: W
LayerCount: 2
Fore
SplineSet
100 230 m 1
 100 230 330 230 330 230 c 1
 330 230 330 0 330 0 c 1
 330 0 100 0 100 0 c 1
 100 0 100 230 100 230 c 1
EndSplineSet
Validated: 1
EndChar

StartChar: slash
Encoding: 42 47 42
Width: 800
Flags: W
LayerCount: 2
Fore
SplineSet
700 1400 m 1
 700 1400 347 0 347 0 c 1
 347 0 100 0 100 0 c 1
 100 0 460 1400 460 1400 c 1
 460 1400 700 1400 700 1400 c 1
EndSplineSet
Validated: 1
EndChar

StartChar: zero
Encoding: 43 48 43
Width: 930
Flags: W
LayerCount: 2
Fore
SplineSet
680 0 m 2
 680 0 250 0 250 0 c 2
 167 0 100 67 100 150 c 2
 100 150 100 1250 100 1250 c 2
 100 1333 167 1400 250 1400 c 2
 250 1400 680 1400 680 1400 c 2
 763 1400 830 1333 830 1250 c 2
 830 1250 830 150 830 150 c 2
 830 67 763 0 680 0 c 2
403 240 m 2
 403 240 527 240 527 240 c 2
 562 240 590 268 590 303 c 2
 590 303 590 1097 590 1097 c 2
 590 1132 562 1160 527 1160 c 2
 527 1160 403 1160 403 1160 c 2
 368 1160 340 1132 340 1097 c 2
 340 1097 340 303 340 303 c 2
 340 268 368 240 403 240 c 2
EndSplineSet
Validated: 1
EndChar

StartChar: one
Encoding: 44 49 44
Width: 620
Flags: W
LayerCount: 2
Fore
SplineSet
280 0 m 1
 280 0 280 1060 280 1060 c 1
 280 1060 216 1000 100 1000 c 1
 100 1000 100 1270 100 1270 c 1
 213 1270 300 1400 300 1400 c 1
 300 1400 520 1400 520 1400 c 1
 520 1400 520 0 520 0 c 1
 520 0 280 0 280 0 c 1
EndSplineSet
Validated: 1
EndChar

StartChar: two
Encoding: 45 50 45
Width: 930
Flags: W
LayerCount: 2
Fore
SplineSet
360 990 m 1
 360 990 120 990 120 990 c 1
 120 990 120 1240 120 1240 c 2
 120 1328 192 1400 280 1400 c 2
 280 1400 670 1400 670 1400 c 2
 758 1400 830 1328 830 1240 c 2
 830 1240 830 980 830 980 c 2
 830 760 477 481 390 240 c 1
 390 240 830 240 830 240 c 1
 830 240 830 0 830 0 c 1
 830 0 100 0 100 0 c 1
 100 0 100 100 100 100 c 2
 100 432 606 806 606 998 c 2
 606 998 606 1117 606 1117 c 2
 606 1152 579 1180 544 1180 c 2
 544 1180 423 1180 423 1180 c 2
 388 1180 360 1152 360 1117 c 2
 360 1117 360 990 360 990 c 1
EndSplineSet
Validated: 1
EndChar

StartChar: three
Encoding: 46 51 46
Width: 930
Flags: W
LayerCount: 2
Fore
SplineSet
100 160 m 2
 100 160 100 410 100 410 c 1
 100 410 330 410 330 410 c 1
 330 410 330 303 330 303 c 2
 330 268 358 240 393 240 c 2
 393 240 538 240 538 240 c 2
 573 240 600 268 600 303 c 2
 600 303 600 537 600 537 c 2
 600 572 573 600 538 600 c 2
 538 600 380 600 380 600 c 1
 380 600 380 820 380 820 c 1
 380 820 538 820 538 820 c 2
 573 820 600 848 600 883 c 2
 600 883 600 1107 600 1107 c 2
 600 1142 573 1170 538 1170 c 2
 538 1170 383 1170 383 1170 c 2
 348 1170 320 1142 320 1107 c 2
 320 1107 320 1020 320 1020 c 1
 320 1020 100 1020 100 1020 c 1
 100 1020 100 1240 100 1240 c 2
 100 1328 172 1400 260 1400 c 2
 260 1400 670 1400 670 1400 c 2
 758 1400 830 1328 830 1240 c 2
 830 1240 830 860 830 860 c 2
 830 793 789 733 726 710 c 1
 789 686 830 627 830 560 c 2
 830 560 830 160 830 160 c 2
 830 72 758 0 670 0 c 2
 670 0 260 0 260 0 c 2
 172 0 100 72 100 160 c 2
EndSplineSet
Validated: 1
EndChar

StartChar: four
Encoding: 47 52 47
Width: 930
Flags: W
LayerCount: 2
Fore
SplineSet
550 260 m 1
 550 260 100 260 100 260 c 1
 100 260 100 450 100 450 c 1
 100 450 510 1400 510 1400 c 1
 510 1400 780 1400 780 1400 c 1
 780 1400 780 480 780 480 c 1
 780 480 830 480 830 480 c 1
 830 480 830 260 830 260 c 1
 830 260 780 260 780 260 c 1
 780 260 780 0 780 0 c 1
 780 0 550 0 550 0 c 1
 550 0 550 260 550 260 c 1
550 480 m 1
 550 480 550 1002 550 1002 c 1
 550 1002 327 480 327 480 c 1
 327 480 550 480 550 480 c 1
EndSplineSet
Validated: 1
EndChar

StartChar: five
Encoding: 48 53 48
Width: 930
Flags: W
LayerCount: 2
Fore
SplineSet
670 0 m 2
 670 0 260 0 260 0 c 2
 172 0 100 72 100 160 c 2
 100 160 100 410 100 410 c 1
 100 410 330 410 330 410 c 1
 330 410 330 303 330 303 c 2
 330 268 358 240 393 240 c 2
 393 240 538 240 538 240 c 2
 573 240 600 268 600 303 c 2
 600 303 600 547 600 547 c 2
 600 582 573 610 538 610 c 2
 538 610 260 610 260 610 c 2
 172 610 100 682 100 770 c 2
 100 770 100 1400 100 1400 c 1
 100 1400 820 1400 820 1400 c 1
 820 1400 820 1170 820 1170 c 1
 820 1170 330 1170 330 1170 c 1
 330 1170 330 903 330 903 c 2
 330 868 357 840 392 840 c 2
 392 840 670 840 670 840 c 2
 758 840 830 768 830 680 c 2
 830 680 830 160 830 160 c 2
 830 72 758 0 670 0 c 2
EndSplineSet
Validated: 1
EndChar

StartChar: six
Encoding: 49 54 49
Width: 930
Flags: W
LayerCount: 2
Fore
SplineSet
600 1020 m 1
 600 1020 600 1107 600 1107 c 2
 600 1142 572 1170 537 1170 c 2
 537 1170 392 1170 392 1170 c 2
 357 1170 330 1142 330 1107 c 2
 330 1107 330 883 330 883 c 2
 330 848 357 820 392 820 c 2
 392 820 670 820 670 820 c 2
 758 820 830 748 830 660 c 2
 830 660 830 160 830 160 c 2
 830 72 758 0 670 0 c 2
 670 0 260 0 260 0 c 2
 172 0 100 72 100 160 c 2
 100 160 100 1240 100 1240 c 2
 100 1328 172 1400 260 1400 c 2
 260 1400 670 1400 670 1400 c 2
 758 1400 830 1328 830 1240 c 2
 830 1240 830 1020 830 1020 c 1
 830 1020 600 1020 600 1020 c 1
392 600 m 2
 357 600 330 572 330 537 c 2
 330 537 330 303 330 303 c 2
 330 268 357 240 392 240 c 2
 392 240 537 240 537 240 c 2
 572 240 600 268 600 303 c 2
 600 303 600 537 600 537 c 2
 600 572 572 600 537 600 c 2
 537 600 392 600 392 600 c 2
EndSplineSet
Validated: 1
EndChar

StartChar: seven
Encoding: 50 55 50
Width: 930
Flags: W
LayerCount: 2
Fore
SplineSet
830 1200 m 1
 830 1200 530 0 530 0 c 1
 530 0 270 0 270 0 c 1
 270 0 571 1170 571 1170 c 1
 571 1170 330 1170 330 1170 c 1
 330 1170 330 1080 330 1080 c 1
 330 1080 100 1080 100 1080 c 1
 100 1080 100 1400 100 1400 c 1
 100 1400 830 1400 830 1400 c 1
 830 1400 830 1200 830 1200 c 1
EndSplineSet
Validated: 1
EndChar

StartChar: eight
Encoding: 51 56 51
Width: 930
Flags: W
LayerCount: 2
Fore
SplineSet
726 710 m 1
 788 687 830 627 830 560 c 2
 830 560 830 160 830 160 c 2
 830 72 758 0 670 0 c 2
 670 0 260 0 260 0 c 2
 172 0 100 72 100 160 c 2
 100 160 100 560 100 560 c 2
 100 627 141 687 204 710 c 1
 141 733 100 793 100 860 c 2
 100 860 100 1240 100 1240 c 2
 100 1328 172 1400 260 1400 c 2
 260 1400 670 1400 670 1400 c 2
 758 1400 830 1328 830 1240 c 2
 830 1240 830 860 830 860 c 2
 830 793 788 733 726 710 c 1
392 820 m 2
 392 820 538 820 538 820 c 2
 573 820 600 848 600 883 c 2
 600 883 600 1117 600 1117 c 2
 600 1152 573 1180 538 1180 c 2
 538 1180 393 1180 393 1180 c 2
 358 1180 330 1152 330 1117 c 2
 330 1117 330 883 330 883 c 2
 330 848 357 820 392 820 c 2
393 230 m 2
 393 230 538 230 538 230 c 2
 573 230 600 258 600 293 c 2
 600 293 600 537 600 537 c 2
 600 572 573 600 538 600 c 2
 538 600 392 600 392 600 c 2
 357 600 330 572 330 537 c 2
 330 537 330 293 330 293 c 2
 330 258 358 230 393 230 c 2
EndSplineSet
Validated: 1
EndChar

StartChar: nine
Encoding: 52 57 52
Width: 930
Flags: W
LayerCount: 2
Fore
SplineSet
830 1240 m 2
 830 1240 830 160 830 160 c 2
 830 72 758 0 670 0 c 2
 670 0 260 0 260 0 c 2
 172 0 100 72 100 160 c 2
 100 160 100 380 100 380 c 1
 100 380 330 380 330 380 c 1
 330 380 330 283 330 283 c 2
 330 248 358 220 393 220 c 2
 393 220 538 220 538 220 c 2
 573 220 600 248 600 283 c 2
 600 283 600 645 600 645 c 1
 575 606 530 580 480 580 c 2
 480 580 260 580 260 580 c 2
 172 580 100 652 100 740 c 2
 100 740 100 1240 100 1240 c 2
 100 1328 172 1400 260 1400 c 2
 260 1400 670 1400 670 1400 c 2
 758 1400 830 1328 830 1240 c 2
538 800 m 2
 573 800 600 828 600 863 c 2
 600 863 600 1117 600 1117 c 2
 600 1152 573 1180 538 1180 c 2
 538 1180 393 1180 393 1180 c 2
 358 1180 330 1152 330 1117 c 2
 330 1117 330 863 330 863 c 2
 330 828 358 800 393 800 c 2
 393 800 538 800 538 800 c 2
EndSplineSet
Validated: 1
EndChar

StartChar: colon
Encoding: 53 58 53
Width: 430
Flags: W
LayerCount: 2
Fore
SplineSet
100 500 m 1
 100 500 330 500 330 500 c 1
 330 500 330 270 330 270 c 1
 330 270 100 270 100 270 c 1
 100 270 100 500 100 500 c 1
100 1130 m 1
 100 1130 330 1130 330 1130 c 1
 330 1130 330 900 330 900 c 1
 330 900 100 900 100 900 c 1
 100 900 100 1130 100 1130 c 1
EndSplineSet
Validated: 1
EndChar

StartChar: semicolon
Encoding: 54 59 54
Width: 430
Flags: W
LayerCount: 2
Fore
SplineSet
100 830 m 1
 100 830 330 830 330 830 c 1
 330 830 330 600 330 600 c 1
 330 600 100 600 100 600 c 1
 100 600 100 830 100 830 c 1
100 0 m 1
 100 0 100 230 100 230 c 1
 100 230 330 230 330 230 c 1
 330 230 330 0 330 0 c 1
 330 0 220 -200 220 -200 c 1
 220 -200 120 -200 120 -200 c 1
 120 -200 200 0 200 0 c 1
 200 0 100 0 100 0 c 1
EndSplineSet
Validated: 1
EndChar

StartChar: less
Encoding: 55 60 55
Width: 900
Flags: W
LayerCount: 2
Fore
SplineSet
800 230 m 1
 800 230 100 580 100 580 c 1
 100 580 100 820 100 820 c 1
 100 820 800 1170 800 1170 c 1
 800 1170 800 960 800 960 c 1
 800 960 294 700 294 700 c 1
 294 700 800 440 800 440 c 1
 800 440 800 230 800 230 c 1
EndSplineSet
Validated: 1
EndChar

StartChar: equal
Encoding: 56 61 56
Width: 1000
Flags: W
LayerCount: 2
Fore
SplineSet
100 1010 m 1
 100 1010 900 1010 900 1010 c 1
 900 1010 900 790 900 790 c 1
 900 790 100 790 100 790 c 1
 100 790 100 1010 100 1010 c 1
100 610 m 1
 100 610 900 610 900 610 c 1
 900 610 900 390 900 390 c 1
 900 390 100 390 100 390 c 1
 100 390 100 610 100 610 c 1
EndSplineSet
Validated: 1
EndChar

StartChar: greater
Encoding: 57 62 57
Width: 900
Flags: W
LayerCount: 2
Fore
SplineSet
800 580 m 1
 800 580 100 230 100 230 c 1
 100 230 100 440 100 440 c 1
 100 440 606 700 606 700 c 1
 606 700 100 960 100 960 c 1
 100 960 100 1170 100 1170 c 1
 100 1170 800 820 800 820 c 1
 800 820 800 580 800 580 c 1
EndSplineSet
Validated: 1
EndChar

StartChar: question
Encoding: 58 63 58
Width: 910
Flags: W
LayerCount: 2
Fore
SplineSet
260 1400 m 2
 260 1400 650 1400 650 1400 c 2
 738 1400 810 1328 810 1240 c 2
 810 1240 810 1048 810 1048 c 2
 810 780 525 720 525 460 c 2
 525 460 525 360 525 360 c 1
 525 360 300 360 300 360 c 1
 300 360 300 450 300 450 c 2
 300 749 589 856 589 1048 c 0
 589 1058 589 1127 589 1127 c 2
 589 1162 562 1190 527 1190 c 2
 527 1190 393 1190 393 1190 c 2
 358 1190 330 1162 330 1127 c 2
 330 1127 330 1000 330 1000 c 1
 330 1000 100 1000 100 1000 c 1
 100 1000 100 1240 100 1240 c 2
 100 1328 172 1400 260 1400 c 2
300 230 m 1
 300 230 530 230 530 230 c 1
 530 230 530 0 530 0 c 1
 530 0 300 0 300 0 c 1
 300 0 300 230 300 230 c 1
EndSplineSet
Validated: 1
EndChar

StartChar: at
Encoding: 59 64 59
Width: 1420
Flags: W
LayerCount: 2
Fore
SplineSet
500 60 m 2
 275 60 100 235 100 460 c 2
 100 460 100 940 100 940 c 2
 100 1165 275 1340 500 1340 c 2
 500 1340 920 1340 920 1340 c 2
 1142 1340 1315 1170 1320 950 c 1
 1320 950 1320 540 1320 540 c 2
 1320 452 1248 380 1160 380 c 2
 1160 380 1000 380 1000 380 c 2
 942 380 892 412 860 463 c 1
 832 412 778 380 720 380 c 2
 720 380 580 380 580 380 c 2
 492 380 420 452 420 540 c 2
 420 540 420 860 420 860 c 2
 420 948 492 1020 580 1020 c 2
 580 1020 710 1020 710 1020 c 2
 762 1020 810 995 840 953 c 1
 840 953 840 1020 840 1020 c 1
 840 1020 1000 1020 1000 1020 c 1
 1000 1020 1000 603 1000 603 c 2
 1000 568 1028 540 1063 540 c 2
 1063 540 1100 540 1100 540 c 2
 1129 540 1153 560 1160 587 c 1
 1160 587 1160 940 1160 940 c 2
 1160 1075 1055 1180 920 1180 c 2
 920 1180 500 1180 500 1180 c 2
 365 1180 260 1075 260 940 c 2
 260 940 260 460 260 460 c 2
 260 325 365 220 500 220 c 2
 500 220 1170 220 1170 220 c 1
 1170 220 1170 60 1170 60 c 1
 1170 60 500 60 500 60 c 2
778 540 m 2
 813 540 840 568 840 603 c 2
 840 603 840 797 840 797 c 2
 840 832 813 860 778 860 c 2
 778 860 643 860 643 860 c 2
 608 860 580 832 580 797 c 2
 580 797 580 603 580 603 c 2
 580 568 608 540 643 540 c 2
 643 540 778 540 778 540 c 2
EndSplineSet
Validated: 1
EndChar

StartChar: bracketleft
Encoding: 60 91 60
Width: 650
Flags: W
LayerCount: 2
Fore
SplineSet
640 1400 m 1
 640 1400 330 1400 330 1400 c 1
 330 1400 330 0 330 0 c 1
 330 0 640 0 640 0 c 1
 640 0 640 -200 640 -200 c 1
 640 -200 100 -200 100 -200 c 1
 100 -200 100 1600 100 1600 c 1
 100 1600 640 1600 640 1600 c 1
 640 1600 640 1400 640 1400 c 1
EndSplineSet
Validated: 1
EndChar

StartChar: backslash
Encoding: 61 92 61
Width: 800
Flags: W
LayerCount: 2
Fore
SplineSet
700 0 m 1
 700 0 460 0 460 0 c 1
 460 0 100 1400 100 1400 c 1
 100 1400 347 1400 347 1400 c 1
 347 1400 700 0 700 0 c 1
EndSplineSet
Validated: 1
EndChar

StartChar: bracketright
Encoding: 62 93 62
Width: 650
Flags: W
LayerCount: 2
Fore
SplineSet
10 1400 m 1
 10 1400 10 1600 10 1600 c 1
 10 1600 550 1600 550 1600 c 1
 550 1600 550 -200 550 -200 c 1
 550 -200 10 -200 10 -200 c 1
 10 -200 10 0 10 0 c 1
 10 0 320 0 320 0 c 1
 320 0 320 1400 320 1400 c 1
 320 1400 10 1400 10 1400 c 1
EndSplineSet
Validated: 1
EndChar

StartChar: asciicircum
Encoding: 63 94 63
Width: 935
Flags: W
LayerCount: 2
Fore
SplineSet
350 1450 m 1
 350 1450 585 1450 585 1450 c 1
 585 1450 835 950 835 950 c 1
 835 950 625 950 625 950 c 1
 625 950 468 1253 468 1253 c 1
 468 1253 310 950 310 950 c 1
 310 950 100 950 100 950 c 1
 100 950 350 1450 350 1450 c 1
EndSplineSet
Validated: 1
EndChar

StartChar: underscore
Encoding: 64 95 64
Width: 1000
Flags: W
LayerCount: 2
Fore
SplineSet
100 0 m 1
 100 0 900 0 900 0 c 1
 900 0 900 -200 900 -200 c 1
 900 -200 100 -200 100 -200 c 1
 100 -200 100 0 100 0 c 1
EndSplineSet
Validated: 1
EndChar

StartChar: grave
Encoding: 65 96 65
Width: 600
Flags: W
LayerCount: 2
Fore
SplineSet
360 1450 m 1
 360 1450 500 1050 500 1050 c 1
 500 1050 300 1050 300 1050 c 1
 300 1050 100 1450 100 1450 c 1
 100 1450 360 1450 360 1450 c 1
EndSplineSet
Validated: 1
EndChar

StartChar: a
Encoding: 66 97 66
Width: 940
Flags: W
LayerCount: 2
Fore
SplineSet
230 0 m 1
 230 0 0 0 0 0 c 1
 0 0 350 1400 350 1400 c 1
 350 1400 590 1400 590 1400 c 1
 590 1400 940 0 940 0 c 1
 940 0 710 0 710 0 c 1
 710 0 644 260 644 260 c 1
 644 260 296 260 296 260 c 1
 296 260 230 0 230 0 c 1
349 470 m 1
 349 470 591 470 591 470 c 1
 591 470 470 945 470 945 c 1
 470 945 349 470 349 470 c 1
EndSplineSet
Validated: 1
EndChar

StartChar: b
Encoding: 67 98 67
Width: 880
Flags: W
LayerCount: 2
Fore
SplineSet
100 0 m 1
 100 0 100 1400 100 1400 c 1
 100 1400 635 1400 635 1400 c 2
 715 1400 780 1335 780 1255 c 2
 780 1255 780 835 780 835 c 2
 780 775 743 722 688 700 c 1
 743 678 780 625 780 565 c 2
 780 565 780 145 780 145 c 2
 780 65 715 0 635 0 c 2
 635 0 100 0 100 0 c 1
350 820 m 1
 350 820 550 820 550 820 c 1
 550 820 550 1160 550 1160 c 1
 550 1160 350 1160 350 1160 c 1
 350 1160 350 820 350 820 c 1
350 240 m 1
 350 240 550 240 550 240 c 1
 550 240 550 580 550 580 c 1
 550 580 350 580 350 580 c 1
 350 580 350 240 350 240 c 1
EndSplineSet
Validated: 1
EndChar

StartChar: c
Encoding: 68 99 68
Width: 910
Flags: W
LayerCount: 2
Fore
SplineSet
100 145 m 2
 100 145 100 1255 100 1255 c 2
 100 1335 165 1400 245 1400 c 2
 245 1400 665 1400 665 1400 c 2
 745 1400 810 1335 810 1255 c 2
 810 1255 810 955 810 955 c 1
 810 955 560 955 560 955 c 1
 560 955 560 1143 560 1143 c 1
 560 1143 360 1143 360 1143 c 1
 360 1143 360 260 360 260 c 1
 360 260 560 260 560 260 c 1
 560 260 560 445 560 445 c 1
 560 445 810 445 810 445 c 1
 810 445 810 145 810 145 c 2
 810 66 746 0 667 0 c 2
 667 0 245 0 245 0 c 2
 165 0 100 65 100 145 c 2
EndSplineSet
Validated: 1
EndChar

StartChar: d
Encoding: 69 100 69
Width: 890
Flags: W
LayerCount: 2
Fore
SplineSet
100 0 m 1
 100 0 100 1400 100 1400 c 1
 100 1400 630 1400 630 1400 c 2
 718 1400 790 1328 790 1240 c 2
 790 1240 790 160 790 160 c 2
 790 72 718 0 630 0 c 2
 630 0 100 0 100 0 c 1
350 230 m 1
 350 230 529 230 529 230 c 2
 541 230 550 239 550 251 c 2
 550 251 550 1149 550 1149 c 2
 550 1161 541 1170 529 1170 c 2
 529 1170 350 1170 350 1170 c 1
 350 1170 350 230 350 230 c 1
EndSplineSet
Validated: 1
EndChar

StartChar: e
Encoding: 70 101 70
Width: 912
Flags: W
LayerCount: 2
Fore
SplineSet
100 0 m 1
 100 0 100 1400 100 1400 c 1
 100 1400 810 1400 810 1400 c 1
 810 1400 810 1170 810 1170 c 1
 810 1170 350 1170 350 1170 c 1
 350 1170 350 820 350 820 c 1
 350 820 730 820 730 820 c 1
 730 820 730 580 730 580 c 1
 730 580 350 580 350 580 c 1
 350 580 350 240 350 240 c 1
 350 240 812 240 812 240 c 1
 812 240 812 0 812 0 c 1
 812 0 100 0 100 0 c 1
EndSplineSet
Validated: 1
EndChar

StartChar: f
Encoding: 71 102 71
Width: 860
Flags: W
LayerCount: 2
Fore
SplineSet
350 0 m 1
 350 0 100 0 100 0 c 1
 100 0 100 1400 100 1400 c 1
 100 1400 810 1400 810 1400 c 1
 810 1400 810 1170 810 1170 c 1
 810 1170 350 1170 350 1170 c 1
 350 1170 350 820 350 820 c 1
 350 820 730 820 730 820 c 1
 730 820 730 580 730 580 c 1
 730 580 350 580 350 580 c 1
 350 580 350 0 350 0 c 1
EndSplineSet
Validated: 1
EndChar

StartChar: g
Encoding: 72 103 72
Width: 932
Flags: W
LayerCount: 2
Fore
SplineSet
100 145 m 2
 100 145 100 1255 100 1255 c 2
 100 1335 165 1400 245 1400 c 2
 245 1400 685 1400 685 1400 c 2
 765 1400 830 1335 830 1255 c 2
 830 1255 830 955 830 955 c 1
 830 955 600 955 600 955 c 1
 600 955 600 1152 600 1152 c 1
 600 1152 350 1152 350 1152 c 1
 350 1152 350 248 350 248 c 1
 350 248 537 248 537 248 c 2
 572 248 600 276 600 311 c 2
 600 311 600 470 600 470 c 1
 600 470 480 470 480 470 c 1
 480 470 480 700 480 700 c 1
 480 700 830 700 830 700 c 1
 830 700 830 144 830 144 c 2
 830 89 859 42 904 18 c 0
 907 16 912 14 912 8 c 0
 912 2 909 0 904 0 c 2
 904 0 826 0 826 0 c 2
 746 0 681 66 680 148 c 1
 680 148 678 148 678 148 c 1
 678 148 678 140 678 140 c 2
 678 62 614 0 536 0 c 0
 526 0 245 0 245 0 c 2
 165 0 100 65 100 145 c 2
EndSplineSet
Validated: 1
EndChar

StartChar: h
Encoding: 73 104 73
Width: 970
Flags: W
LayerCount: 2
Fore
SplineSet
350 0 m 1
 350 0 100 0 100 0 c 1
 100 0 100 1400 100 1400 c 1
 100 1400 350 1400 350 1400 c 1
 350 1400 350 810 350 810 c 1
 350 810 620 810 620 810 c 1
 620 810 620 1400 620 1400 c 1
 620 1400 870 1400 870 1400 c 1
 870 1400 870 0 870 0 c 1
 870 0 620 0 620 0 c 1
 620 0 620 570 620 570 c 1
 620 570 350 570 350 570 c 1
 350 570 350 0 350 0 c 1
EndSplineSet
Validated: 1
EndChar

StartChar: i
Encoding: 74 105 74
Width: 450
Flags: W
LayerCount: 2
Fore
SplineSet
100 1400 m 1
 100 1400 350 1400 350 1400 c 1
 350 1400 350 0 350 0 c 1
 350 0 100 0 100 0 c 1
 100 0 100 1400 100 1400 c 1
EndSplineSet
Validated: 1
EndChar

StartChar: j
Encoding: 75 106 75
Width: 910
Flags: W
LayerCount: 2
Fore
SplineSet
100 145 m 2
 100 145 100 430 100 430 c 1
 100 430 350 430 350 430 c 1
 350 430 350 260 350 260 c 1
 350 260 560 260 560 260 c 1
 560 260 560 1400 560 1400 c 1
 560 1400 810 1400 810 1400 c 1
 810 1400 810 145 810 145 c 2
 810 65 745 0 665 0 c 2
 665 0 245 0 245 0 c 2
 165 0 100 65 100 145 c 2
EndSplineSet
Validated: 1
EndChar

StartChar: k
Encoding: 76 107 76
Width: 950
Flags: W
LayerCount: 2
Fore
SplineSet
579 714 m 1
 579 714 900 0 900 0 c 1
 900 0 640 0 640 0 c 1
 640 0 368 603 368 603 c 1
 368 603 350 603 350 603 c 1
 350 603 350 0 350 0 c 1
 350 0 100 0 100 0 c 1
 100 0 100 1400 100 1400 c 1
 100 1400 350 1400 350 1400 c 1
 350 1400 350 813 350 813 c 1
 350 813 367 813 367 813 c 1
 367 813 620 1400 620 1400 c 1
 620 1400 880 1400 880 1400 c 1
 880 1400 579 714 579 714 c 1
EndSplineSet
Validated: 1
EndChar

StartChar: l
Encoding: 77 108 77
Width: 880
Flags: W
LayerCount: 2
Fore
SplineSet
350 255 m 1
 350 255 800 255 800 255 c 1
 800 255 800 0 800 0 c 1
 800 0 100 0 100 0 c 1
 100 0 100 1400 100 1400 c 1
 100 1400 350 1400 350 1400 c 1
 350 1400 350 255 350 255 c 1
EndSplineSet
Validated: 1
EndChar

StartChar: m
Encoding: 78 109 78
Width: 1320
Flags: W
LayerCount: 2
Fore
SplineSet
860 1400 m 1
 860 1400 1220 1400 1220 1400 c 1
 1220 1400 1220 0 1220 0 c 1
 1220 0 1000 0 1000 0 c 1
 1000 0 1000 1050 1000 1050 c 1
 1000 1050 750 0 750 0 c 1
 750 0 570 0 570 0 c 1
 570 0 320 1050 320 1050 c 1
 320 1050 320 0 320 0 c 1
 320 0 100 0 100 0 c 1
 100 0 100 1400 100 1400 c 1
 100 1400 460 1400 460 1400 c 1
 460 1400 660 482 660 482 c 1
 660 482 860 1400 860 1400 c 1
EndSplineSet
Validated: 1
EndChar

StartChar: n
Encoding: 79 110 79
Width: 980
Flags: W
LayerCount: 2
Fore
SplineSet
640 610 m 1
 640 610 640 1400 640 1400 c 1
 640 1400 880 1400 880 1400 c 1
 880 1400 880 0 880 0 c 1
 880 0 670 0 670 0 c 1
 670 0 330 754 330 754 c 1
 330 754 330 0 330 0 c 1
 330 0 100 0 100 0 c 1
 100 0 100 1400 100 1400 c 1
 100 1400 310 1400 310 1400 c 1
 310 1400 640 610 640 610 c 1
EndSplineSet
Validated: 1
EndChar

StartChar: o
Encoding: 80 111 80
Width: 940
Flags: W
LayerCount: 2
Fore
SplineSet
840 1255 m 2
 840 1255 840 145 840 145 c 2
 840 65 775 0 695 0 c 2
 695 0 245 0 245 0 c 2
 165 0 100 65 100 145 c 2
 100 145 100 1255 100 1255 c 2
 100 1335 165 1400 245 1400 c 2
 245 1400 695 1400 695 1400 c 2
 775 1400 840 1335 840 1255 c 2
350 250 m 1
 350 250 590 250 590 250 c 1
 590 250 590 1150 590 1150 c 1
 590 1150 350 1150 350 1150 c 1
 350 1150 350 250 350 250 c 1
EndSplineSet
Validated: 1
EndChar

StartChar: p
Encoding: 81 112 81
Width: 890
Flags: W
LayerCount: 2
Fore
SplineSet
810 1260 m 2
 810 1260 810 665 810 665 c 2
 810 585 745 520 665 520 c 2
 665 520 350 520 350 520 c 1
 350 520 350 0 350 0 c 1
 350 0 100 0 100 0 c 1
 100 0 100 1400 100 1400 c 1
 100 1400 670 1400 670 1400 c 2
 747 1400 810 1337 810 1260 c 2
350 770 m 1
 350 770 560 770 560 770 c 1
 560 770 560 1160 560 1160 c 1
 560 1160 350 1160 350 1160 c 1
 350 1160 350 770 350 770 c 1
EndSplineSet
Validated: 1
EndChar

StartChar: q
Encoding: 82 113 82
Width: 940
Flags: W
LayerCount: 2
Fore
SplineSet
100 145 m 2
 100 145 100 1255 100 1255 c 2
 100 1335 165 1400 245 1400 c 2
 245 1400 695 1400 695 1400 c 2
 775 1400 840 1335 840 1255 c 2
 840 1255 840 145 840 145 c 2
 840 67 778 0 700 0 c 1
 700 0 820 -150 820 -150 c 1
 820 -150 640 -250 640 -250 c 1
 640 -250 499 -21 499 -21 c 1
 499 -21 490 0 465 0 c 2
 465 0 245 0 245 0 c 2
 165 0 100 65 100 145 c 2
590 250 m 1
 590 250 590 1150 590 1150 c 1
 590 1150 350 1150 350 1150 c 1
 350 1150 350 250 350 250 c 1
 350 250 590 250 590 250 c 1
EndSplineSet
Validated: 1
EndChar

StartChar: r
Encoding: 83 114 83
Width: 883
Flags: W
LayerCount: 2
Fore
SplineSet
350 0 m 1
 350 0 100 0 100 0 c 1
 100 0 100 1400 100 1400 c 1
 100 1400 635 1400 635 1400 c 2
 715 1400 780 1335 780 1255 c 2
 780 1255 780 745 780 745 c 2
 780 697 756 652 716 625 c 1
 756 598 780 553 780 505 c 2
 780 505 780 144 780 144 c 2
 780 91 809 43 855 18 c 0
 858 16 863 14 863 8 c 0
 863 2 860 0 855 0 c 2
 855 0 684 0 684 0 c 2
 604 0 540 64 540 144 c 2
 540 144 540 520 540 520 c 1
 540 520 350 520 350 520 c 1
 350 520 350 0 350 0 c 1
350 740 m 1
 350 740 540 740 540 740 c 1
 540 740 540 1150 540 1150 c 1
 540 1150 350 1150 350 1150 c 1
 350 1150 350 740 350 740 c 1
EndSplineSet
Validated: 1
EndChar

StartChar: s
Encoding: 84 115 84
Width: 940
Flags: W
LayerCount: 2
Fore
SplineSet
100 150 m 2
 100 150 100 463 100 463 c 1
 100 463 340 463 340 463 c 1
 340 463 340 261 340 261 c 2
 340 249 349 240 361 240 c 2
 361 240 579 240 579 240 c 2
 591 240 600 249 600 261 c 2
 600 261 600 559 600 559 c 2
 600 571 591 580 579 580 c 2
 579 580 250 580 250 580 c 2
 167 580 100 648 100 731 c 2
 100 731 100 1250 100 1250 c 2
 100 1333 167 1400 250 1400 c 2
 250 1400 690 1400 690 1400 c 2
 773 1400 840 1333 840 1250 c 2
 840 1250 840 980 840 980 c 1
 840 980 600 980 600 980 c 1
 600 980 600 1139 600 1139 c 2
 600 1151 591 1160 579 1160 c 2
 579 1160 361 1160 361 1160 c 2
 349 1160 340 1151 340 1139 c 2
 340 1139 340 841 340 841 c 2
 340 829 349 820 361 820 c 2
 361 820 690 820 690 820 c 2
 773 820 840 753 840 670 c 2
 840 670 840 150 840 150 c 2
 840 67 773 0 690 0 c 2
 690 0 250 0 250 0 c 2
 167 0 100 67 100 150 c 2
EndSplineSet
Validated: 1
EndChar

StartChar: t
Encoding: 85 116 85
Width: 880
Flags: W
LayerCount: 2
Fore
SplineSet
315 0 m 1
 315 0 315 1160 315 1160 c 1
 315 1160 50 1160 50 1160 c 1
 50 1160 50 1400 50 1400 c 1
 50 1400 830 1400 830 1400 c 1
 830 1400 830 1160 830 1160 c 1
 830 1160 565 1160 565 1160 c 1
 565 1160 565 0 565 0 c 1
 565 0 315 0 315 0 c 1
EndSplineSet
Validated: 1
EndChar

StartChar: u
Encoding: 86 117 86
Width: 970
Flags: W
LayerCount: 2
Fore
SplineSet
350 1400 m 1
 350 1400 350 250 350 250 c 1
 350 250 620 250 620 250 c 1
 620 250 620 1400 620 1400 c 1
 620 1400 870 1400 870 1400 c 1
 870 1400 870 145 870 145 c 2
 870 65 805 0 725 0 c 2
 725 0 245 0 245 0 c 2
 165 0 100 65 100 145 c 2
 100 145 100 1400 100 1400 c 1
 100 1400 350 1400 350 1400 c 1
EndSplineSet
Validated: 1
EndChar

StartChar: v
Encoding: 87 118 87
Width: 990
Flags: W
LayerCount: 2
Fore
SplineSet
495 460 m 1
 495 460 710 1400 710 1400 c 1
 710 1400 970 1400 970 1400 c 1
 970 1400 630 0 630 0 c 1
 630 0 360 0 360 0 c 1
 360 0 20 1400 20 1400 c 1
 20 1400 280 1400 280 1400 c 1
 280 1400 495 460 495 460 c 1
EndSplineSet
Validated: 1
EndChar

StartChar: w
Encoding: 88 119 88
Width: 1442
Flags: W
LayerCount: 2
Fore
SplineSet
996 470 m 1
 996 470 1182 1400 1182 1400 c 1
 1182 1400 1442 1400 1442 1400 c 1
 1442 1400 1105 0 1105 0 c 1
 1105 0 875 0 875 0 c 1
 875 0 721 811 721 811 c 1
 721 811 567 0 567 0 c 1
 567 0 337 0 337 0 c 1
 337 0 0 1400 0 1400 c 1
 0 1400 260 1400 260 1400 c 1
 260 1400 446 470 446 470 c 1
 446 470 607 1400 607 1400 c 1
 607 1400 835 1400 835 1400 c 1
 835 1400 996 470 996 470 c 1
EndSplineSet
Validated: 1
EndChar

StartChar: x
Encoding: 89 120 89
Width: 875
Flags: W
LayerCount: 2
Fore
SplineSet
855 1400 m 1
 855 1400 580 695 580 695 c 1
 580 695 865 0 865 0 c 1
 865 0 595 0 595 0 c 1
 595 0 440 413 440 413 c 1
 440 413 280 0 280 0 c 1
 280 0 10 0 10 0 c 1
 10 0 303 701 303 701 c 1
 303 701 20 1400 20 1400 c 1
 20 1400 260 1400 260 1400 c 1
 260 1400 445 958 445 958 c 1
 445 958 615 1400 615 1400 c 1
 615 1400 855 1400 855 1400 c 1
EndSplineSet
Validated: 1
EndChar

StartChar: y
Encoding: 90 121 90
Width: 920
Flags: W
LayerCount: 2
Fore
SplineSet
860 1400 m 1
 860 1400 585 506 585 506 c 1
 585 506 585 0 585 0 c 1
 585 0 335 0 335 0 c 1
 335 0 335 506 335 506 c 1
 335 506 60 1400 60 1400 c 1
 60 1400 310 1400 310 1400 c 1
 310 1400 460 810 460 810 c 1
 460 810 600 1400 600 1400 c 1
 600 1400 860 1400 860 1400 c 1
EndSplineSet
Validated: 1
EndChar

StartChar: z
Encoding: 91 122 91
Width: 890
Flags: W
LayerCount: 2
Fore
SplineSet
90 1400 m 1
 90 1400 800 1400 800 1400 c 1
 800 1400 800 1240 800 1240 c 1
 800 1240 384 230 384 230 c 1
 384 230 800 230 800 230 c 1
 800 230 800 0 800 0 c 1
 800 0 90 0 90 0 c 1
 90 0 90 160 90 160 c 1
 90 160 529 1170 529 1170 c 1
 529 1170 90 1170 90 1170 c 1
 90 1170 90 1400 90 1400 c 1
EndSplineSet
Validated: 1
EndChar

StartChar: braceleft
Encoding: 92 123 92
Width: 730
Flags: W
LayerCount: 2
Fore
SplineSet
100 775 m 1
 100 775 128 775 128 775 c 2
 163 775 190 803 190 838 c 2
 190 838 190 1130 190 1130 c 2
 190 1377 393 1580 640 1580 c 2
 640 1580 720 1580 720 1580 c 1
 720 1580 720 1400 720 1400 c 1
 720 1400 640 1400 640 1400 c 2
 559 1400 420 1344 420 1190 c 2
 420 1190 420 850 420 850 c 2
 420 783 379 723 316 700 c 1
 379 676 420 617 420 550 c 2
 420 550 420 210 420 210 c 2
 420 56 559 0 640 0 c 2
 640 0 720 0 720 0 c 1
 720 0 720 -180 720 -180 c 1
 720 -180 640 -180 640 -180 c 2
 393 -180 190 23 190 270 c 2
 190 270 190 562 190 562 c 2
 190 597 163 625 128 625 c 2
 128 625 100 625 100 625 c 1
 100 625 100 775 100 775 c 1
EndSplineSet
Validated: 1
EndChar

StartChar: bar
Encoding: 93 124 93
Width: 430
Flags: W
LayerCount: 2
Fore
SplineSet
100 1580 m 1
 100 1580 330 1580 330 1580 c 1
 330 1580 330 -180 330 -180 c 1
 330 -180 100 -180 100 -180 c 1
 100 -180 100 1580 100 1580 c 1
EndSplineSet
Validated: 1
EndChar

StartChar: braceright
Encoding: 94 125 94
Width: 730
Flags: W
LayerCount: 2
Fore
SplineSet
90 1580 m 2
 337 1580 540 1377 540 1130 c 2
 540 1130 540 838 540 838 c 2
 540 803 567 775 602 775 c 2
 602 775 630 775 630 775 c 1
 630 775 630 625 630 625 c 1
 630 625 602 625 602 625 c 2
 567 625 540 597 540 562 c 2
 540 562 540 270 540 270 c 2
 540 23 337 -180 90 -180 c 2
 90 -180 10 -180 10 -180 c 1
 10 -180 10 0 10 0 c 1
 10 0 90 0 90 0 c 2
 171 0 310 56 310 210 c 2
 310 210 310 550 310 550 c 2
 310 617 351 676 414 700 c 1
 351 723 310 783 310 850 c 2
 310 850 310 1190 310 1190 c 2
 310 1344 171 1400 90 1400 c 2
 90 1400 10 1400 10 1400 c 1
 10 1400 10 1580 10 1580 c 1
 10 1580 90 1580 90 1580 c 2
EndSplineSet
Validated: 1
EndChar

StartChar: nobreakspace
Encoding: 95 160 95
Width: 580
Flags: W
LayerCount: 2
Fore
SplineSet
0 0 m 1024
EndSplineSet
Validated: 1
EndChar

StartChar: exclamdown
Encoding: 96 161 96
Width: 450
Flags: W
LayerCount: 2
Fore
SplineSet
110 1170 m 1
 110 1170 110 1400 110 1400 c 1
 110 1400 340 1400 340 1400 c 1
 340 1400 340 1170 340 1170 c 1
 340 1170 110 1170 110 1170 c 1
330 1010 m 1
 330 1010 350 520 350 520 c 1
 350 520 350 0 350 0 c 1
 350 0 100 0 100 0 c 1
 100 0 100 520 100 520 c 1
 100 520 120 1010 120 1010 c 1
 120 1010 330 1010 330 1010 c 1
EndSplineSet
Validated: 1
EndChar

StartChar: cent
Encoding: 97 162 97
Width: 690
Flags: W
LayerCount: 2
Fore
SplineSet
100 540 m 2
 100 540 100 860 100 860 c 2
 100 948 172 1020 260 1020 c 1
 260 1020 260 1200 260 1200 c 1
 260 1200 430 1200 430 1200 c 1
 430 1200 430 1020 430 1020 c 1
 518 1020 590 948 590 860 c 2
 590 860 590 800 590 800 c 1
 590 800 430 800 430 800 c 1
 430 800 430 860 430 860 c 1
 430 860 260 860 260 860 c 1
 260 860 260 540 260 540 c 1
 260 540 430 540 430 540 c 1
 430 540 430 600 430 600 c 1
 430 600 590 600 590 600 c 1
 590 600 590 540 590 540 c 2
 590 452 518 380 430 380 c 1
 430 380 430 200 430 200 c 1
 430 200 260 200 260 200 c 1
 260 200 260 380 260 380 c 1
 172 380 100 452 100 540 c 2
EndSplineSet
Validated: 1
EndChar

StartChar: sterling
Encoding: 98 163 98
Width: 910
Flags: W
LayerCount: 2
Fore
SplineSet
810 1240 m 2
 810 1240 810 1000 810 1000 c 1
 810 1000 580 1000 580 1000 c 1
 580 1000 580 1127 580 1127 c 2
 580 1162 552 1190 517 1190 c 2
 517 1190 383 1190 383 1190 c 2
 348 1190 321 1162 321 1127 c 2
 321 1127 321 1085 321 1078 c 0
 321 922 414 875 448 700 c 1
 448 700 810 700 810 700 c 1
 810 700 810 500 810 500 c 1
 810 500 446 500 446 500 c 1
 446 500 376 200 376 200 c 1
 376 200 810 200 810 200 c 1
 810 200 810 0 810 0 c 1
 810 0 100 0 100 0 c 1
 100 0 214 500 214 500 c 1
 214 500 100 500 100 500 c 1
 100 500 100 700 100 700 c 1
 100 700 216 700 216 700 c 1
 182 834 100 865 100 1078 c 2
 100 1078 100 1240 100 1240 c 2
 100 1328 172 1400 260 1400 c 2
 260 1400 650 1400 650 1400 c 2
 738 1400 810 1328 810 1240 c 2
EndSplineSet
Validated: 1
EndChar

StartChar: currency
Encoding: 99 164 99
Width: 980
Flags: W
LayerCount: 2
Fore
SplineSet
580 380 m 2
 580 380 400 380 400 380 c 2
 327 380 263 429 245 500 c 1
 245 500 100 500 100 500 c 1
 100 500 100 640 100 640 c 1
 100 640 240 640 240 640 c 1
 240 640 240 760 240 760 c 1
 240 760 100 760 100 760 c 1
 100 760 100 900 100 900 c 1
 100 900 245 900 245 900 c 1
 263 971 327 1020 400 1020 c 2
 400 1020 580 1020 580 1020 c 2
 653 1020 717 971 735 900 c 1
 735 900 880 900 880 900 c 1
 880 900 880 760 880 760 c 1
 880 760 740 760 740 760 c 1
 740 760 740 640 740 640 c 1
 740 640 880 640 880 640 c 1
 880 640 880 500 880 500 c 1
 880 500 735 500 735 500 c 1
 717 429 653 380 580 380 c 2
400 540 m 1
 400 540 580 540 580 540 c 1
 580 540 580 860 580 860 c 1
 580 860 400 860 400 860 c 1
 400 860 400 540 400 540 c 1
EndSplineSet
Validated: 1
EndChar

StartChar: yen
Encoding: 100 165 100
Width: 1000
Flags: W
LayerCount: 2
Fore
SplineSet
640 1400 m 1
 640 1400 900 1400 900 1400 c 1
 900 1400 684 699 684 699 c 1
 684 699 900 699 900 699 c 1
 900 699 900 499 900 499 c 1
 900 499 625 499 625 499 c 1
 625 499 625 399 625 399 c 1
 625 399 900 399 900 399 c 1
 900 399 900 199 900 199 c 1
 900 199 625 199 625 199 c 1
 625 199 625 0 625 0 c 1
 625 0 375 0 375 0 c 1
 375 0 375 199 375 199 c 1
 375 199 100 199 100 199 c 1
 100 199 100 399 100 399 c 1
 100 399 375 399 375 399 c 1
 375 399 375 499 375 499 c 1
 375 499 100 499 100 499 c 1
 100 499 100 699 100 699 c 1
 100 699 316 699 316 699 c 1
 316 699 100 1400 100 1400 c 1
 100 1400 350 1400 350 1400 c 1
 350 1400 500 790 500 790 c 1
 500 790 640 1400 640 1400 c 1
EndSplineSet
Validated: 1
EndChar

StartChar: brokenbar
Encoding: 101 166 101
Width: 430
Flags: W
LayerCount: 2
Fore
SplineSet
100 600 m 1
 100 600 330 600 330 600 c 1
 330 600 330 -180 330 -180 c 1
 330 -180 100 -180 100 -180 c 1
 100 -180 100 600 100 600 c 1
100 1580 m 1
 100 1580 330 1580 330 1580 c 1
 330 1580 330 800 330 800 c 1
 330 800 100 800 100 800 c 1
 100 800 100 1580 100 1580 c 1
EndSplineSet
Validated: 1
EndChar

StartChar: section
Encoding: 102 167 102
Width: 930
Flags: HW
LayerCount: 2
Fore
SplineSet
830 1244 m 0
 830 1242 830 1019 830 1019 c 1
 830 1019 620 1019 620 1019 c 1
 620 1019 620 1126 620 1126 c 2
 620 1161 592 1189 557 1189 c 2
 557 1189 382 1189 382 1189 c 2
 347 1189 320 1161 320 1126 c 2
 320 1126 320 1046 320 1046 c 1
 320 1046 748 889 748 889 c 1
 798 878 830 834 830 787 c 0
 830 774 828 762 823 749 c 2
 823 749 743 529 743 529 c 1
 796 503 830 449 830 390 c 2
 830 390 830 155 830 155 c 2
 830 69 761 0 675 0 c 0
 673 0 257 0 255 0 c 0
 169 0 100 69 100 155 c 0
 100 157 100 380 100 380 c 1
 100 380 310 380 310 380 c 1
 310 380 310 273 310 273 c 2
 310 238 338 210 373 210 c 2
 373 210 548 210 548 210 c 2
 583 210 610 238 610 273 c 2
 610 273 610 353 610 353 c 1
 610 353 182 510 182 510 c 1
 132 521 100 565 100 612 c 0
 100 625 102 637 107 650 c 2
 107 650 187 870 187 870 c 1
 134 896 100 950 100 1009 c 2
 100 1009 100 1244 100 1244 c 2
 100 1330 169 1399 255 1399 c 0
 257 1399 675 1399 675 1399 c 2
 761 1399 830 1330 830 1244 c 0
572 672 m 2
 573 677 574 682 574 687 c 0
 574 711 560 733 538 744 c 2
 538 744 385 799 385 799 c 1
 385 799 358 727 358 727 c 2
 357 722 356 717 356 712 c 0
 356 688 370 666 392 655 c 2
 392 655 545 600 545 600 c 1
 545 600 572 672 572 672 c 2
EndSplineSet
Validated: 1
EndChar

StartChar: dieresis
Encoding: 103 168 103
Width: 800
Flags: W
LayerCount: 2
Fore
SplineSet
100 1720 m 1
 100 1720 330 1720 330 1720 c 1
 330 1720 330 1490 330 1490 c 1
 330 1490 100 1490 100 1490 c 1
 100 1490 100 1720 100 1720 c 1
470 1720 m 1
 470 1720 700 1720 700 1720 c 1
 700 1720 700 1490 700 1490 c 1
 700 1490 470 1490 470 1490 c 1
 470 1490 470 1720 470 1720 c 1
EndSplineSet
Validated: 1
EndChar

StartChar: copyright
Encoding: 104 169 104
Width: 1330
Flags: W
LayerCount: 2
Fore
SplineSet
100 460 m 2
 100 460 100 940 100 940 c 2
 100 1165 275 1340 500 1340 c 2
 500 1340 830 1340 830 1340 c 2
 1052 1340 1225 1170 1230 950 c 1
 1230 950 1230 460 1230 460 c 2
 1230 235 1055 60 830 60 c 2
 830 60 500 60 500 60 c 2
 275 60 100 235 100 460 c 2
260 460 m 2
 260 325 365 220 500 220 c 2
 500 220 830 220 830 220 c 2
 965 220 1070 325 1070 460 c 2
 1070 460 1070 940 1070 940 c 2
 1070 1075 965 1180 830 1180 c 2
 830 1180 500 1180 500 1180 c 2
 365 1180 260 1075 260 940 c 2
 260 940 260 460 260 460 c 2
420 540 m 2
 420 540 420 860 420 860 c 2
 420 948 492 1020 580 1020 c 2
 580 1020 750 1020 750 1020 c 2
 838 1020 910 948 910 860 c 2
 910 860 910 800 910 800 c 1
 910 800 750 800 750 800 c 1
 750 800 750 860 750 860 c 1
 750 860 580 860 580 860 c 1
 580 860 580 540 580 540 c 1
 580 540 750 540 750 540 c 1
 750 540 750 600 750 600 c 1
 750 600 910 600 910 600 c 1
 910 600 910 540 910 540 c 2
 910 452 838 380 750 380 c 2
 750 380 580 380 580 380 c 2
 492 380 420 452 420 540 c 2
EndSplineSet
Validated: 1
EndChar

StartChar: ordfeminine
Encoding: 105 170 105
Width: 843
Flags: W
LayerCount: 2
Fore
SplineSet
680 1450 m 1
 680 1450 680 1033 680 1033 c 2
 680 998 708 970 743 970 c 1
 743 970 743 810 743 810 c 1
 743 810 680 810 680 810 c 2
 622 810 568 842 540 893 c 1
 512 842 458 810 400 810 c 2
 400 810 260 810 260 810 c 2
 172 810 100 882 100 970 c 2
 100 970 100 1290 100 1290 c 2
 100 1378 172 1450 260 1450 c 2
 260 1450 390 1450 390 1450 c 2
 442 1450 490 1425 520 1383 c 1
 520 1383 520 1450 520 1450 c 1
 520 1450 680 1450 680 1450 c 1
458 970 m 2
 493 970 520 998 520 1033 c 2
 520 1033 520 1227 520 1227 c 2
 520 1262 493 1290 458 1290 c 2
 458 1290 323 1290 323 1290 c 2
 288 1290 260 1262 260 1227 c 2
 260 1227 260 1033 260 1033 c 2
 260 998 288 970 323 970 c 2
 323 970 458 970 458 970 c 2
EndSplineSet
Validated: 1
EndChar

StartChar: guillemotleft
Encoding: 106 171 106
Width: 984
Flags: W
LayerCount: 2
Fore
SplineSet
301 700 m 1
 301 700 560 360 560 360 c 1
 560 360 372 360 372 360 c 1
 372 360 100 700 100 700 c 1
 100 700 372 1040 372 1040 c 1
 372 1040 560 1040 560 1040 c 1
 560 1040 301 700 301 700 c 1
884 1040 m 1
 884 1040 625 700 625 700 c 1
 625 700 884 360 884 360 c 1
 884 360 696 360 696 360 c 1
 696 360 424 700 424 700 c 1
 424 700 696 1040 696 1040 c 1
 696 1040 884 1040 884 1040 c 1
EndSplineSet
Validated: 1
EndChar

StartChar: logicalnot
Encoding: 107 172 107
Width: 1100
Flags: W
LayerCount: 2
Fore
SplineSet
100 810 m 1
 100 810 1000 810 1000 810 c 1
 1000 810 1000 410 1000 410 c 1
 1000 410 780 410 780 410 c 1
 780 410 780 590 780 590 c 1
 780 590 100 590 100 590 c 1
 100 590 100 810 100 810 c 1
EndSplineSet
Validated: 1
EndChar

StartChar: registered
Encoding: 108 174 108
Width: 1330
Flags: W
LayerCount: 2
Fore
SplineSet
500 1340 m 2
 500 1340 830 1340 830 1340 c 2
 1052 1340 1225 1170 1230 950 c 1
 1230 950 1230 460 1230 460 c 2
 1230 235 1055 60 830 60 c 2
 830 60 500 60 500 60 c 2
 275 60 100 235 100 460 c 2
 100 460 100 940 100 940 c 2
 100 1165 275 1340 500 1340 c 2
500 1180 m 2
 365 1180 260 1075 260 940 c 2
 260 940 260 460 260 460 c 2
 260 325 365 220 500 220 c 2
 500 220 830 220 830 220 c 2
 965 220 1070 325 1070 460 c 2
 1070 460 1070 940 1070 940 c 2
 1070 1075 965 1180 830 1180 c 2
 830 1180 500 1180 500 1180 c 2
580 380 m 1
 580 380 420 380 420 380 c 1
 420 380 420 1020 420 1020 c 1
 420 1020 750 1020 750 1020 c 2
 838 1020 910 948 910 860 c 2
 910 860 910 740 910 740 c 2
 910 684 881 633 834 604 c 1
 834 604 925 380 925 380 c 1
 925 380 765 380 765 380 c 1
 765 380 691 580 691 580 c 1
 691 580 580 580 580 580 c 1
 580 580 580 380 580 380 c 1
580 860 m 1
 580 860 580 740 580 740 c 1
 580 740 750 740 750 740 c 1
 750 740 750 860 750 860 c 1
 750 860 580 860 580 860 c 1
EndSplineSet
Validated: 1
EndChar

StartChar: macron
Encoding: 109 175 109
Width: 1000
Flags: W
LayerCount: 2
Fore
SplineSet
100 1700 m 1
 100 1700 900 1700 900 1700 c 1
 900 1700 900 1500 900 1500 c 1
 900 1500 100 1500 100 1500 c 1
 100 1500 100 1700 100 1700 c 1
EndSplineSet
Validated: 1
EndChar

StartChar: degree
Encoding: 110 176 110
Width: 660
Flags: W
LayerCount: 2
Fore
SplineSet
100 1169 m 2
 100 1169 100 1220 100 1220 c 2
 100 1347 203 1450 330 1450 c 0
 457 1450 560 1347 560 1220 c 2
 560 1220 560 1169 560 1169 c 2
 560 1042 457 940 330 940 c 0
 203 940 100 1042 100 1169 c 2
259 1184 m 2
 259 1131 291 1089 330 1089 c 0
 369 1089 401 1131 401 1184 c 2
 401 1184 401 1206 401 1206 c 2
 401 1259 369 1300 330 1300 c 0
 291 1300 259 1259 259 1206 c 2
 259 1206 259 1184 259 1184 c 2
EndSplineSet
Validated: 1
EndChar

StartChar: plusminus
Encoding: 111 177 111
Width: 1000
Flags: W
LayerCount: 2
Fore
SplineSet
100 365 m 1
 100 365 900 365 900 365 c 1
 900 365 900 145 900 145 c 1
 900 145 100 145 100 145 c 1
 100 145 100 365 100 365 c 1
610 455 m 1
 610 455 390 455 390 455 c 1
 390 455 390 745 390 745 c 1
 390 745 100 745 100 745 c 1
 100 745 100 965 100 965 c 1
 100 965 390 965 390 965 c 1
 390 965 390 1255 390 1255 c 1
 390 1255 610 1255 610 1255 c 1
 610 1255 610 965 610 965 c 1
 610 965 900 965 900 965 c 1
 900 965 900 745 900 745 c 1
 900 745 610 745 610 745 c 1
 610 745 610 455 610 455 c 1
EndSplineSet
Validated: 1
EndChar

StartChar: uni00B2
Encoding: 112 178 112
Width: 520
Flags: W
LayerCount: 2
Fore
SplineSet
420 1260 m 2
 420 1168 274 1059 232 960 c 1
 232 960 420 960 420 960 c 1
 420 960 420 850 420 850 c 1
 420 850 100 850 100 850 c 1
 100 850 100 900 100 900 c 2
 100 1042 324 1198 324 1280 c 0
 324 1286 324 1307 324 1325 c 0
 323 1339 311 1350 297 1350 c 2
 297 1350 235 1350 235 1350 c 2
 220 1350 208 1338 208 1323 c 2
 208 1323 208 1280 208 1280 c 1
 208 1280 108 1280 108 1280 c 1
 108 1280 108 1380 108 1380 c 2
 108 1419 139 1450 178 1450 c 2
 178 1450 350 1450 350 1450 c 2
 389 1450 420 1419 420 1380 c 2
 420 1380 420 1260 420 1260 c 2
EndSplineSet
Validated: 1
EndChar

StartChar: uni00B3
Encoding: 113 179 113
Width: 520
Flags: W
LayerCount: 2
Fore
SplineSet
350 1450 m 2
 389 1450 420 1419 420 1380 c 2
 420 1380 420 1220 420 1220 c 2
 420 1193 404 1168 380 1157 c 1
 380 1157 380 1143 380 1143 c 1
 404 1132 420 1107 420 1080 c 2
 420 1080 420 920 420 920 c 2
 420 881 389 850 350 850 c 2
 350 850 170 850 170 850 c 2
 131 850 100 881 100 920 c 2
 100 920 100 1020 100 1020 c 1
 100 1020 200 1020 200 1020 c 1
 200 1020 200 977 200 977 c 2
 200 962 212 950 227 950 c 2
 227 950 293 950 293 950 c 2
 308 950 320 962 320 977 c 2
 320 977 320 1073 320 1073 c 2
 320 1088 308 1100 293 1100 c 2
 293 1100 220 1100 220 1100 c 1
 220 1100 220 1200 220 1200 c 1
 220 1200 293 1200 293 1200 c 2
 308 1200 320 1212 320 1227 c 2
 320 1227 320 1323 320 1323 c 2
 320 1338 308 1350 293 1350 c 2
 293 1350 227 1350 227 1350 c 2
 212 1350 200 1338 200 1323 c 2
 200 1323 200 1280 200 1280 c 1
 200 1280 100 1280 100 1280 c 1
 100 1280 100 1380 100 1380 c 2
 100 1419 131 1450 170 1450 c 2
 170 1450 350 1450 350 1450 c 2
EndSplineSet
Validated: 1
EndChar

StartChar: acute
Encoding: 114 180 114
Width: 600
Flags: W
LayerCount: 2
Fore
SplineSet
100 1400 m 1
 100 1400 240 1800 240 1800 c 1
 240 1800 500 1800 500 1800 c 1
 500 1800 300 1400 300 1400 c 1
 300 1400 100 1400 100 1400 c 1
EndSplineSet
Validated: 1
EndChar

StartChar: mu
Encoding: 115 181 115
Width: 843
Flags: W
LayerCount: 2
Fore
SplineSet
260 640 m 1
 260 640 260 223 260 223 c 2
 260 188 288 160 323 160 c 2
 323 160 458 160 458 160 c 2
 493 160 520 188 520 223 c 2
 520 223 520 640 520 640 c 1
 520 640 680 640 680 640 c 1
 680 640 680 223 680 223 c 2
 680 188 708 160 743 160 c 1
 743 160 743 0 743 0 c 1
 743 0 680 0 680 0 c 2
 622 0 568 32 540 83 c 1
 512 32 458 0 400 0 c 2
 400 0 260 0 260 0 c 1
 260 0 260 -300 260 -300 c 1
 260 -300 100 -300 100 -300 c 1
 100 -300 100 640 100 640 c 1
 100 640 260 640 260 640 c 1
EndSplineSet
Validated: 1
EndChar

StartChar: paragraph
Encoding: 116 182 116
Width: 1080
Flags: W
LayerCount: 2
Fore
SplineSet
450 0 m 1
 450 0 450 750 450 750 c 1
 450 750 240 750 240 750 c 2
 162 753 100 817 100 895 c 2
 100 895 100 1260 100 1260 c 2
 100 1337 163 1400 240 1400 c 2
 240 1400 980 1400 980 1400 c 1
 980 1400 980 0 980 0 c 1
 980 0 780 0 780 0 c 1
 780 0 780 1200 780 1200 c 1
 780 1200 650 1200 650 1200 c 1
 650 1200 650 0 650 0 c 1
 650 0 450 0 450 0 c 1
EndSplineSet
Validated: 1
EndChar

StartChar: periodcentered
Encoding: 117 183 117
Width: 430
Flags: W
LayerCount: 2
Fore
SplineSet
100 815 m 1
 100 815 330 815 330 815 c 1
 330 815 330 585 330 585 c 1
 330 585 100 585 100 585 c 1
 100 585 100 815 100 815 c 1
EndSplineSet
Validated: 1
EndChar

StartChar: cedilla
Encoding: 118 184 118
Width: 780
Flags: W
LayerCount: 2
Fore
SplineSet
600 0 m 1
 600 0 680 -80 680 -80 c 1
 680 -80 680 -230 680 -230 c 2
 680 -318 608 -390 520 -390 c 2
 520 -390 260 -390 260 -390 c 2
 172 -390 100 -318 100 -230 c 2
 100 -230 100 -155 100 -155 c 1
 100 -155 260 -155 260 -155 c 1
 260 -155 260 -167 260 -167 c 2
 260 -202 288 -230 323 -230 c 2
 323 -230 458 -230 458 -230 c 2
 493 -230 520 -202 520 -167 c 2
 520 -167 520 -150 520 -150 c 1
 520 -150 374 0 374 0 c 1
 374 0 600 0 600 0 c 1
EndSplineSet
Validated: 1
EndChar

StartChar: uni00B9
Encoding: 119 185 119
Width: 380
Flags: W
LayerCount: 2
Fore
SplineSet
280 850 m 1
 280 850 177 850 177 850 c 1
 177 850 177 1305 177 1305 c 1
 177 1305 150 1278 100 1278 c 1
 100 1278 100 1395 100 1395 c 1
 152 1397 187 1450 187 1450 c 1
 187 1450 280 1450 280 1450 c 1
 280 1450 280 850 280 850 c 1
EndSplineSet
Validated: 1
EndChar

StartChar: guillemotright
Encoding: 120 187 120
Width: 984
Flags: W
LayerCount: 2
Fore
SplineSet
612 1040 m 1
 612 1040 884 700 884 700 c 1
 884 700 612 360 612 360 c 1
 612 360 424 360 424 360 c 1
 424 360 683 700 683 700 c 1
 683 700 424 1040 424 1040 c 1
 424 1040 612 1040 612 1040 c 1
288 360 m 1
 288 360 100 360 100 360 c 1
 100 360 359 700 359 700 c 1
 359 700 100 1040 100 1040 c 1
 100 1040 288 1040 288 1040 c 1
 288 1040 560 700 560 700 c 1
 560 700 288 360 288 360 c 1
EndSplineSet
Validated: 1
EndChar

StartChar: onequarter
Encoding: 121 188 121
Width: 970
Flags: W
LayerCount: 2
Fore
SplineSet
230 1400 m 1
 230 1400 323 1400 323 1400 c 1
 323 1400 323 800 323 800 c 1
 323 800 220 800 220 800 c 1
 220 800 220 1255 220 1255 c 1
 220 1255 193 1228 143 1228 c 1
 143 1228 143 1345 143 1345 c 1
 195 1347 230 1400 230 1400 c 1
685 0 m 1
 685 0 685 120 685 120 c 1
 685 120 485 120 485 120 c 1
 485 120 485 195 485 195 c 1
 485 195 665 600 665 600 c 1
 665 600 785 600 785 600 c 1
 785 600 785 210 785 210 c 1
 785 210 805 210 805 210 c 1
 805 210 805 120 805 120 c 1
 805 120 785 120 785 120 c 1
 785 120 785 0 785 0 c 1
 785 0 685 0 685 0 c 1
685 210 m 1
 685 210 685 438 685 438 c 1
 685 438 587 210 587 210 c 1
 587 210 685 210 685 210 c 1
870 1400 m 1
 870 1400 250 0 250 0 c 1
 250 0 100 0 100 0 c 1
 100 0 720 1400 720 1400 c 1
 720 1400 870 1400 870 1400 c 1
EndSplineSet
Validated: 1
EndChar

StartChar: onehalf
Encoding: 122 189 122
Width: 970
Flags: W
LayerCount: 2
Fore
SplineSet
550 0 m 1
 550 0 550 50 550 50 c 2
 550 192 774 348 774 430 c 0
 774 436 774 457 774 475 c 0
 773 489 761 500 747 500 c 2
 747 500 685 500 685 500 c 2
 670 500 658 488 658 473 c 2
 658 473 658 430 658 430 c 1
 658 430 558 430 558 430 c 1
 558 430 558 530 558 530 c 2
 558 569 589 600 628 600 c 2
 628 600 800 600 800 600 c 2
 839 600 870 569 870 530 c 2
 870 530 870 410 870 410 c 2
 870 318 724 209 682 110 c 1
 682 110 870 110 870 110 c 1
 870 110 870 0 870 0 c 1
 870 0 550 0 550 0 c 1
220 800 m 1
 220 800 220 1255 220 1255 c 1
 220 1255 193 1228 143 1228 c 1
 143 1228 143 1345 143 1345 c 1
 195 1347 230 1400 230 1400 c 1
 230 1400 323 1400 323 1400 c 1
 323 1400 323 800 323 800 c 1
 323 800 220 800 220 800 c 1
720 1400 m 1
 720 1400 870 1400 870 1400 c 1
 870 1400 250 0 250 0 c 1
 250 0 100 0 100 0 c 1
 100 0 720 1400 720 1400 c 1
EndSplineSet
Validated: 1
EndChar

StartChar: threequarters
Encoding: 123 190 123
Width: 970
Flags: W
LayerCount: 2
Fore
SplineSet
420 1170 m 2
 420 1143 404 1118 380 1107 c 1
 380 1107 380 1093 380 1093 c 1
 404 1082 420 1057 420 1030 c 2
 420 1030 420 870 420 870 c 2
 420 831 389 800 350 800 c 2
 350 800 170 800 170 800 c 2
 131 800 100 831 100 870 c 2
 100 870 100 970 100 970 c 1
 100 970 200 970 200 970 c 1
 200 970 200 927 200 927 c 2
 200 912 212 900 227 900 c 2
 227 900 293 900 293 900 c 2
 308 900 320 912 320 927 c 2
 320 927 320 1023 320 1023 c 2
 320 1038 308 1050 293 1050 c 2
 293 1050 220 1050 220 1050 c 1
 220 1050 220 1150 220 1150 c 1
 220 1150 293 1150 293 1150 c 2
 308 1150 320 1162 320 1177 c 2
 320 1177 320 1273 320 1273 c 2
 320 1288 308 1300 293 1300 c 2
 293 1300 227 1300 227 1300 c 2
 212 1300 200 1288 200 1273 c 2
 200 1273 200 1230 200 1230 c 1
 200 1230 100 1230 100 1230 c 1
 100 1230 100 1330 100 1330 c 2
 100 1369 131 1400 170 1400 c 2
 170 1400 350 1400 350 1400 c 2
 389 1400 420 1369 420 1330 c 2
 420 1330 420 1170 420 1170 c 2
785 0 m 1
 785 0 685 0 685 0 c 1
 685 0 685 120 685 120 c 1
 685 120 485 120 485 120 c 1
 485 120 485 195 485 195 c 1
 485 195 665 600 665 600 c 1
 665 600 785 600 785 600 c 1
 785 600 785 210 785 210 c 1
 785 210 805 210 805 210 c 1
 805 210 805 120 805 120 c 1
 805 120 785 120 785 120 c 1
 785 120 785 0 785 0 c 1
685 210 m 1
 685 210 685 438 685 438 c 1
 685 438 587 210 587 210 c 1
 587 210 685 210 685 210 c 1
720 1400 m 1
 720 1400 870 1400 870 1400 c 1
 870 1400 250 0 250 0 c 1
 250 0 100 0 100 0 c 1
 100 0 720 1400 720 1400 c 1
EndSplineSet
Validated: 1
EndChar

StartChar: questiondown
Encoding: 124 191 124
Width: 910
Flags: W
LayerCount: 2
Fore
SplineSet
810 160 m 2
 810 72 738 0 650 0 c 2
 650 0 260 0 260 0 c 2
 172 0 100 72 100 160 c 2
 100 160 100 352 100 352 c 2
 100 620 385 680 385 940 c 2
 385 940 385 1040 385 1040 c 1
 385 1040 610 1040 610 1040 c 1
 610 1040 610 950 610 950 c 2
 610 651 321 544 321 352 c 0
 321 342 321 273 321 273 c 2
 321 238 348 210 383 210 c 2
 383 210 517 210 517 210 c 2
 552 210 580 238 580 273 c 2
 580 273 580 400 580 400 c 1
 580 400 810 400 810 400 c 1
 810 400 810 160 810 160 c 2
380 1400 m 1
 380 1400 610 1400 610 1400 c 1
 610 1400 610 1170 610 1170 c 1
 610 1170 380 1170 380 1170 c 1
 380 1170 380 1400 380 1400 c 1
EndSplineSet
Validated: 1
EndChar

StartChar: Agrave
Encoding: 125 192 125
Width: 940
Flags: W
LayerCount: 2
Fore
SplineSet
230 0 m 1
 230 0 0 0 0 0 c 1
 0 0 350 1400 350 1400 c 1
 350 1400 590 1400 590 1400 c 1
 590 1400 940 0 940 0 c 1
 940 0 710 0 710 0 c 1
 710 0 644 260 644 260 c 1
 644 260 296 260 296 260 c 1
 296 260 230 0 230 0 c 1
349 470 m 1
 349 470 591 470 591 470 c 1
 591 470 470 945 470 945 c 1
 470 945 349 470 349 470 c 1
500 1490 m 1
 500 1490 300 1750 300 1750 c 1
 300 1750 520 1750 520 1750 c 1
 520 1750 660 1490 660 1490 c 1
 660 1490 500 1490 500 1490 c 1
EndSplineSet
Validated: 1
EndChar

StartChar: Aacute
Encoding: 126 193 126
Width: 940
Flags: W
LayerCount: 2
Fore
SplineSet
230 0 m 1
 230 0 0 0 0 0 c 1
 0 0 350 1400 350 1400 c 1
 350 1400 590 1400 590 1400 c 1
 590 1400 940 0 940 0 c 1
 940 0 710 0 710 0 c 1
 710 0 644 260 644 260 c 1
 644 260 296 260 296 260 c 1
 296 260 230 0 230 0 c 1
349 470 m 1
 349 470 591 470 591 470 c 1
 591 470 470 945 470 945 c 1
 470 945 349 470 349 470 c 1
860 1750 m 1
 860 1750 660 1490 660 1490 c 1
 660 1490 500 1490 500 1490 c 1
 500 1490 640 1750 640 1750 c 1
 640 1750 860 1750 860 1750 c 1
EndSplineSet
Validated: 1
EndChar

StartChar: Acircumflex
Encoding: 127 194 127
Width: 940
Flags: W
LayerCount: 2
Fore
SplineSet
230 0 m 1
 230 0 0 0 0 0 c 1
 0 0 350 1400 350 1400 c 1
 350 1400 590 1400 590 1400 c 1
 590 1400 940 0 940 0 c 1
 940 0 710 0 710 0 c 1
 710 0 644 260 644 260 c 1
 644 260 296 260 296 260 c 1
 296 260 230 0 230 0 c 1
349 470 m 1
 349 470 591 470 591 470 c 1
 591 470 470 945 470 945 c 1
 470 945 349 470 349 470 c 1
484 1800 m 1
 484 1800 657 1800 657 1800 c 1
 657 1800 841 1500 841 1500 c 1
 841 1500 686 1500 686 1500 c 1
 686 1500 571 1682 571 1682 c 1
 571 1682 455 1500 455 1500 c 1
 455 1500 300 1500 300 1500 c 1
 300 1500 484 1800 484 1800 c 1
EndSplineSet
Validated: 1
EndChar

StartChar: Atilde
Encoding: 128 195 128
Width: 940
Flags: W
LayerCount: 2
Fore
SplineSet
230 0 m 1
 230 0 0 0 0 0 c 1
 0 0 350 1400 350 1400 c 1
 350 1400 590 1400 590 1400 c 1
 590 1400 940 0 940 0 c 1
 940 0 710 0 710 0 c 1
 710 0 644 260 644 260 c 1
 644 260 296 260 296 260 c 1
 296 260 230 0 230 0 c 1
349 470 m 1
 349 470 591 470 591 470 c 1
 591 470 470 945 470 945 c 1
 470 945 349 470 349 470 c 1
732 1653 m 1
 732 1653 821 1626 821 1626 c 1
 808 1553 740 1496 664 1496 c 0
 598 1496 544 1535 522 1593 c 1
 511 1608 496 1619 476 1619 c 0
 441 1619 408 1589 408 1553 c 1
 408 1553 319 1580 319 1580 c 1
 331 1653 399 1710 476 1710 c 0
 541 1710 596 1671 617 1613 c 1
 629 1598 643 1587 664 1587 c 0
 699 1587 732 1617 732 1653 c 1
EndSplineSet
Validated: 1
EndChar

StartChar: Adieresis
Encoding: 129 196 129
Width: 940
Flags: W
LayerCount: 2
Fore
SplineSet
230 0 m 1
 230 0 0 0 0 0 c 1
 0 0 350 1400 350 1400 c 1
 350 1400 590 1400 590 1400 c 1
 590 1400 940 0 940 0 c 1
 940 0 710 0 710 0 c 1
 710 0 644 260 644 260 c 1
 644 260 296 260 296 260 c 1
 296 260 230 0 230 0 c 1
349 470 m 1
 349 470 591 470 591 470 c 1
 591 470 470 945 470 945 c 1
 470 945 349 470 349 470 c 1
375 1700 m 1
 375 1700 525 1700 525 1700 c 1
 525 1700 525 1550 525 1550 c 1
 525 1550 375 1550 375 1550 c 1
 375 1550 375 1700 375 1700 c 1
615 1700 m 1
 615 1700 765 1700 765 1700 c 1
 765 1700 765 1550 765 1550 c 1
 765 1550 615 1550 615 1550 c 1
 615 1550 615 1700 615 1700 c 1
EndSplineSet
Validated: 1
EndChar

StartChar: Aring
Encoding: 130 197 130
Width: 940
Flags: W
LayerCount: 2
Fore
SplineSet
230 0 m 1
 230 0 0 0 0 0 c 1
 0 0 350 1400 350 1400 c 1
 350 1400 590 1400 590 1400 c 1
 590 1400 940 0 940 0 c 1
 940 0 710 0 710 0 c 1
 710 0 644 260 644 260 c 1
 644 260 296 260 296 260 c 1
 296 260 230 0 230 0 c 1
349 470 m 1
 349 470 591 470 591 470 c 1
 591 470 470 945 470 945 c 1
 470 945 349 470 349 470 c 1
710 1661 m 2
 710 1661 710 1626 710 1626 c 2
 710 1549 649 1490 570 1490 c 0
 491 1490 430 1549 430 1626 c 2
 430 1626 430 1661 430 1661 c 2
 430 1738 491 1800 570 1800 c 0
 649 1800 710 1738 710 1661 c 2
625 1659 m 2
 625 1700 600 1730 570 1730 c 0
 540 1730 515 1700 515 1659 c 2
 515 1659 515 1631 515 1631 c 2
 515 1589 540 1560 570 1560 c 0
 600 1560 625 1589 625 1631 c 2
 625 1631 625 1659 625 1659 c 2
EndSplineSet
Validated: 1
EndChar

StartChar: AE
Encoding: 131 198 131
Width: 1461
Flags: W
LayerCount: 2
Fore
SplineSet
899 240 m 1
 899 240 1361 240 1361 240 c 1
 1361 240 1361 0 1361 0 c 1
 1361 0 649 0 649 0 c 1
 649 0 649 318 649 318 c 1
 649 318 412 318 412 318 c 1
 412 318 330 0 330 0 c 1
 330 0 100 0 100 0 c 1
 100 0 450 1400 450 1400 c 1
 450 1400 1360 1400 1360 1400 c 1
 1360 1400 1360 1170 1360 1170 c 1
 1360 1170 899 1170 899 1170 c 1
 899 1170 899 800 899 800 c 1
 899 800 1279 800 1279 800 c 1
 1279 800 1279 580 1279 580 c 1
 1279 580 899 580 899 580 c 1
 899 580 899 240 899 240 c 1
649 548 m 1
 649 548 649 1170 649 1170 c 1
 649 1170 631 1170 631 1170 c 1
 631 1170 471 548 471 548 c 1
 471 548 649 548 649 548 c 1
EndSplineSet
Validated: 1
EndChar

StartChar: Ccedilla
Encoding: 132 199 132
Width: 910
Flags: W
LayerCount: 2
Fore
SplineSet
100 145 m 2
 100 145 100 1255 100 1255 c 2
 100 1335 165 1400 245 1400 c 2
 245 1400 665 1400 665 1400 c 2
 745 1400 810 1335 810 1255 c 2
 810 1255 810 955 810 955 c 1
 810 955 560 955 560 955 c 1
 560 955 560 1143 560 1143 c 1
 560 1143 360 1143 360 1143 c 1
 360 1143 360 260 360 260 c 1
 360 260 560 260 560 260 c 1
 560 260 560 445 560 445 c 1
 560 445 810 445 810 445 c 1
 810 445 810 145 810 145 c 2
 810 66 746 0 667 0 c 2
 667 0 665 0 665 0 c 1
 665 0 745 -80 745 -80 c 1
 745 -80 745 -230 745 -230 c 2
 745 -318 673 -390 585 -390 c 2
 585 -390 325 -390 325 -390 c 2
 237 -390 165 -318 165 -230 c 2
 165 -230 165 -155 165 -155 c 1
 165 -155 325 -155 325 -155 c 1
 325 -155 325 -167 325 -167 c 2
 325 -202 353 -230 388 -230 c 2
 388 -230 523 -230 523 -230 c 2
 558 -230 585 -202 585 -167 c 2
 585 -167 584 -149 584 -149 c 1
 584 -149 439 0 439 0 c 1
 439 0 245 0 245 0 c 2
 165 0 100 65 100 145 c 2
EndSplineSet
Validated: 1
EndChar

StartChar: Egrave
Encoding: 133 200 133
Width: 912
Flags: W
LayerCount: 2
Fore
SplineSet
100 0 m 1
 100 0 100 1400 100 1400 c 1
 100 1400 810 1400 810 1400 c 1
 810 1400 810 1170 810 1170 c 1
 810 1170 350 1170 350 1170 c 1
 350 1170 350 820 350 820 c 1
 350 820 730 820 730 820 c 1
 730 820 730 580 730 580 c 1
 730 580 350 580 350 580 c 1
 350 580 350 240 350 240 c 1
 350 240 812 240 812 240 c 1
 812 240 812 0 812 0 c 1
 812 0 100 0 100 0 c 1
430 1490 m 1
 430 1490 230 1750 230 1750 c 1
 230 1750 450 1750 450 1750 c 1
 450 1750 590 1490 590 1490 c 1
 590 1490 430 1490 430 1490 c 1
EndSplineSet
Validated: 1
EndChar

StartChar: Eacute
Encoding: 134 201 134
Width: 912
Flags: W
LayerCount: 2
Fore
SplineSet
100 0 m 1
 100 0 100 1400 100 1400 c 1
 100 1400 810 1400 810 1400 c 1
 810 1400 810 1170 810 1170 c 1
 810 1170 350 1170 350 1170 c 1
 350 1170 350 820 350 820 c 1
 350 820 730 820 730 820 c 1
 730 820 730 580 730 580 c 1
 730 580 350 580 350 580 c 1
 350 580 350 240 350 240 c 1
 350 240 812 240 812 240 c 1
 812 240 812 0 812 0 c 1
 812 0 100 0 100 0 c 1
660 1750 m 1
 660 1750 460 1490 460 1490 c 1
 460 1490 300 1490 300 1490 c 1
 300 1490 440 1750 440 1750 c 1
 440 1750 660 1750 660 1750 c 1
EndSplineSet
Validated: 1
EndChar

StartChar: Ecircumflex
Encoding: 135 202 135
Width: 912
Flags: W
LayerCount: 2
Fore
SplineSet
100 0 m 1
 100 0 100 1400 100 1400 c 1
 100 1400 810 1400 810 1400 c 1
 810 1400 810 1170 810 1170 c 1
 810 1170 350 1170 350 1170 c 1
 350 1170 350 820 350 820 c 1
 350 820 730 820 730 820 c 1
 730 820 730 580 730 580 c 1
 730 580 350 580 350 580 c 1
 350 580 350 240 350 240 c 1
 350 240 812 240 812 240 c 1
 812 240 812 0 812 0 c 1
 812 0 100 0 100 0 c 1
369 1800 m 1
 369 1800 542 1800 542 1800 c 1
 542 1800 726 1500 726 1500 c 1
 726 1500 571 1500 571 1500 c 1
 571 1500 456 1682 456 1682 c 1
 456 1682 340 1500 340 1500 c 1
 340 1500 185 1500 185 1500 c 1
 185 1500 369 1800 369 1800 c 1
EndSplineSet
Validated: 1
EndChar

StartChar: Edieresis
Encoding: 136 203 136
Width: 912
Flags: W
LayerCount: 2
Fore
SplineSet
100 0 m 1
 100 0 100 1400 100 1400 c 1
 100 1400 810 1400 810 1400 c 1
 810 1400 810 1170 810 1170 c 1
 810 1170 350 1170 350 1170 c 1
 350 1170 350 820 350 820 c 1
 350 820 730 820 730 820 c 1
 730 820 730 580 730 580 c 1
 730 580 350 580 350 580 c 1
 350 580 350 240 350 240 c 1
 350 240 812 240 812 240 c 1
 812 240 812 0 812 0 c 1
 812 0 100 0 100 0 c 1
261 1700 m 1
 261 1700 411 1700 411 1700 c 1
 411 1700 411 1550 411 1550 c 1
 411 1550 261 1550 261 1550 c 1
 261 1550 261 1700 261 1700 c 1
501 1700 m 1
 501 1700 651 1700 651 1700 c 1
 651 1700 651 1550 651 1550 c 1
 651 1550 501 1550 501 1550 c 1
 501 1550 501 1700 501 1700 c 1
EndSplineSet
Validated: 1
EndChar

StartChar: Igrave
Encoding: 137 204 137
Width: 450
Flags: W
LayerCount: 2
Fore
SplineSet
100 1400 m 1
 100 1400 350 1400 350 1400 c 1
 350 1400 350 0 350 0 c 1
 350 0 100 0 100 0 c 1
 100 0 100 1400 100 1400 c 1
190 1490 m 1
 190 1490 -10 1750 -10 1750 c 1
 -10 1750 210 1750 210 1750 c 1
 210 1750 350 1490 350 1490 c 1
 350 1490 190 1490 190 1490 c 1
EndSplineSet
Validated: 1
EndChar

StartChar: Iacute
Encoding: 138 205 138
Width: 560
Flags: W
LayerCount: 2
Fore
SplineSet
100 1400 m 1
 100 1400 350 1400 350 1400 c 1
 350 1400 350 0 350 0 c 1
 350 0 100 0 100 0 c 1
 100 0 100 1400 100 1400 c 1
460 1750 m 1
 460 1750 260 1490 260 1490 c 1
 260 1490 100 1490 100 1490 c 1
 100 1490 240 1750 240 1750 c 1
 240 1750 460 1750 460 1750 c 1
EndSplineSet
Validated: 1
EndChar

StartChar: Icircumflex
Encoding: 139 206 139
Width: 596
Flags: W
LayerCount: 2
Fore
SplineSet
100 1400 m 1
 100 1400 350 1400 350 1400 c 1
 350 1400 350 0 350 0 c 1
 350 0 100 0 100 0 c 1
 100 0 100 1400 100 1400 c 1
139 1800 m 1
 139 1800 312 1800 312 1800 c 1
 312 1800 496 1500 496 1500 c 1
 496 1500 341 1500 341 1500 c 1
 341 1500 226 1682 226 1682 c 1
 226 1682 110 1500 110 1500 c 1
 110 1500 -45 1500 -45 1500 c 1
 -45 1500 139 1800 139 1800 c 1
EndSplineSet
Validated: 1
EndChar

StartChar: Idieresis
Encoding: 140 207 140
Width: 590
Flags: W
LayerCount: 2
Fore
SplineSet
100 1400 m 1
 100 1400 350 1400 350 1400 c 1
 350 1400 350 0 350 0 c 1
 350 0 100 0 100 0 c 1
 100 0 100 1400 100 1400 c 1
30 1700 m 1
 30 1700 180 1700 180 1700 c 1
 180 1700 180 1550 180 1550 c 1
 180 1550 30 1550 30 1550 c 1
 30 1550 30 1700 30 1700 c 1
270 1700 m 1
 270 1700 420 1700 420 1700 c 1
 420 1700 420 1550 420 1550 c 1
 420 1550 270 1550 270 1550 c 1
 270 1550 270 1700 270 1700 c 1
EndSplineSet
Validated: 1
EndChar

StartChar: Eth
Encoding: 141 208 141
Width: 890
Flags: W
LayerCount: 2
Fore
SplineSet
100 0 m 1
 100 0 100 450 100 450 c 1
 100 450 40 450 40 450 c 1
 40 450 40 560 40 560 c 1
 40 560 100 560 100 560 c 1
 100 560 100 1400 100 1400 c 1
 100 1400 630 1400 630 1400 c 2
 718 1400 790 1328 790 1240 c 2
 790 1240 790 160 790 160 c 2
 790 72 718 0 630 0 c 2
 630 0 100 0 100 0 c 1
350 450 m 1
 350 450 350 230 350 230 c 1
 350 230 529 230 529 230 c 2
 541 230 550 239 550 251 c 2
 550 251 550 1149 550 1149 c 2
 550 1161 541 1170 529 1170 c 2
 529 1170 350 1170 350 1170 c 1
 350 1170 350 560 350 560 c 1
 350 560 480 560 480 560 c 1
 480 560 480 450 480 450 c 1
 480 450 350 450 350 450 c 1
EndSplineSet
Validated: 1
EndChar

StartChar: Ntilde
Encoding: 142 209 142
Width: 975
Flags: HW
LayerCount: 2
Fore
SplineSet
640 610 m 1
 640 610 640 1400 640 1400 c 1
 640 1400 880 1400 880 1400 c 1
 880 1400 880 0 880 0 c 1
 880 0 670 0 670 0 c 1
 670 0 330 754 330 754 c 1
 330 754 330 0 330 0 c 1
 330 0 100 0 100 0 c 1
 100 0 100 1400 100 1400 c 1
 100 1400 310 1400 310 1400 c 1
 310 1400 640 610 640 610 c 1
920 1696 m 1
 880 1576 768 1491 635 1491 c 0
 634 1491 633 1491 632 1491 c 0
 554 1491 478 1526 423 1578 c 0
 396 1602 364 1614 333 1614 c 0
 282 1614 234 1584 216 1530 c 1
 216 1530 50 1585 50 1585 c 1
 90 1704 202 1790 335 1790 c 0
 414 1790 491 1758 547 1702 c 0
 570 1679 602 1666 635 1666 c 0
 689 1666 737 1700 754 1751 c 1
 754 1751 920 1696 920 1696 c 1
EndSplineSet
Validated: 1
EndChar

StartChar: Ograve
Encoding: 143 210 143
Width: 940
Flags: W
LayerCount: 2
Fore
SplineSet
840 1255 m 2
 840 1255 840 145 840 145 c 2
 840 65 775 0 695 0 c 2
 695 0 245 0 245 0 c 2
 165 0 100 65 100 145 c 2
 100 145 100 1255 100 1255 c 2
 100 1335 165 1400 245 1400 c 2
 245 1400 695 1400 695 1400 c 2
 775 1400 840 1335 840 1255 c 2
350 250 m 1
 350 250 590 250 590 250 c 1
 590 250 590 1150 590 1150 c 1
 590 1150 350 1150 350 1150 c 1
 350 1150 350 250 350 250 c 1
440 1490 m 1
 440 1490 240 1750 240 1750 c 1
 240 1750 460 1750 460 1750 c 1
 460 1750 600 1490 600 1490 c 1
 600 1490 440 1490 440 1490 c 1
EndSplineSet
Validated: 1
EndChar

StartChar: Oacute
Encoding: 144 211 144
Width: 940
Flags: W
LayerCount: 2
Fore
SplineSet
840 1255 m 2
 840 1255 840 145 840 145 c 2
 840 65 775 0 695 0 c 2
 695 0 245 0 245 0 c 2
 165 0 100 65 100 145 c 2
 100 145 100 1255 100 1255 c 2
 100 1335 165 1400 245 1400 c 2
 245 1400 695 1400 695 1400 c 2
 775 1400 840 1335 840 1255 c 2
350 250 m 1
 350 250 590 250 590 250 c 1
 590 250 590 1150 590 1150 c 1
 590 1150 350 1150 350 1150 c 1
 350 1150 350 250 350 250 c 1
680 1750 m 1
 680 1750 480 1490 480 1490 c 1
 480 1490 320 1490 320 1490 c 1
 320 1490 460 1750 460 1750 c 1
 460 1750 680 1750 680 1750 c 1
EndSplineSet
Validated: 1
EndChar

StartChar: Ocircumflex
Encoding: 145 212 145
Width: 940
Flags: W
LayerCount: 2
Fore
SplineSet
840 1255 m 2
 840 1255 840 145 840 145 c 2
 840 65 775 0 695 0 c 2
 695 0 245 0 245 0 c 2
 165 0 100 65 100 145 c 2
 100 145 100 1255 100 1255 c 2
 100 1335 165 1400 245 1400 c 2
 245 1400 695 1400 695 1400 c 2
 775 1400 840 1335 840 1255 c 2
350 250 m 1
 350 250 590 250 590 250 c 1
 590 250 590 1150 590 1150 c 1
 590 1150 350 1150 350 1150 c 1
 350 1150 350 250 350 250 c 1
384 1800 m 1
 384 1800 557 1800 557 1800 c 1
 557 1800 741 1500 741 1500 c 1
 741 1500 586 1500 586 1500 c 1
 586 1500 471 1682 471 1682 c 1
 471 1682 355 1500 355 1500 c 1
 355 1500 200 1500 200 1500 c 1
 200 1500 384 1800 384 1800 c 1
EndSplineSet
Validated: 1
EndChar

StartChar: Otilde
Encoding: 146 213 146
Width: 940
Flags: W
LayerCount: 2
Fore
SplineSet
840 1255 m 2
 840 1255 840 145 840 145 c 2
 840 65 775 0 695 0 c 2
 695 0 245 0 245 0 c 2
 165 0 100 65 100 145 c 2
 100 145 100 1255 100 1255 c 2
 100 1335 165 1400 245 1400 c 2
 245 1400 695 1400 695 1400 c 2
 775 1400 840 1335 840 1255 c 2
350 250 m 1
 350 250 590 250 590 250 c 1
 590 250 590 1150 590 1150 c 1
 590 1150 350 1150 350 1150 c 1
 350 1150 350 250 350 250 c 1
633 1653 m 1
 633 1653 722 1626 722 1626 c 1
 709 1553 641 1496 565 1496 c 0
 499 1496 445 1535 423 1593 c 1
 412 1608 397 1619 377 1619 c 0
 342 1619 309 1589 309 1553 c 1
 309 1553 220 1580 220 1580 c 1
 232 1653 300 1710 377 1710 c 0
 442 1710 497 1671 518 1613 c 1
 530 1598 544 1587 565 1587 c 0
 600 1587 633 1617 633 1653 c 1
EndSplineSet
Validated: 1
EndChar

StartChar: Odieresis
Encoding: 147 214 147
Width: 940
Flags: W
LayerCount: 2
Fore
SplineSet
840 1255 m 2
 840 1255 840 145 840 145 c 2
 840 65 775 0 695 0 c 2
 695 0 245 0 245 0 c 2
 165 0 100 65 100 145 c 2
 100 145 100 1255 100 1255 c 2
 100 1335 165 1400 245 1400 c 2
 245 1400 695 1400 695 1400 c 2
 775 1400 840 1335 840 1255 c 2
350 250 m 1
 350 250 590 250 590 250 c 1
 590 250 590 1150 590 1150 c 1
 590 1150 350 1150 350 1150 c 1
 350 1150 350 250 350 250 c 1
275 1700 m 1
 275 1700 425 1700 425 1700 c 1
 425 1700 425 1550 425 1550 c 1
 425 1550 275 1550 275 1550 c 1
 275 1550 275 1700 275 1700 c 1
515 1700 m 1
 515 1700 665 1700 665 1700 c 1
 665 1700 665 1550 665 1550 c 1
 665 1550 515 1550 515 1550 c 1
 515 1550 515 1700 515 1700 c 1
EndSplineSet
Validated: 1
EndChar

StartChar: multiply
Encoding: 148 215 148
Width: 921
Flags: W
LayerCount: 2
Fore
SplineSet
666 1061 m 1
 666 1061 821 905 821 905 c 1
 821 905 616 700 616 700 c 1
 616 700 821 495 821 495 c 1
 821 495 666 340 666 340 c 1
 666 340 461 545 461 545 c 1
 461 545 256 340 256 340 c 1
 256 340 100 495 100 495 c 1
 100 495 305 700 305 700 c 1
 305 700 100 905 100 905 c 1
 100 905 256 1061 256 1061 c 1
 256 1061 461 856 461 856 c 1
 461 856 666 1061 666 1061 c 1
EndSplineSet
Validated: 1
EndChar

StartChar: Oslash
Encoding: 149 216 149
Width: 940
Flags: W
LayerCount: 2
Fore
SplineSet
840 1255 m 2
 840 1255 840 145 840 145 c 2
 840 65 775 0 695 0 c 2
 695 0 245 0 245 0 c 2
 165 0 100 65 100 145 c 2
 100 145 100 1255 100 1255 c 2
 100 1335 165 1400 245 1400 c 2
 245 1400 695 1400 695 1400 c 2
 775 1400 840 1335 840 1255 c 2
350 732 m 1
 350 732 590 928 590 928 c 1
 590 928 590 1150 590 1150 c 1
 590 1150 350 1150 350 1150 c 1
 350 1150 350 732 350 732 c 1
350 250 m 1
 350 250 590 250 590 250 c 1
 590 250 590 658 590 658 c 1
 590 658 350 462 350 462 c 1
 350 462 350 250 350 250 c 1
EndSplineSet
Validated: 1
EndChar

StartChar: Ugrave
Encoding: 150 217 150
Width: 970
Flags: W
LayerCount: 2
Fore
SplineSet
350 1400 m 1
 350 1400 350 250 350 250 c 1
 350 250 620 250 620 250 c 1
 620 250 620 1400 620 1400 c 1
 620 1400 870 1400 870 1400 c 1
 870 1400 870 145 870 145 c 2
 870 65 805 0 725 0 c 2
 725 0 245 0 245 0 c 2
 165 0 100 65 100 145 c 2
 100 145 100 1400 100 1400 c 1
 100 1400 350 1400 350 1400 c 1
500 1490 m 1
 500 1490 300 1750 300 1750 c 1
 300 1750 520 1750 520 1750 c 1
 520 1750 660 1490 660 1490 c 1
 660 1490 500 1490 500 1490 c 1
EndSplineSet
Validated: 1
EndChar

StartChar: Uacute
Encoding: 151 218 151
Width: 970
Flags: W
LayerCount: 2
Fore
SplineSet
350 1400 m 1
 350 1400 350 250 350 250 c 1
 350 250 620 250 620 250 c 1
 620 250 620 1400 620 1400 c 1
 620 1400 870 1400 870 1400 c 1
 870 1400 870 145 870 145 c 2
 870 65 805 0 725 0 c 2
 725 0 245 0 245 0 c 2
 165 0 100 65 100 145 c 2
 100 145 100 1400 100 1400 c 1
 100 1400 350 1400 350 1400 c 1
725 1750 m 1
 725 1750 525 1490 525 1490 c 1
 525 1490 365 1490 365 1490 c 1
 365 1490 505 1750 505 1750 c 1
 505 1750 725 1750 725 1750 c 1
EndSplineSet
Validated: 1
EndChar

StartChar: Ucircumflex
Encoding: 152 219 152
Width: 970
Flags: W
LayerCount: 2
Fore
SplineSet
350 1400 m 1
 350 1400 350 250 350 250 c 1
 350 250 620 250 620 250 c 1
 620 250 620 1400 620 1400 c 1
 620 1400 870 1400 870 1400 c 1
 870 1400 870 145 870 145 c 2
 870 65 805 0 725 0 c 2
 725 0 245 0 245 0 c 2
 165 0 100 65 100 145 c 2
 100 145 100 1400 100 1400 c 1
 100 1400 350 1400 350 1400 c 1
399 1800 m 1
 399 1800 572 1800 572 1800 c 1
 572 1800 756 1500 756 1500 c 1
 756 1500 601 1500 601 1500 c 1
 601 1500 486 1682 486 1682 c 1
 486 1682 370 1500 370 1500 c 1
 370 1500 215 1500 215 1500 c 1
 215 1500 399 1800 399 1800 c 1
EndSplineSet
Validated: 1
EndChar

StartChar: Udieresis
Encoding: 153 220 153
Width: 970
Flags: W
LayerCount: 2
Fore
SplineSet
350 1400 m 1
 350 1400 350 250 350 250 c 1
 350 250 620 250 620 250 c 1
 620 250 620 1400 620 1400 c 1
 620 1400 870 1400 870 1400 c 1
 870 1400 870 145 870 145 c 2
 870 65 805 0 725 0 c 2
 725 0 245 0 245 0 c 2
 165 0 100 65 100 145 c 2
 100 145 100 1400 100 1400 c 1
 100 1400 350 1400 350 1400 c 1
290 1700 m 1
 290 1700 440 1700 440 1700 c 1
 440 1700 440 1550 440 1550 c 1
 440 1550 290 1550 290 1550 c 1
 290 1550 290 1700 290 1700 c 1
530 1700 m 1
 530 1700 680 1700 680 1700 c 1
 680 1700 680 1550 680 1550 c 1
 680 1550 530 1550 530 1550 c 1
 530 1550 530 1700 530 1700 c 1
EndSplineSet
Validated: 1
EndChar

StartChar: Yacute
Encoding: 154 221 154
Width: 920
Flags: W
LayerCount: 2
Fore
SplineSet
860 1400 m 1
 860 1400 585 506 585 506 c 1
 585 506 585 0 585 0 c 1
 585 0 335 0 335 0 c 1
 335 0 335 506 335 506 c 1
 335 506 60 1400 60 1400 c 1
 60 1400 310 1400 310 1400 c 1
 310 1400 460 810 460 810 c 1
 460 810 600 1400 600 1400 c 1
 600 1400 860 1400 860 1400 c 1
730 1750 m 1
 730 1750 530 1490 530 1490 c 1
 530 1490 370 1490 370 1490 c 1
 370 1490 510 1750 510 1750 c 1
 510 1750 730 1750 730 1750 c 1
EndSplineSet
Validated: 1
EndChar

StartChar: Thorn
Encoding: 155 222 155
Width: 940
Flags: W
LayerCount: 2
Fore
SplineSet
840 1060 m 2
 840 1060 840 445 840 445 c 2
 840 365 775 300 695 300 c 2
 695 300 350 300 350 300 c 1
 350 300 350 0 350 0 c 1
 350 0 100 0 100 0 c 1
 100 0 100 1400 100 1400 c 1
 100 1400 350 1400 350 1400 c 1
 350 1400 350 1200 350 1200 c 1
 350 1200 700 1200 700 1200 c 2
 777 1200 840 1137 840 1060 c 2
350 550 m 1
 350 550 590 550 590 550 c 1
 590 550 590 960 590 960 c 1
 590 960 350 960 350 960 c 1
 350 960 350 550 350 550 c 1
EndSplineSet
Validated: 1
EndChar

StartChar: germandbls
Encoding: 156 223 156
Width: 930
Flags: W
LayerCount: 2
Fore
SplineSet
830 1240 m 2
 830 1240 830 860 830 860 c 2
 830 791 786 733 726 710 c 1
 788 687 830 627 830 560 c 2
 830 560 830 144 830 144 c 2
 830 64 766 0 686 0 c 2
 686 0 530 0 525 0 c 0
 520 0 517 2 517 8 c 0
 517 14 522 16 525 18 c 0
 571 43 600 91 600 144 c 2
 600 144 600 537 600 537 c 2
 600 572 573 600 538 600 c 2
 538 600 430 600 430 600 c 1
 430 600 430 820 430 820 c 1
 430 820 538 820 538 820 c 2
 573 820 600 848 600 883 c 2
 600 883 600 1107 600 1107 c 2
 600 1142 573 1170 538 1170 c 2
 538 1170 383 1170 383 1170 c 2
 348 1170 320 1142 320 1107 c 2
 320 1107 320 0 320 0 c 1
 320 0 100 0 100 0 c 1
 100 0 100 1240 100 1240 c 2
 100 1328 172 1400 260 1400 c 2
 260 1400 670 1400 670 1400 c 2
 758 1400 830 1328 830 1240 c 2
EndSplineSet
Validated: 1
EndChar

StartChar: agrave
Encoding: 157 224 157
Width: 940
Flags: W
LayerCount: 2
Fore
SplineSet
230 0 m 1
 230 0 0 0 0 0 c 1
 0 0 350 1400 350 1400 c 1
 350 1400 590 1400 590 1400 c 1
 590 1400 940 0 940 0 c 1
 940 0 710 0 710 0 c 1
 710 0 644 260 644 260 c 1
 644 260 296 260 296 260 c 1
 296 260 230 0 230 0 c 1
349 470 m 1
 349 470 591 470 591 470 c 1
 591 470 470 945 470 945 c 1
 470 945 349 470 349 470 c 1
400 1490 m 1
 400 1490 200 1750 200 1750 c 1
 200 1750 420 1750 420 1750 c 1
 420 1750 560 1490 560 1490 c 1
 560 1490 400 1490 400 1490 c 1
EndSplineSet
Validated: 1
EndChar

StartChar: aacute
Encoding: 158 225 158
Width: 940
Flags: W
LayerCount: 2
Fore
SplineSet
230 0 m 1
 230 0 0 0 0 0 c 1
 0 0 350 1400 350 1400 c 1
 350 1400 590 1400 590 1400 c 1
 590 1400 940 0 940 0 c 1
 940 0 710 0 710 0 c 1
 710 0 644 260 644 260 c 1
 644 260 296 260 296 260 c 1
 296 260 230 0 230 0 c 1
349 470 m 1
 349 470 591 470 591 470 c 1
 591 470 470 945 470 945 c 1
 470 945 349 470 349 470 c 1
760 1750 m 1
 760 1750 560 1490 560 1490 c 1
 560 1490 400 1490 400 1490 c 1
 400 1490 540 1750 540 1750 c 1
 540 1750 760 1750 760 1750 c 1
EndSplineSet
Validated: 1
EndChar

StartChar: acircumflex
Encoding: 159 226 159
Width: 940
Flags: W
LayerCount: 2
Fore
SplineSet
230 0 m 1
 230 0 0 0 0 0 c 1
 0 0 350 1400 350 1400 c 1
 350 1400 590 1400 590 1400 c 1
 590 1400 940 0 940 0 c 1
 940 0 710 0 710 0 c 1
 710 0 644 260 644 260 c 1
 644 260 296 260 296 260 c 1
 296 260 230 0 230 0 c 1
349 470 m 1
 349 470 591 470 591 470 c 1
 591 470 470 945 470 945 c 1
 470 945 349 470 349 470 c 1
384 1800 m 1
 384 1800 557 1800 557 1800 c 1
 557 1800 741 1500 741 1500 c 1
 741 1500 586 1500 586 1500 c 1
 586 1500 471 1682 471 1682 c 1
 471 1682 355 1500 355 1500 c 1
 355 1500 200 1500 200 1500 c 1
 200 1500 384 1800 384 1800 c 1
EndSplineSet
Validated: 1
EndChar

StartChar: atilde
Encoding: 160 227 160
Width: 940
Flags: W
LayerCount: 2
Fore
SplineSet
230 0 m 1
 230 0 0 0 0 0 c 1
 0 0 350 1400 350 1400 c 1
 350 1400 590 1400 590 1400 c 1
 590 1400 940 0 940 0 c 1
 940 0 710 0 710 0 c 1
 710 0 644 260 644 260 c 1
 644 260 296 260 296 260 c 1
 296 260 230 0 230 0 c 1
349 470 m 1
 349 470 591 470 591 470 c 1
 591 470 470 945 470 945 c 1
 470 945 349 470 349 470 c 1
632 1653 m 1
 632 1653 721 1626 721 1626 c 1
 708 1553 640 1496 564 1496 c 0
 498 1496 444 1535 422 1593 c 1
 411 1608 396 1619 376 1619 c 0
 341 1619 308 1589 308 1553 c 1
 308 1553 219 1580 219 1580 c 1
 231 1653 299 1710 376 1710 c 0
 441 1710 496 1671 517 1613 c 1
 529 1598 543 1587 564 1587 c 0
 599 1587 632 1617 632 1653 c 1
EndSplineSet
Validated: 1
EndChar

StartChar: adieresis
Encoding: 161 228 161
Width: 940
Flags: W
LayerCount: 2
Fore
SplineSet
230 0 m 1
 230 0 0 0 0 0 c 1
 0 0 350 1400 350 1400 c 1
 350 1400 590 1400 590 1400 c 1
 590 1400 940 0 940 0 c 1
 940 0 710 0 710 0 c 1
 710 0 644 260 644 260 c 1
 644 260 296 260 296 260 c 1
 296 260 230 0 230 0 c 1
349 470 m 1
 349 470 591 470 591 470 c 1
 591 470 470 945 470 945 c 1
 470 945 349 470 349 470 c 1
275 1700 m 1
 275 1700 425 1700 425 1700 c 1
 425 1700 425 1550 425 1550 c 1
 425 1550 275 1550 275 1550 c 1
 275 1550 275 1700 275 1700 c 1
515 1700 m 1
 515 1700 665 1700 665 1700 c 1
 665 1700 665 1550 665 1550 c 1
 665 1550 515 1550 515 1550 c 1
 515 1550 515 1700 515 1700 c 1
EndSplineSet
Validated: 1
EndChar

StartChar: aring
Encoding: 162 229 162
Width: 940
Flags: W
LayerCount: 2
Fore
SplineSet
230 0 m 1
 230 0 0 0 0 0 c 1
 0 0 350 1400 350 1400 c 1
 350 1400 590 1400 590 1400 c 1
 590 1400 940 0 940 0 c 1
 940 0 710 0 710 0 c 1
 710 0 644 260 644 260 c 1
 644 260 296 260 296 260 c 1
 296 260 230 0 230 0 c 1
349 470 m 1
 349 470 591 470 591 470 c 1
 591 470 470 945 470 945 c 1
 470 945 349 470 349 470 c 1
610 1661 m 2
 610 1661 610 1626 610 1626 c 2
 610 1549 549 1490 470 1490 c 0
 391 1490 330 1549 330 1626 c 2
 330 1626 330 1661 330 1661 c 2
 330 1738 391 1800 470 1800 c 0
 549 1800 610 1738 610 1661 c 2
525 1659 m 2
 525 1700 500 1730 470 1730 c 0
 440 1730 415 1700 415 1659 c 2
 415 1659 415 1631 415 1631 c 2
 415 1589 440 1560 470 1560 c 0
 500 1560 525 1589 525 1631 c 2
 525 1631 525 1659 525 1659 c 2
EndSplineSet
Validated: 1
EndChar

StartChar: ae
Encoding: 163 230 163
Width: 1461
Flags: W
LayerCount: 2
Fore
SplineSet
899 240 m 1
 899 240 1361 240 1361 240 c 1
 1361 240 1361 0 1361 0 c 1
 1361 0 649 0 649 0 c 1
 649 0 649 318 649 318 c 1
 649 318 412 318 412 318 c 1
 412 318 330 0 330 0 c 1
 330 0 100 0 100 0 c 1
 100 0 450 1400 450 1400 c 1
 450 1400 1360 1400 1360 1400 c 1
 1360 1400 1360 1170 1360 1170 c 1
 1360 1170 899 1170 899 1170 c 1
 899 1170 899 800 899 800 c 1
 899 800 1279 800 1279 800 c 1
 1279 800 1279 580 1279 580 c 1
 1279 580 899 580 899 580 c 1
 899 580 899 240 899 240 c 1
649 548 m 1
 649 548 649 1170 649 1170 c 1
 649 1170 631 1170 631 1170 c 1
 631 1170 471 548 471 548 c 1
 471 548 649 548 649 548 c 1
EndSplineSet
Validated: 1
EndChar

StartChar: ccedilla
Encoding: 164 231 164
Width: 910
Flags: W
LayerCount: 2
Fore
SplineSet
100 145 m 2
 100 145 100 1255 100 1255 c 2
 100 1335 165 1400 245 1400 c 2
 245 1400 665 1400 665 1400 c 2
 745 1400 810 1335 810 1255 c 2
 810 1255 810 955 810 955 c 1
 810 955 560 955 560 955 c 1
 560 955 560 1143 560 1143 c 1
 560 1143 360 1143 360 1143 c 1
 360 1143 360 260 360 260 c 1
 360 260 560 260 560 260 c 1
 560 260 560 445 560 445 c 1
 560 445 810 445 810 445 c 1
 810 445 810 145 810 145 c 2
 810 66 746 0 667 0 c 2
 667 0 665 0 665 0 c 1
 665 0 745 -80 745 -80 c 1
 745 -80 745 -230 745 -230 c 2
 745 -318 673 -390 585 -390 c 2
 585 -390 325 -390 325 -390 c 2
 237 -390 165 -318 165 -230 c 2
 165 -230 165 -155 165 -155 c 1
 165 -155 325 -155 325 -155 c 1
 325 -155 325 -167 325 -167 c 2
 325 -202 353 -230 388 -230 c 2
 388 -230 523 -230 523 -230 c 2
 558 -230 585 -202 585 -167 c 2
 585 -167 584 -149 584 -149 c 1
 584 -149 439 0 439 0 c 1
 439 0 245 0 245 0 c 2
 165 0 100 65 100 145 c 2
EndSplineSet
Validated: 1
EndChar

StartChar: egrave
Encoding: 165 232 165
Width: 912
Flags: W
LayerCount: 2
Fore
SplineSet
100 0 m 1
 100 0 100 1400 100 1400 c 1
 100 1400 810 1400 810 1400 c 1
 810 1400 810 1170 810 1170 c 1
 810 1170 350 1170 350 1170 c 1
 350 1170 350 820 350 820 c 1
 350 820 730 820 730 820 c 1
 730 820 730 580 730 580 c 1
 730 580 350 580 350 580 c 1
 350 580 350 240 350 240 c 1
 350 240 812 240 812 240 c 1
 812 240 812 0 812 0 c 1
 812 0 100 0 100 0 c 1
430 1490 m 1
 430 1490 230 1750 230 1750 c 1
 230 1750 450 1750 450 1750 c 1
 450 1750 590 1490 590 1490 c 1
 590 1490 430 1490 430 1490 c 1
EndSplineSet
Validated: 1
EndChar

StartChar: eacute
Encoding: 166 233 166
Width: 912
Flags: W
LayerCount: 2
Fore
SplineSet
100 0 m 1
 100 0 100 1400 100 1400 c 1
 100 1400 810 1400 810 1400 c 1
 810 1400 810 1170 810 1170 c 1
 810 1170 350 1170 350 1170 c 1
 350 1170 350 820 350 820 c 1
 350 820 730 820 730 820 c 1
 730 820 730 580 730 580 c 1
 730 580 350 580 350 580 c 1
 350 580 350 240 350 240 c 1
 350 240 812 240 812 240 c 1
 812 240 812 0 812 0 c 1
 812 0 100 0 100 0 c 1
660 1750 m 1
 660 1750 460 1490 460 1490 c 1
 460 1490 300 1490 300 1490 c 1
 300 1490 440 1750 440 1750 c 1
 440 1750 660 1750 660 1750 c 1
EndSplineSet
Validated: 1
EndChar

StartChar: ecircumflex
Encoding: 167 234 167
Width: 912
Flags: W
LayerCount: 2
Fore
SplineSet
100 0 m 1
 100 0 100 1400 100 1400 c 1
 100 1400 810 1400 810 1400 c 1
 810 1400 810 1170 810 1170 c 1
 810 1170 350 1170 350 1170 c 1
 350 1170 350 820 350 820 c 1
 350 820 730 820 730 820 c 1
 730 820 730 580 730 580 c 1
 730 580 350 580 350 580 c 1
 350 580 350 240 350 240 c 1
 350 240 812 240 812 240 c 1
 812 240 812 0 812 0 c 1
 812 0 100 0 100 0 c 1
369 1800 m 1
 369 1800 542 1800 542 1800 c 1
 542 1800 726 1500 726 1500 c 1
 726 1500 571 1500 571 1500 c 1
 571 1500 456 1682 456 1682 c 1
 456 1682 340 1500 340 1500 c 1
 340 1500 185 1500 185 1500 c 1
 185 1500 369 1800 369 1800 c 1
EndSplineSet
Validated: 1
EndChar

StartChar: edieresis
Encoding: 168 235 168
Width: 912
Flags: W
LayerCount: 2
Fore
SplineSet
100 0 m 1
 100 0 100 1400 100 1400 c 1
 100 1400 810 1400 810 1400 c 1
 810 1400 810 1170 810 1170 c 1
 810 1170 350 1170 350 1170 c 1
 350 1170 350 820 350 820 c 1
 350 820 730 820 730 820 c 1
 730 820 730 580 730 580 c 1
 730 580 350 580 350 580 c 1
 350 580 350 240 350 240 c 1
 350 240 812 240 812 240 c 1
 812 240 812 0 812 0 c 1
 812 0 100 0 100 0 c 1
261 1700 m 1
 261 1700 411 1700 411 1700 c 1
 411 1700 411 1550 411 1550 c 1
 411 1550 261 1550 261 1550 c 1
 261 1550 261 1700 261 1700 c 1
501 1700 m 1
 501 1700 651 1700 651 1700 c 1
 651 1700 651 1550 651 1550 c 1
 651 1550 501 1550 501 1550 c 1
 501 1550 501 1700 501 1700 c 1
EndSplineSet
Validated: 1
EndChar

StartChar: igrave
Encoding: 169 236 169
Width: 450
Flags: W
LayerCount: 2
Fore
SplineSet
100 1400 m 1
 100 1400 350 1400 350 1400 c 1
 350 1400 350 0 350 0 c 1
 350 0 100 0 100 0 c 1
 100 0 100 1400 100 1400 c 1
190 1490 m 1
 190 1490 -10 1750 -10 1750 c 1
 -10 1750 210 1750 210 1750 c 1
 210 1750 350 1490 350 1490 c 1
 350 1490 190 1490 190 1490 c 1
EndSplineSet
Validated: 1
EndChar

StartChar: iacute
Encoding: 170 237 170
Width: 560
Flags: W
LayerCount: 2
Fore
SplineSet
100 1400 m 1
 100 1400 350 1400 350 1400 c 1
 350 1400 350 0 350 0 c 1
 350 0 100 0 100 0 c 1
 100 0 100 1400 100 1400 c 1
460 1750 m 1
 460 1750 260 1490 260 1490 c 1
 260 1490 100 1490 100 1490 c 1
 100 1490 240 1750 240 1750 c 1
 240 1750 460 1750 460 1750 c 1
EndSplineSet
Validated: 1
EndChar

StartChar: icircumflex
Encoding: 171 238 171
Width: 596
Flags: W
LayerCount: 2
Fore
SplineSet
100 1400 m 1
 100 1400 350 1400 350 1400 c 1
 350 1400 350 0 350 0 c 1
 350 0 100 0 100 0 c 1
 100 0 100 1400 100 1400 c 1
139 1800 m 1
 139 1800 312 1800 312 1800 c 1
 312 1800 496 1500 496 1500 c 1
 496 1500 341 1500 341 1500 c 1
 341 1500 226 1682 226 1682 c 1
 226 1682 110 1500 110 1500 c 1
 110 1500 -45 1500 -45 1500 c 1
 -45 1500 139 1800 139 1800 c 1
EndSplineSet
Validated: 1
EndChar

StartChar: idieresis
Encoding: 172 239 172
Width: 590
Flags: W
LayerCount: 2
Fore
SplineSet
170 1400 m 1
 170 1400 420 1400 420 1400 c 1
 420 1400 420 0 420 0 c 1
 420 0 170 0 170 0 c 1
 170 0 170 1400 170 1400 c 1
100 1700 m 1
 100 1700 250 1700 250 1700 c 1
 250 1700 250 1550 250 1550 c 1
 250 1550 100 1550 100 1550 c 1
 100 1550 100 1700 100 1700 c 1
340 1700 m 1
 340 1700 490 1700 490 1700 c 1
 490 1700 490 1550 490 1550 c 1
 490 1550 340 1550 340 1550 c 1
 340 1550 340 1700 340 1700 c 1
EndSplineSet
Validated: 1
EndChar

StartChar: eth
Encoding: 173 240 173
Width: 890
Flags: W
LayerCount: 2
Fore
SplineSet
100 0 m 1
 100 0 100 450 100 450 c 1
 100 450 40 450 40 450 c 1
 40 450 40 560 40 560 c 1
 40 560 100 560 100 560 c 1
 100 560 100 1400 100 1400 c 1
 100 1400 630 1400 630 1400 c 2
 718 1400 790 1328 790 1240 c 2
 790 1240 790 160 790 160 c 2
 790 72 718 0 630 0 c 2
 630 0 100 0 100 0 c 1
350 450 m 1
 350 450 350 230 350 230 c 1
 350 230 529 230 529 230 c 2
 541 230 550 239 550 251 c 2
 550 251 550 1149 550 1149 c 2
 550 1161 541 1170 529 1170 c 2
 529 1170 350 1170 350 1170 c 1
 350 1170 350 560 350 560 c 1
 350 560 480 560 480 560 c 1
 480 560 480 450 480 450 c 1
 480 450 350 450 350 450 c 1
EndSplineSet
Validated: 1
EndChar

StartChar: ntilde
Encoding: 174 241 174
Width: 975
Flags: HW
LayerCount: 2
Fore
SplineSet
640 610 m 1
 640 610 640 1400 640 1400 c 1
 640 1400 880 1400 880 1400 c 1
 880 1400 880 0 880 0 c 1
 880 0 670 0 670 0 c 1
 670 0 330 754 330 754 c 1
 330 754 330 0 330 0 c 1
 330 0 100 0 100 0 c 1
 100 0 100 1400 100 1400 c 1
 100 1400 310 1400 310 1400 c 1
 310 1400 640 610 640 610 c 1
920 1696 m 1
 880 1576 768 1491 635 1491 c 0
 634 1491 633 1491 632 1491 c 0
 554 1491 478 1526 423 1578 c 0
 396 1602 364 1614 333 1614 c 0
 282 1614 234 1584 216 1530 c 1
 216 1530 50 1585 50 1585 c 1
 90 1704 202 1790 335 1790 c 0
 414 1790 491 1758 547 1702 c 0
 570 1679 602 1666 635 1666 c 0
 689 1666 737 1700 754 1751 c 1
 754 1751 920 1696 920 1696 c 1
EndSplineSet
Validated: 1
EndChar

StartChar: ograve
Encoding: 175 242 175
Width: 940
Flags: W
LayerCount: 2
Fore
SplineSet
840 1255 m 2
 840 1255 840 145 840 145 c 2
 840 65 775 0 695 0 c 2
 695 0 245 0 245 0 c 2
 165 0 100 65 100 145 c 2
 100 145 100 1255 100 1255 c 2
 100 1335 165 1400 245 1400 c 2
 245 1400 695 1400 695 1400 c 2
 775 1400 840 1335 840 1255 c 2
350 250 m 1
 350 250 590 250 590 250 c 1
 590 250 590 1150 590 1150 c 1
 590 1150 350 1150 350 1150 c 1
 350 1150 350 250 350 250 c 1
440 1490 m 1
 440 1490 240 1750 240 1750 c 1
 240 1750 460 1750 460 1750 c 1
 460 1750 600 1490 600 1490 c 1
 600 1490 440 1490 440 1490 c 1
EndSplineSet
Validated: 1
EndChar

StartChar: oacute
Encoding: 176 243 176
Width: 940
Flags: W
LayerCount: 2
Fore
SplineSet
840 1255 m 2
 840 1255 840 145 840 145 c 2
 840 65 775 0 695 0 c 2
 695 0 245 0 245 0 c 2
 165 0 100 65 100 145 c 2
 100 145 100 1255 100 1255 c 2
 100 1335 165 1400 245 1400 c 2
 245 1400 695 1400 695 1400 c 2
 775 1400 840 1335 840 1255 c 2
350 250 m 1
 350 250 590 250 590 250 c 1
 590 250 590 1150 590 1150 c 1
 590 1150 350 1150 350 1150 c 1
 350 1150 350 250 350 250 c 1
680 1750 m 1
 680 1750 480 1490 480 1490 c 1
 480 1490 320 1490 320 1490 c 1
 320 1490 460 1750 460 1750 c 1
 460 1750 680 1750 680 1750 c 1
EndSplineSet
Validated: 1
EndChar

StartChar: ocircumflex
Encoding: 177 244 177
Width: 940
Flags: W
LayerCount: 2
Fore
SplineSet
840 1255 m 2
 840 1255 840 145 840 145 c 2
 840 65 775 0 695 0 c 2
 695 0 245 0 245 0 c 2
 165 0 100 65 100 145 c 2
 100 145 100 1255 100 1255 c 2
 100 1335 165 1400 245 1400 c 2
 245 1400 695 1400 695 1400 c 2
 775 1400 840 1335 840 1255 c 2
350 250 m 1
 350 250 590 250 590 250 c 1
 590 250 590 1150 590 1150 c 1
 590 1150 350 1150 350 1150 c 1
 350 1150 350 250 350 250 c 1
384 1800 m 1
 384 1800 557 1800 557 1800 c 1
 557 1800 741 1500 741 1500 c 1
 741 1500 586 1500 586 1500 c 1
 586 1500 471 1682 471 1682 c 1
 471 1682 355 1500 355 1500 c 1
 355 1500 200 1500 200 1500 c 1
 200 1500 384 1800 384 1800 c 1
EndSplineSet
Validated: 1
EndChar

StartChar: otilde
Encoding: 178 245 178
Width: 940
Flags: W
LayerCount: 2
Fore
SplineSet
840 1255 m 2
 840 1255 840 145 840 145 c 2
 840 65 775 0 695 0 c 2
 695 0 245 0 245 0 c 2
 165 0 100 65 100 145 c 2
 100 145 100 1255 100 1255 c 2
 100 1335 165 1400 245 1400 c 2
 245 1400 695 1400 695 1400 c 2
 775 1400 840 1335 840 1255 c 2
350 250 m 1
 350 250 590 250 590 250 c 1
 590 250 590 1150 590 1150 c 1
 590 1150 350 1150 350 1150 c 1
 350 1150 350 250 350 250 c 1
633 1653 m 1
 633 1653 722 1626 722 1626 c 1
 709 1553 641 1496 565 1496 c 0
 499 1496 445 1535 423 1593 c 1
 412 1608 397 1619 377 1619 c 0
 342 1619 309 1589 309 1553 c 1
 309 1553 220 1580 220 1580 c 1
 232 1653 300 1710 377 1710 c 0
 442 1710 497 1671 518 1613 c 1
 530 1598 544 1587 565 1587 c 0
 600 1587 633 1617 633 1653 c 1
EndSplineSet
Validated: 1
EndChar

StartChar: odieresis
Encoding: 179 246 179
Width: 940
Flags: W
LayerCount: 2
Fore
SplineSet
840 1255 m 2
 840 1255 840 145 840 145 c 2
 840 65 775 0 695 0 c 2
 695 0 245 0 245 0 c 2
 165 0 100 65 100 145 c 2
 100 145 100 1255 100 1255 c 2
 100 1335 165 1400 245 1400 c 2
 245 1400 695 1400 695 1400 c 2
 775 1400 840 1335 840 1255 c 2
350 250 m 1
 350 250 590 250 590 250 c 1
 590 250 590 1150 590 1150 c 1
 590 1150 350 1150 350 1150 c 1
 350 1150 350 250 350 250 c 1
275 1700 m 1
 275 1700 425 1700 425 1700 c 1
 425 1700 425 1550 425 1550 c 1
 425 1550 275 1550 275 1550 c 1
 275 1550 275 1700 275 1700 c 1
515 1700 m 1
 515 1700 665 1700 665 1700 c 1
 665 1700 665 1550 665 1550 c 1
 665 1550 515 1550 515 1550 c 1
 515 1550 515 1700 515 1700 c 1
EndSplineSet
Validated: 1
EndChar

StartChar: divide
Encoding: 180 247 180
Width: 1000
Flags: W
LayerCount: 2
Fore
SplineSet
100 810 m 1
 100 810 900 810 900 810 c 1
 900 810 900 590 900 590 c 1
 900 590 100 590 100 590 c 1
 100 590 100 810 100 810 c 1
385 500 m 1
 385 500 615 500 615 500 c 1
 615 500 615 270 615 270 c 1
 615 270 385 270 385 270 c 1
 385 270 385 500 385 500 c 1
385 1130 m 1
 385 1130 615 1130 615 1130 c 1
 615 1130 615 900 615 900 c 1
 615 900 385 900 385 900 c 1
 385 900 385 1130 385 1130 c 1
EndSplineSet
Validated: 1
EndChar

StartChar: oslash
Encoding: 181 248 181
Width: 940
Flags: W
LayerCount: 2
Fore
SplineSet
840 1255 m 2
 840 1255 840 145 840 145 c 2
 840 65 775 0 695 0 c 2
 695 0 245 0 245 0 c 2
 165 0 100 65 100 145 c 2
 100 145 100 1255 100 1255 c 2
 100 1335 165 1400 245 1400 c 2
 245 1400 695 1400 695 1400 c 2
 775 1400 840 1335 840 1255 c 2
350 732 m 1
 350 732 590 928 590 928 c 1
 590 928 590 1150 590 1150 c 1
 590 1150 350 1150 350 1150 c 1
 350 1150 350 732 350 732 c 1
350 250 m 1
 350 250 590 250 590 250 c 1
 590 250 590 658 590 658 c 1
 590 658 350 462 350 462 c 1
 350 462 350 250 350 250 c 1
EndSplineSet
Validated: 1
EndChar

StartChar: ugrave
Encoding: 182 249 182
Width: 970
Flags: W
LayerCount: 2
Fore
SplineSet
350 1400 m 1
 350 1400 350 250 350 250 c 1
 350 250 620 250 620 250 c 1
 620 250 620 1400 620 1400 c 1
 620 1400 870 1400 870 1400 c 1
 870 1400 870 145 870 145 c 2
 870 65 805 0 725 0 c 2
 725 0 245 0 245 0 c 2
 165 0 100 65 100 145 c 2
 100 145 100 1400 100 1400 c 1
 100 1400 350 1400 350 1400 c 1
500 1490 m 1
 500 1490 300 1750 300 1750 c 1
 300 1750 520 1750 520 1750 c 1
 520 1750 660 1490 660 1490 c 1
 660 1490 500 1490 500 1490 c 1
EndSplineSet
Validated: 1
EndChar

StartChar: uacute
Encoding: 183 250 183
Width: 970
Flags: W
LayerCount: 2
Fore
SplineSet
350 1400 m 1
 350 1400 350 250 350 250 c 1
 350 250 620 250 620 250 c 1
 620 250 620 1400 620 1400 c 1
 620 1400 870 1400 870 1400 c 1
 870 1400 870 145 870 145 c 2
 870 65 805 0 725 0 c 2
 725 0 245 0 245 0 c 2
 165 0 100 65 100 145 c 2
 100 145 100 1400 100 1400 c 1
 100 1400 350 1400 350 1400 c 1
725 1750 m 1
 725 1750 525 1490 525 1490 c 1
 525 1490 365 1490 365 1490 c 1
 365 1490 505 1750 505 1750 c 1
 505 1750 725 1750 725 1750 c 1
EndSplineSet
Validated: 1
EndChar

StartChar: ucircumflex
Encoding: 184 251 184
Width: 970
Flags: W
LayerCount: 2
Fore
SplineSet
350 1400 m 1
 350 1400 350 250 350 250 c 1
 350 250 620 250 620 250 c 1
 620 250 620 1400 620 1400 c 1
 620 1400 870 1400 870 1400 c 1
 870 1400 870 145 870 145 c 2
 870 65 805 0 725 0 c 2
 725 0 245 0 245 0 c 2
 165 0 100 65 100 145 c 2
 100 145 100 1400 100 1400 c 1
 100 1400 350 1400 350 1400 c 1
399 1800 m 1
 399 1800 572 1800 572 1800 c 1
 572 1800 756 1500 756 1500 c 1
 756 1500 601 1500 601 1500 c 1
 601 1500 486 1682 486 1682 c 1
 486 1682 370 1500 370 1500 c 1
 370 1500 215 1500 215 1500 c 1
 215 1500 399 1800 399 1800 c 1
EndSplineSet
Validated: 1
EndChar

StartChar: udieresis
Encoding: 185 252 185
Width: 970
Flags: W
LayerCount: 2
Fore
SplineSet
350 1400 m 1
 350 1400 350 250 350 250 c 1
 350 250 620 250 620 250 c 1
 620 250 620 1400 620 1400 c 1
 620 1400 870 1400 870 1400 c 1
 870 1400 870 145 870 145 c 2
 870 65 805 0 725 0 c 2
 725 0 245 0 245 0 c 2
 165 0 100 65 100 145 c 2
 100 145 100 1400 100 1400 c 1
 100 1400 350 1400 350 1400 c 1
290 1700 m 1
 290 1700 440 1700 440 1700 c 1
 440 1700 440 1550 440 1550 c 1
 440 1550 290 1550 290 1550 c 1
 290 1550 290 1700 290 1700 c 1
530 1700 m 1
 530 1700 680 1700 680 1700 c 1
 680 1700 680 1550 680 1550 c 1
 680 1550 530 1550 530 1550 c 1
 530 1550 530 1700 530 1700 c 1
EndSplineSet
Validated: 1
EndChar

StartChar: yacute
Encoding: 186 253 186
Width: 920
Flags: W
LayerCount: 2
Fore
SplineSet
860 1400 m 1
 860 1400 585 506 585 506 c 1
 585 506 585 0 585 0 c 1
 585 0 335 0 335 0 c 1
 335 0 335 506 335 506 c 1
 335 506 60 1400 60 1400 c 1
 60 1400 310 1400 310 1400 c 1
 310 1400 460 810 460 810 c 1
 460 810 600 1400 600 1400 c 1
 600 1400 860 1400 860 1400 c 1
690 1750 m 1
 690 1750 490 1490 490 1490 c 1
 490 1490 330 1490 330 1490 c 1
 330 1490 470 1750 470 1750 c 1
 470 1750 690 1750 690 1750 c 1
EndSplineSet
Validated: 1
EndChar

StartChar: thorn
Encoding: 187 254 187
Width: 940
Flags: W
LayerCount: 2
Fore
SplineSet
840 1060 m 2
 840 1060 840 445 840 445 c 2
 840 365 775 300 695 300 c 2
 695 300 350 300 350 300 c 1
 350 300 350 0 350 0 c 1
 350 0 100 0 100 0 c 1
 100 0 100 1400 100 1400 c 1
 100 1400 350 1400 350 1400 c 1
 350 1400 350 1200 350 1200 c 1
 350 1200 700 1200 700 1200 c 2
 777 1200 840 1137 840 1060 c 2
350 550 m 1
 350 550 590 550 590 550 c 1
 590 550 590 960 590 960 c 1
 590 960 350 960 350 960 c 1
 350 960 350 550 350 550 c 1
EndSplineSet
Validated: 1
EndChar

StartChar: Amacron
Encoding: 188 256 188
Width: 940
Flags: W
LayerCount: 2
Fore
SplineSet
230 0 m 1
 230 0 0 0 0 0 c 1
 0 0 350 1400 350 1400 c 1
 350 1400 590 1400 590 1400 c 1
 590 1400 940 0 940 0 c 1
 940 0 710 0 710 0 c 1
 710 0 644 260 644 260 c 1
 644 260 296 260 296 260 c 1
 296 260 230 0 230 0 c 1
349 470 m 1
 349 470 591 470 591 470 c 1
 591 470 470 945 470 945 c 1
 470 945 349 470 349 470 c 1
350 1640 m 1
 350 1640 790 1640 790 1640 c 1
 790 1640 790 1530 790 1530 c 1
 790 1530 350 1530 350 1530 c 1
 350 1530 350 1640 350 1640 c 1
EndSplineSet
Validated: 1
EndChar

StartChar: amacron
Encoding: 189 257 189
Width: 940
Flags: W
LayerCount: 2
Fore
SplineSet
230 0 m 1
 230 0 0 0 0 0 c 1
 0 0 350 1400 350 1400 c 1
 350 1400 590 1400 590 1400 c 1
 590 1400 940 0 940 0 c 1
 940 0 710 0 710 0 c 1
 710 0 644 260 644 260 c 1
 644 260 296 260 296 260 c 1
 296 260 230 0 230 0 c 1
349 470 m 1
 349 470 591 470 591 470 c 1
 591 470 470 945 470 945 c 1
 470 945 349 470 349 470 c 1
250 1640 m 1
 250 1640 690 1640 690 1640 c 1
 690 1640 690 1530 690 1530 c 1
 690 1530 250 1530 250 1530 c 1
 250 1530 250 1640 250 1640 c 1
EndSplineSet
Validated: 1
EndChar

StartChar: Abreve
Encoding: 190 258 190
Width: 940
Flags: W
LayerCount: 2
Fore
SplineSet
230 0 m 1
 230 0 0 0 0 0 c 1
 0 0 350 1400 350 1400 c 1
 350 1400 590 1400 590 1400 c 1
 590 1400 940 0 940 0 c 1
 940 0 710 0 710 0 c 1
 710 0 644 260 644 260 c 1
 644 260 296 260 296 260 c 1
 296 260 230 0 230 0 c 1
349 470 m 1
 349 470 591 470 591 470 c 1
 591 470 470 945 470 945 c 1
 470 945 349 470 349 470 c 1
570 1504 m 0
 474 1504 389 1575 374 1667 c 1
 374 1667 485 1700 485 1700 c 1
 485 1656 526 1619 570 1619 c 0
 614 1619 655 1656 655 1700 c 1
 655 1700 766 1667 766 1667 c 1
 751 1575 666 1504 570 1504 c 0
EndSplineSet
Validated: 1
EndChar

StartChar: abreve
Encoding: 191 259 191
Width: 940
Flags: W
LayerCount: 2
Fore
SplineSet
230 0 m 1
 230 0 0 0 0 0 c 1
 0 0 350 1400 350 1400 c 1
 350 1400 590 1400 590 1400 c 1
 590 1400 940 0 940 0 c 1
 940 0 710 0 710 0 c 1
 710 0 644 260 644 260 c 1
 644 260 296 260 296 260 c 1
 296 260 230 0 230 0 c 1
349 470 m 1
 349 470 591 470 591 470 c 1
 591 470 470 945 470 945 c 1
 470 945 349 470 349 470 c 1
470 1504 m 0
 374 1504 289 1575 274 1667 c 1
 274 1667 385 1700 385 1700 c 1
 385 1656 426 1619 470 1619 c 0
 514 1619 555 1656 555 1700 c 1
 555 1700 666 1667 666 1667 c 1
 651 1575 566 1504 470 1504 c 0
EndSplineSet
Validated: 1
EndChar

StartChar: Aogonek
Encoding: 192 260 192
Width: 940
Flags: W
LayerCount: 2
Fore
SplineSet
230 0 m 1
 230 0 80 -153 80 -153 c 1
 80 -153 80 -167 80 -167 c 2
 80 -202 107 -230 142 -230 c 2
 142 -230 277 -230 277 -230 c 2
 312 -230 340 -202 340 -167 c 2
 340 -167 340 -155 340 -155 c 1
 340 -155 500 -155 500 -155 c 1
 500 -155 500 -230 500 -230 c 2
 500 -318 428 -390 340 -390 c 2
 340 -390 80 -390 80 -390 c 2
 -8 -390 -80 -318 -80 -230 c 2
 -80 -230 -80 -80 -80 -80 c 1
 -80 -80 0 0 0 0 c 1
 0 0 350 1400 350 1400 c 1
 350 1400 590 1400 590 1400 c 1
 590 1400 940 0 940 0 c 1
 940 0 710 0 710 0 c 1
 710 0 644 260 644 260 c 1
 644 260 296 260 296 260 c 1
 296 260 230 0 230 0 c 1
349 470 m 1
 349 470 591 470 591 470 c 1
 591 470 470 945 470 945 c 1
 470 945 349 470 349 470 c 1
EndSplineSet
Validated: 1
EndChar

StartChar: aogonek
Encoding: 193 261 193
Width: 940
Flags: W
LayerCount: 2
Fore
SplineSet
230 0 m 1
 230 0 80 -153 80 -153 c 1
 80 -153 80 -167 80 -167 c 2
 80 -202 107 -230 142 -230 c 2
 142 -230 277 -230 277 -230 c 2
 312 -230 340 -202 340 -167 c 2
 340 -167 340 -155 340 -155 c 1
 340 -155 500 -155 500 -155 c 1
 500 -155 500 -230 500 -230 c 2
 500 -318 428 -390 340 -390 c 2
 340 -390 80 -390 80 -390 c 2
 -8 -390 -80 -318 -80 -230 c 2
 -80 -230 -80 -80 -80 -80 c 1
 -80 -80 0 0 0 0 c 1
 0 0 350 1400 350 1400 c 1
 350 1400 590 1400 590 1400 c 1
 590 1400 940 0 940 0 c 1
 940 0 710 0 710 0 c 1
 710 0 644 260 644 260 c 1
 644 260 296 260 296 260 c 1
 296 260 230 0 230 0 c 1
349 470 m 1
 349 470 591 470 591 470 c 1
 591 470 470 945 470 945 c 1
 470 945 349 470 349 470 c 1
EndSplineSet
Validated: 1
EndChar

StartChar: Cacute
Encoding: 194 262 194
Width: 910
Flags: W
LayerCount: 2
Fore
SplineSet
100 145 m 2
 100 145 100 1255 100 1255 c 2
 100 1335 165 1400 245 1400 c 2
 245 1400 665 1400 665 1400 c 2
 745 1400 810 1335 810 1255 c 2
 810 1255 810 955 810 955 c 1
 810 955 560 955 560 955 c 1
 560 955 560 1143 560 1143 c 1
 560 1143 360 1143 360 1143 c 1
 360 1143 360 260 360 260 c 1
 360 260 560 260 560 260 c 1
 560 260 560 445 560 445 c 1
 560 445 810 445 810 445 c 1
 810 445 810 145 810 145 c 2
 810 66 746 0 667 0 c 2
 667 0 245 0 245 0 c 2
 165 0 100 65 100 145 c 2
700 1750 m 1
 700 1750 500 1490 500 1490 c 1
 500 1490 340 1490 340 1490 c 1
 340 1490 480 1750 480 1750 c 1
 480 1750 700 1750 700 1750 c 1
EndSplineSet
Validated: 1
EndChar

StartChar: cacute
Encoding: 195 263 195
Width: 910
Flags: W
LayerCount: 2
Fore
SplineSet
100 145 m 2
 100 145 100 1255 100 1255 c 2
 100 1335 165 1400 245 1400 c 2
 245 1400 665 1400 665 1400 c 2
 745 1400 810 1335 810 1255 c 2
 810 1255 810 955 810 955 c 1
 810 955 560 955 560 955 c 1
 560 955 560 1143 560 1143 c 1
 560 1143 360 1143 360 1143 c 1
 360 1143 360 260 360 260 c 1
 360 260 560 260 560 260 c 1
 560 260 560 445 560 445 c 1
 560 445 810 445 810 445 c 1
 810 445 810 145 810 145 c 2
 810 66 746 0 667 0 c 2
 667 0 245 0 245 0 c 2
 165 0 100 65 100 145 c 2
700 1750 m 1
 700 1750 500 1490 500 1490 c 1
 500 1490 340 1490 340 1490 c 1
 340 1490 480 1750 480 1750 c 1
 480 1750 700 1750 700 1750 c 1
EndSplineSet
Validated: 1
EndChar

StartChar: Ccircumflex
Encoding: 196 264 196
Width: 910
Flags: W
LayerCount: 2
Fore
SplineSet
100 145 m 2
 100 145 100 1255 100 1255 c 2
 100 1335 165 1400 245 1400 c 2
 245 1400 665 1400 665 1400 c 2
 745 1400 810 1335 810 1255 c 2
 810 1255 810 955 810 955 c 1
 810 955 560 955 560 955 c 1
 560 955 560 1143 560 1143 c 1
 560 1143 360 1143 360 1143 c 1
 360 1143 360 260 360 260 c 1
 360 260 560 260 560 260 c 1
 560 260 560 445 560 445 c 1
 560 445 810 445 810 445 c 1
 810 445 810 145 810 145 c 2
 810 66 746 0 667 0 c 2
 667 0 245 0 245 0 c 2
 165 0 100 65 100 145 c 2
369 1800 m 1
 369 1800 542 1800 542 1800 c 1
 542 1800 726 1500 726 1500 c 1
 726 1500 571 1500 571 1500 c 1
 571 1500 456 1682 456 1682 c 1
 456 1682 340 1500 340 1500 c 1
 340 1500 185 1500 185 1500 c 1
 185 1500 369 1800 369 1800 c 1
EndSplineSet
Validated: 1
EndChar

StartChar: ccircumflex
Encoding: 197 265 197
Width: 910
Flags: W
LayerCount: 2
Fore
SplineSet
100 145 m 2
 100 145 100 1255 100 1255 c 2
 100 1335 165 1400 245 1400 c 2
 245 1400 665 1400 665 1400 c 2
 745 1400 810 1335 810 1255 c 2
 810 1255 810 955 810 955 c 1
 810 955 560 955 560 955 c 1
 560 955 560 1143 560 1143 c 1
 560 1143 360 1143 360 1143 c 1
 360 1143 360 260 360 260 c 1
 360 260 560 260 560 260 c 1
 560 260 560 445 560 445 c 1
 560 445 810 445 810 445 c 1
 810 445 810 145 810 145 c 2
 810 66 746 0 667 0 c 2
 667 0 245 0 245 0 c 2
 165 0 100 65 100 145 c 2
369 1800 m 1
 369 1800 542 1800 542 1800 c 1
 542 1800 726 1500 726 1500 c 1
 726 1500 571 1500 571 1500 c 1
 571 1500 456 1682 456 1682 c 1
 456 1682 340 1500 340 1500 c 1
 340 1500 185 1500 185 1500 c 1
 185 1500 369 1800 369 1800 c 1
EndSplineSet
Validated: 1
EndChar

StartChar: Cdotaccent
Encoding: 198 266 198
Width: 910
Flags: W
LayerCount: 2
Fore
SplineSet
100 145 m 2
 100 145 100 1255 100 1255 c 2
 100 1335 165 1400 245 1400 c 2
 245 1400 665 1400 665 1400 c 2
 745 1400 810 1335 810 1255 c 2
 810 1255 810 955 810 955 c 1
 810 955 560 955 560 955 c 1
 560 955 560 1143 560 1143 c 1
 560 1143 360 1143 360 1143 c 1
 360 1143 360 260 360 260 c 1
 360 260 560 260 560 260 c 1
 560 260 560 445 560 445 c 1
 560 445 810 445 810 445 c 1
 810 445 810 145 810 145 c 2
 810 66 746 0 667 0 c 2
 667 0 245 0 245 0 c 2
 165 0 100 65 100 145 c 2
380 1700 m 1
 380 1700 530 1700 530 1700 c 1
 530 1700 530 1550 530 1550 c 1
 530 1550 380 1550 380 1550 c 1
 380 1550 380 1700 380 1700 c 1
EndSplineSet
Validated: 1
EndChar

StartChar: cdotaccent
Encoding: 199 267 199
Width: 910
Flags: W
LayerCount: 2
Fore
SplineSet
100 145 m 2
 100 145 100 1255 100 1255 c 2
 100 1335 165 1400 245 1400 c 2
 245 1400 665 1400 665 1400 c 2
 745 1400 810 1335 810 1255 c 2
 810 1255 810 955 810 955 c 1
 810 955 560 955 560 955 c 1
 560 955 560 1143 560 1143 c 1
 560 1143 360 1143 360 1143 c 1
 360 1143 360 260 360 260 c 1
 360 260 560 260 560 260 c 1
 560 260 560 445 560 445 c 1
 560 445 810 445 810 445 c 1
 810 445 810 145 810 145 c 2
 810 66 746 0 667 0 c 2
 667 0 245 0 245 0 c 2
 165 0 100 65 100 145 c 2
380 1700 m 1
 380 1700 530 1700 530 1700 c 1
 530 1700 530 1550 530 1550 c 1
 530 1550 380 1550 380 1550 c 1
 380 1550 380 1700 380 1700 c 1
EndSplineSet
Validated: 1
EndChar

StartChar: Ccaron
Encoding: 200 268 200
Width: 910
Flags: W
LayerCount: 2
Fore
SplineSet
100 145 m 2
 100 145 100 1255 100 1255 c 2
 100 1335 165 1400 245 1400 c 2
 245 1400 665 1400 665 1400 c 2
 745 1400 810 1335 810 1255 c 2
 810 1255 810 955 810 955 c 1
 810 955 560 955 560 955 c 1
 560 955 560 1143 560 1143 c 1
 560 1143 360 1143 360 1143 c 1
 360 1143 360 260 360 260 c 1
 360 260 560 260 560 260 c 1
 560 260 560 445 560 445 c 1
 560 445 810 445 810 445 c 1
 810 445 810 145 810 145 c 2
 810 66 746 0 667 0 c 2
 667 0 245 0 245 0 c 2
 165 0 100 65 100 145 c 2
369 1500 m 1
 369 1500 185 1800 185 1800 c 1
 185 1800 340 1800 340 1800 c 1
 340 1800 456 1618 456 1618 c 1
 456 1618 571 1800 571 1800 c 1
 571 1800 726 1800 726 1800 c 1
 726 1800 542 1500 542 1500 c 1
 542 1500 369 1500 369 1500 c 1
EndSplineSet
Validated: 1
EndChar

StartChar: ccaron
Encoding: 201 269 201
Width: 910
Flags: W
LayerCount: 2
Fore
SplineSet
100 145 m 2
 100 145 100 1255 100 1255 c 2
 100 1335 165 1400 245 1400 c 2
 245 1400 665 1400 665 1400 c 2
 745 1400 810 1335 810 1255 c 2
 810 1255 810 955 810 955 c 1
 810 955 560 955 560 955 c 1
 560 955 560 1143 560 1143 c 1
 560 1143 360 1143 360 1143 c 1
 360 1143 360 260 360 260 c 1
 360 260 560 260 560 260 c 1
 560 260 560 445 560 445 c 1
 560 445 810 445 810 445 c 1
 810 445 810 145 810 145 c 2
 810 66 746 0 667 0 c 2
 667 0 245 0 245 0 c 2
 165 0 100 65 100 145 c 2
369 1500 m 1
 369 1500 185 1800 185 1800 c 1
 185 1800 340 1800 340 1800 c 1
 340 1800 456 1618 456 1618 c 1
 456 1618 571 1800 571 1800 c 1
 571 1800 726 1800 726 1800 c 1
 726 1800 542 1500 542 1500 c 1
 542 1500 369 1500 369 1500 c 1
EndSplineSet
Validated: 1
EndChar

StartChar: Dcaron
Encoding: 202 270 202
Width: 890
Flags: W
LayerCount: 2
Fore
SplineSet
100 0 m 1
 100 0 100 1400 100 1400 c 1
 100 1400 630 1400 630 1400 c 2
 718 1400 790 1328 790 1240 c 2
 790 1240 790 160 790 160 c 2
 790 72 718 0 630 0 c 2
 630 0 100 0 100 0 c 1
350 230 m 1
 350 230 529 230 529 230 c 2
 541 230 550 239 550 251 c 2
 550 251 550 1149 550 1149 c 2
 550 1161 541 1170 529 1170 c 2
 529 1170 350 1170 350 1170 c 1
 350 1170 350 230 350 230 c 1
359 1500 m 1
 359 1500 175 1800 175 1800 c 1
 175 1800 330 1800 330 1800 c 1
 330 1800 446 1618 446 1618 c 1
 446 1618 561 1800 561 1800 c 1
 561 1800 716 1800 716 1800 c 1
 716 1800 532 1500 532 1500 c 1
 532 1500 359 1500 359 1500 c 1
EndSplineSet
Validated: 1
EndChar

StartChar: dcaron
Encoding: 203 271 203
Width: 890
Flags: W
LayerCount: 2
Fore
SplineSet
100 0 m 1
 100 0 100 1400 100 1400 c 1
 100 1400 630 1400 630 1400 c 2
 718 1400 790 1328 790 1240 c 2
 790 1240 790 160 790 160 c 2
 790 72 718 0 630 0 c 2
 630 0 100 0 100 0 c 1
350 230 m 1
 350 230 529 230 529 230 c 2
 541 230 550 239 550 251 c 2
 550 251 550 1149 550 1149 c 2
 550 1161 541 1170 529 1170 c 2
 529 1170 350 1170 350 1170 c 1
 350 1170 350 230 350 230 c 1
359 1500 m 1
 359 1500 175 1800 175 1800 c 1
 175 1800 330 1800 330 1800 c 1
 330 1800 446 1618 446 1618 c 1
 446 1618 561 1800 561 1800 c 1
 561 1800 716 1800 716 1800 c 1
 716 1800 532 1500 532 1500 c 1
 532 1500 359 1500 359 1500 c 1
EndSplineSet
Validated: 1
EndChar

StartChar: Dcroat
Encoding: 204 272 204
Width: 890
Flags: W
LayerCount: 2
Fore
SplineSet
100 0 m 1
 100 0 100 645 100 645 c 1
 100 645 60 645 60 645 c 1
 60 645 60 755 60 755 c 1
 60 755 100 755 100 755 c 1
 100 755 100 1400 100 1400 c 1
 100 1400 630 1400 630 1400 c 2
 718 1400 790 1328 790 1240 c 2
 790 1240 790 160 790 160 c 2
 790 72 718 0 630 0 c 2
 630 0 100 0 100 0 c 1
350 645 m 1
 350 645 350 230 350 230 c 1
 350 230 529 230 529 230 c 2
 541 230 550 239 550 251 c 2
 550 251 550 1149 550 1149 c 2
 550 1161 541 1170 529 1170 c 2
 529 1170 350 1170 350 1170 c 1
 350 1170 350 755 350 755 c 1
 350 755 500 755 500 755 c 1
 500 755 500 645 500 645 c 1
 500 645 350 645 350 645 c 1
EndSplineSet
Validated: 1
EndChar

StartChar: dcroat
Encoding: 205 273 205
Width: 890
Flags: W
LayerCount: 2
Fore
SplineSet
100 0 m 1
 100 0 100 645 100 645 c 1
 100 645 60 645 60 645 c 1
 60 645 60 755 60 755 c 1
 60 755 100 755 100 755 c 1
 100 755 100 1400 100 1400 c 1
 100 1400 630 1400 630 1400 c 2
 718 1400 790 1328 790 1240 c 2
 790 1240 790 160 790 160 c 2
 790 72 718 0 630 0 c 2
 630 0 100 0 100 0 c 1
350 645 m 1
 350 645 350 230 350 230 c 1
 350 230 529 230 529 230 c 2
 541 230 550 239 550 251 c 2
 550 251 550 1149 550 1149 c 2
 550 1161 541 1170 529 1170 c 2
 529 1170 350 1170 350 1170 c 1
 350 1170 350 755 350 755 c 1
 350 755 500 755 500 755 c 1
 500 755 500 645 500 645 c 1
 500 645 350 645 350 645 c 1
EndSplineSet
Validated: 1
EndChar

StartChar: Emacron
Encoding: 206 274 206
Width: 912
Flags: W
LayerCount: 2
Fore
SplineSet
100 0 m 1
 100 0 100 1400 100 1400 c 1
 100 1400 810 1400 810 1400 c 1
 810 1400 810 1170 810 1170 c 1
 810 1170 350 1170 350 1170 c 1
 350 1170 350 820 350 820 c 1
 350 820 730 820 730 820 c 1
 730 820 730 580 730 580 c 1
 730 580 350 580 350 580 c 1
 350 580 350 240 350 240 c 1
 350 240 812 240 812 240 c 1
 812 240 812 0 812 0 c 1
 812 0 100 0 100 0 c 1
236 1640 m 1
 236 1640 676 1640 676 1640 c 1
 676 1640 676 1530 676 1530 c 1
 676 1530 236 1530 236 1530 c 1
 236 1530 236 1640 236 1640 c 1
EndSplineSet
Validated: 1
EndChar

StartChar: emacron
Encoding: 207 275 207
Width: 912
Flags: W
LayerCount: 2
Fore
SplineSet
100 0 m 1
 100 0 100 1400 100 1400 c 1
 100 1400 810 1400 810 1400 c 1
 810 1400 810 1170 810 1170 c 1
 810 1170 350 1170 350 1170 c 1
 350 1170 350 820 350 820 c 1
 350 820 730 820 730 820 c 1
 730 820 730 580 730 580 c 1
 730 580 350 580 350 580 c 1
 350 580 350 240 350 240 c 1
 350 240 812 240 812 240 c 1
 812 240 812 0 812 0 c 1
 812 0 100 0 100 0 c 1
236 1640 m 1
 236 1640 676 1640 676 1640 c 1
 676 1640 676 1530 676 1530 c 1
 676 1530 236 1530 236 1530 c 1
 236 1530 236 1640 236 1640 c 1
EndSplineSet
Validated: 1
EndChar

StartChar: Ebreve
Encoding: 208 276 208
Width: 912
Flags: W
LayerCount: 2
Fore
SplineSet
100 0 m 1
 100 0 100 1400 100 1400 c 1
 100 1400 810 1400 810 1400 c 1
 810 1400 810 1170 810 1170 c 1
 810 1170 350 1170 350 1170 c 1
 350 1170 350 820 350 820 c 1
 350 820 730 820 730 820 c 1
 730 820 730 580 730 580 c 1
 730 580 350 580 350 580 c 1
 350 580 350 240 350 240 c 1
 350 240 812 240 812 240 c 1
 812 240 812 0 812 0 c 1
 812 0 100 0 100 0 c 1
456 1504 m 0
 360 1504 275 1575 260 1667 c 1
 260 1667 371 1700 371 1700 c 1
 371 1656 412 1619 456 1619 c 0
 500 1619 541 1656 541 1700 c 1
 541 1700 652 1667 652 1667 c 1
 637 1575 552 1504 456 1504 c 0
EndSplineSet
Validated: 1
EndChar

StartChar: ebreve
Encoding: 209 277 209
Width: 912
Flags: W
LayerCount: 2
Fore
SplineSet
100 0 m 1
 100 0 100 1400 100 1400 c 1
 100 1400 810 1400 810 1400 c 1
 810 1400 810 1170 810 1170 c 1
 810 1170 350 1170 350 1170 c 1
 350 1170 350 820 350 820 c 1
 350 820 730 820 730 820 c 1
 730 820 730 580 730 580 c 1
 730 580 350 580 350 580 c 1
 350 580 350 240 350 240 c 1
 350 240 812 240 812 240 c 1
 812 240 812 0 812 0 c 1
 812 0 100 0 100 0 c 1
456 1504 m 0
 360 1504 275 1575 260 1667 c 1
 260 1667 371 1700 371 1700 c 1
 371 1656 412 1619 456 1619 c 0
 500 1619 541 1656 541 1700 c 1
 541 1700 652 1667 652 1667 c 1
 637 1575 552 1504 456 1504 c 0
EndSplineSet
Validated: 1
EndChar

StartChar: Edotaccent
Encoding: 210 278 210
Width: 912
Flags: W
LayerCount: 2
Fore
SplineSet
100 0 m 1
 100 0 100 1400 100 1400 c 1
 100 1400 810 1400 810 1400 c 1
 810 1400 810 1170 810 1170 c 1
 810 1170 350 1170 350 1170 c 1
 350 1170 350 820 350 820 c 1
 350 820 730 820 730 820 c 1
 730 820 730 580 730 580 c 1
 730 580 350 580 350 580 c 1
 350 580 350 240 350 240 c 1
 350 240 812 240 812 240 c 1
 812 240 812 0 812 0 c 1
 812 0 100 0 100 0 c 1
380 1700 m 1
 380 1700 530 1700 530 1700 c 1
 530 1700 530 1550 530 1550 c 1
 530 1550 380 1550 380 1550 c 1
 380 1550 380 1700 380 1700 c 1
EndSplineSet
Validated: 1
EndChar

StartChar: edotaccent
Encoding: 211 279 211
Width: 912
Flags: W
LayerCount: 2
Fore
SplineSet
100 0 m 1
 100 0 100 1400 100 1400 c 1
 100 1400 810 1400 810 1400 c 1
 810 1400 810 1170 810 1170 c 1
 810 1170 350 1170 350 1170 c 1
 350 1170 350 820 350 820 c 1
 350 820 730 820 730 820 c 1
 730 820 730 580 730 580 c 1
 730 580 350 580 350 580 c 1
 350 580 350 240 350 240 c 1
 350 240 812 240 812 240 c 1
 812 240 812 0 812 0 c 1
 812 0 100 0 100 0 c 1
380 1700 m 1
 380 1700 530 1700 530 1700 c 1
 530 1700 530 1550 530 1550 c 1
 530 1550 380 1550 380 1550 c 1
 380 1550 380 1700 380 1700 c 1
EndSplineSet
Validated: 1
EndChar

StartChar: Eogonek
Encoding: 212 280 212
Width: 912
Flags: W
LayerCount: 2
Fore
SplineSet
542 0 m 1
 542 0 392 -153 392 -153 c 1
 392 -153 392 -167 392 -167 c 2
 392 -202 419 -230 454 -230 c 2
 454 -230 589 -230 589 -230 c 2
 624 -230 652 -202 652 -167 c 2
 652 -167 652 -155 652 -155 c 1
 652 -155 812 -155 812 -155 c 1
 812 -155 812 -230 812 -230 c 2
 812 -318 740 -390 652 -390 c 2
 652 -390 392 -390 392 -390 c 2
 304 -390 232 -318 232 -230 c 2
 232 -230 232 -80 232 -80 c 1
 232 -80 312 0 312 0 c 1
 312 0 100 0 100 0 c 1
 100 0 100 1400 100 1400 c 1
 100 1400 810 1400 810 1400 c 1
 810 1400 810 1170 810 1170 c 1
 810 1170 350 1170 350 1170 c 1
 350 1170 350 820 350 820 c 1
 350 820 730 820 730 820 c 1
 730 820 730 580 730 580 c 1
 730 580 350 580 350 580 c 1
 350 580 350 240 350 240 c 1
 350 240 812 240 812 240 c 1
 812 240 812 0 812 0 c 1
 812 0 542 0 542 0 c 1
EndSplineSet
Validated: 1
EndChar

StartChar: eogonek
Encoding: 213 281 213
Width: 912
Flags: W
LayerCount: 2
Fore
SplineSet
542 0 m 1
 542 0 392 -153 392 -153 c 1
 392 -153 392 -167 392 -167 c 2
 392 -202 419 -230 454 -230 c 2
 454 -230 589 -230 589 -230 c 2
 624 -230 652 -202 652 -167 c 2
 652 -167 652 -155 652 -155 c 1
 652 -155 812 -155 812 -155 c 1
 812 -155 812 -230 812 -230 c 2
 812 -318 740 -390 652 -390 c 2
 652 -390 392 -390 392 -390 c 2
 304 -390 232 -318 232 -230 c 2
 232 -230 232 -80 232 -80 c 1
 232 -80 312 0 312 0 c 1
 312 0 100 0 100 0 c 1
 100 0 100 1400 100 1400 c 1
 100 1400 810 1400 810 1400 c 1
 810 1400 810 1170 810 1170 c 1
 810 1170 350 1170 350 1170 c 1
 350 1170 350 820 350 820 c 1
 350 820 730 820 730 820 c 1
 730 820 730 580 730 580 c 1
 730 580 350 580 350 580 c 1
 350 580 350 240 350 240 c 1
 350 240 812 240 812 240 c 1
 812 240 812 0 812 0 c 1
 812 0 542 0 542 0 c 1
EndSplineSet
Validated: 1
EndChar

StartChar: Ecaron
Encoding: 214 282 214
Width: 912
Flags: W
LayerCount: 2
Fore
SplineSet
100 0 m 1
 100 0 100 1400 100 1400 c 1
 100 1400 810 1400 810 1400 c 1
 810 1400 810 1170 810 1170 c 1
 810 1170 350 1170 350 1170 c 1
 350 1170 350 820 350 820 c 1
 350 820 730 820 730 820 c 1
 730 820 730 580 730 580 c 1
 730 580 350 580 350 580 c 1
 350 580 350 240 350 240 c 1
 350 240 812 240 812 240 c 1
 812 240 812 0 812 0 c 1
 812 0 100 0 100 0 c 1
369 1500 m 1
 369 1500 185 1800 185 1800 c 1
 185 1800 340 1800 340 1800 c 1
 340 1800 456 1618 456 1618 c 1
 456 1618 571 1800 571 1800 c 1
 571 1800 726 1800 726 1800 c 1
 726 1800 542 1500 542 1500 c 1
 542 1500 369 1500 369 1500 c 1
EndSplineSet
Validated: 1
EndChar

StartChar: ecaron
Encoding: 215 283 215
Width: 912
Flags: W
LayerCount: 2
Fore
SplineSet
100 0 m 1
 100 0 100 1400 100 1400 c 1
 100 1400 810 1400 810 1400 c 1
 810 1400 810 1170 810 1170 c 1
 810 1170 350 1170 350 1170 c 1
 350 1170 350 820 350 820 c 1
 350 820 730 820 730 820 c 1
 730 820 730 580 730 580 c 1
 730 580 350 580 350 580 c 1
 350 580 350 240 350 240 c 1
 350 240 812 240 812 240 c 1
 812 240 812 0 812 0 c 1
 812 0 100 0 100 0 c 1
369 1500 m 1
 369 1500 185 1800 185 1800 c 1
 185 1800 340 1800 340 1800 c 1
 340 1800 456 1618 456 1618 c 1
 456 1618 571 1800 571 1800 c 1
 571 1800 726 1800 726 1800 c 1
 726 1800 542 1500 542 1500 c 1
 542 1500 369 1500 369 1500 c 1
EndSplineSet
Validated: 1
EndChar

StartChar: Gcircumflex
Encoding: 216 284 216
Width: 932
Flags: W
LayerCount: 2
Fore
SplineSet
100 145 m 2
 100 145 100 1255 100 1255 c 2
 100 1335 165 1400 245 1400 c 2
 245 1400 685 1400 685 1400 c 2
 765 1400 830 1335 830 1255 c 2
 830 1255 830 955 830 955 c 1
 830 955 600 955 600 955 c 1
 600 955 600 1152 600 1152 c 1
 600 1152 350 1152 350 1152 c 1
 350 1152 350 248 350 248 c 1
 350 248 537 248 537 248 c 2
 572 248 600 276 600 311 c 2
 600 311 600 470 600 470 c 1
 600 470 480 470 480 470 c 1
 480 470 480 700 480 700 c 1
 480 700 830 700 830 700 c 1
 830 700 830 144 830 144 c 2
 830 89 859 42 904 18 c 0
 907 16 912 14 912 8 c 0
 912 2 909 0 904 0 c 2
 904 0 826 0 826 0 c 2
 746 0 681 66 680 148 c 1
 680 148 678 148 678 148 c 1
 678 148 678 140 678 140 c 2
 678 62 614 0 536 0 c 0
 526 0 245 0 245 0 c 2
 165 0 100 65 100 145 c 2
374 1800 m 1
 374 1800 547 1800 547 1800 c 1
 547 1800 731 1500 731 1500 c 1
 731 1500 576 1500 576 1500 c 1
 576 1500 461 1682 461 1682 c 1
 461 1682 345 1500 345 1500 c 1
 345 1500 190 1500 190 1500 c 1
 190 1500 374 1800 374 1800 c 1
EndSplineSet
Validated: 1
EndChar

StartChar: gcircumflex
Encoding: 217 285 217
Width: 932
Flags: W
LayerCount: 2
Fore
SplineSet
100 145 m 2
 100 145 100 1255 100 1255 c 2
 100 1335 165 1400 245 1400 c 2
 245 1400 685 1400 685 1400 c 2
 765 1400 830 1335 830 1255 c 2
 830 1255 830 955 830 955 c 1
 830 955 600 955 600 955 c 1
 600 955 600 1152 600 1152 c 1
 600 1152 350 1152 350 1152 c 1
 350 1152 350 248 350 248 c 1
 350 248 537 248 537 248 c 2
 572 248 600 276 600 311 c 2
 600 311 600 470 600 470 c 1
 600 470 480 470 480 470 c 1
 480 470 480 700 480 700 c 1
 480 700 830 700 830 700 c 1
 830 700 830 144 830 144 c 2
 830 89 859 42 904 18 c 0
 907 16 912 14 912 8 c 0
 912 2 909 0 904 0 c 2
 904 0 826 0 826 0 c 2
 746 0 681 66 680 148 c 1
 680 148 678 148 678 148 c 1
 678 148 678 140 678 140 c 2
 678 62 614 0 536 0 c 0
 526 0 245 0 245 0 c 2
 165 0 100 65 100 145 c 2
374 1800 m 1
 374 1800 547 1800 547 1800 c 1
 547 1800 731 1500 731 1500 c 1
 731 1500 576 1500 576 1500 c 1
 576 1500 461 1682 461 1682 c 1
 461 1682 345 1500 345 1500 c 1
 345 1500 190 1500 190 1500 c 1
 190 1500 374 1800 374 1800 c 1
EndSplineSet
Validated: 1
EndChar

StartChar: Gbreve
Encoding: 218 286 218
Width: 932
Flags: W
LayerCount: 2
Fore
SplineSet
100 145 m 2
 100 145 100 1255 100 1255 c 2
 100 1335 165 1400 245 1400 c 2
 245 1400 685 1400 685 1400 c 2
 765 1400 830 1335 830 1255 c 2
 830 1255 830 955 830 955 c 1
 830 955 600 955 600 955 c 1
 600 955 600 1152 600 1152 c 1
 600 1152 350 1152 350 1152 c 1
 350 1152 350 248 350 248 c 1
 350 248 537 248 537 248 c 2
 572 248 600 276 600 311 c 2
 600 311 600 470 600 470 c 1
 600 470 480 470 480 470 c 1
 480 470 480 700 480 700 c 1
 480 700 830 700 830 700 c 1
 830 700 830 144 830 144 c 2
 830 89 859 42 904 18 c 0
 907 16 912 14 912 8 c 0
 912 2 909 0 904 0 c 2
 904 0 826 0 826 0 c 2
 746 0 681 66 680 148 c 1
 680 148 678 148 678 148 c 1
 678 148 678 140 678 140 c 2
 678 62 614 0 536 0 c 0
 526 0 245 0 245 0 c 2
 165 0 100 65 100 145 c 2
466 1504 m 0
 370 1504 285 1575 270 1667 c 1
 270 1667 381 1700 381 1700 c 1
 381 1656 422 1619 466 1619 c 0
 510 1619 551 1656 551 1700 c 1
 551 1700 662 1667 662 1667 c 1
 647 1575 562 1504 466 1504 c 0
EndSplineSet
Validated: 1
EndChar

StartChar: gbreve
Encoding: 219 287 219
Width: 932
Flags: W
LayerCount: 2
Fore
SplineSet
100 145 m 2
 100 145 100 1255 100 1255 c 2
 100 1335 165 1400 245 1400 c 2
 245 1400 685 1400 685 1400 c 2
 765 1400 830 1335 830 1255 c 2
 830 1255 830 955 830 955 c 1
 830 955 600 955 600 955 c 1
 600 955 600 1152 600 1152 c 1
 600 1152 350 1152 350 1152 c 1
 350 1152 350 248 350 248 c 1
 350 248 537 248 537 248 c 2
 572 248 600 276 600 311 c 2
 600 311 600 470 600 470 c 1
 600 470 480 470 480 470 c 1
 480 470 480 700 480 700 c 1
 480 700 830 700 830 700 c 1
 830 700 830 144 830 144 c 2
 830 89 859 42 904 18 c 0
 907 16 912 14 912 8 c 0
 912 2 909 0 904 0 c 2
 904 0 826 0 826 0 c 2
 746 0 681 66 680 148 c 1
 680 148 678 148 678 148 c 1
 678 148 678 140 678 140 c 2
 678 62 614 0 536 0 c 0
 526 0 245 0 245 0 c 2
 165 0 100 65 100 145 c 2
466 1504 m 0
 370 1504 285 1575 270 1667 c 1
 270 1667 381 1700 381 1700 c 1
 381 1656 422 1619 466 1619 c 0
 510 1619 551 1656 551 1700 c 1
 551 1700 662 1667 662 1667 c 1
 647 1575 562 1504 466 1504 c 0
EndSplineSet
Validated: 1
EndChar

StartChar: Gdotaccent
Encoding: 220 288 220
Width: 932
Flags: W
LayerCount: 2
Fore
SplineSet
100 145 m 2
 100 145 100 1255 100 1255 c 2
 100 1335 165 1400 245 1400 c 2
 245 1400 685 1400 685 1400 c 2
 765 1400 830 1335 830 1255 c 2
 830 1255 830 955 830 955 c 1
 830 955 600 955 600 955 c 1
 600 955 600 1152 600 1152 c 1
 600 1152 350 1152 350 1152 c 1
 350 1152 350 248 350 248 c 1
 350 248 537 248 537 248 c 2
 572 248 600 276 600 311 c 2
 600 311 600 470 600 470 c 1
 600 470 480 470 480 470 c 1
 480 470 480 700 480 700 c 1
 480 700 830 700 830 700 c 1
 830 700 830 144 830 144 c 2
 830 89 859 42 904 18 c 0
 907 16 912 14 912 8 c 0
 912 2 909 0 904 0 c 2
 904 0 826 0 826 0 c 2
 746 0 681 66 680 148 c 1
 680 148 678 148 678 148 c 1
 678 148 678 140 678 140 c 2
 678 62 614 0 536 0 c 0
 526 0 245 0 245 0 c 2
 165 0 100 65 100 145 c 2
380 1700 m 1
 380 1700 530 1700 530 1700 c 1
 530 1700 530 1550 530 1550 c 1
 530 1550 380 1550 380 1550 c 1
 380 1550 380 1700 380 1700 c 1
EndSplineSet
Validated: 1
EndChar

StartChar: gdotaccent
Encoding: 221 289 221
Width: 932
Flags: W
LayerCount: 2
Fore
SplineSet
100 145 m 2
 100 145 100 1255 100 1255 c 2
 100 1335 165 1400 245 1400 c 2
 245 1400 685 1400 685 1400 c 2
 765 1400 830 1335 830 1255 c 2
 830 1255 830 955 830 955 c 1
 830 955 600 955 600 955 c 1
 600 955 600 1152 600 1152 c 1
 600 1152 350 1152 350 1152 c 1
 350 1152 350 248 350 248 c 1
 350 248 537 248 537 248 c 2
 572 248 600 276 600 311 c 2
 600 311 600 470 600 470 c 1
 600 470 480 470 480 470 c 1
 480 470 480 700 480 700 c 1
 480 700 830 700 830 700 c 1
 830 700 830 144 830 144 c 2
 830 89 859 42 904 18 c 0
 907 16 912 14 912 8 c 0
 912 2 909 0 904 0 c 2
 904 0 826 0 826 0 c 2
 746 0 681 66 680 148 c 1
 680 148 678 148 678 148 c 1
 678 148 678 140 678 140 c 2
 678 62 614 0 536 0 c 0
 526 0 245 0 245 0 c 2
 165 0 100 65 100 145 c 2
380 1700 m 1
 380 1700 530 1700 530 1700 c 1
 530 1700 530 1550 530 1550 c 1
 530 1550 380 1550 380 1550 c 1
 380 1550 380 1700 380 1700 c 1
EndSplineSet
Validated: 1
EndChar

StartChar: uni0122
Encoding: 222 290 222
Width: 932
Flags: W
LayerCount: 2
Fore
SplineSet
470 -150 m 1
 470 -150 324 0 324 0 c 1
 324 0 245 0 245 0 c 2
 165 0 100 65 100 145 c 2
 100 145 100 1255 100 1255 c 2
 100 1335 165 1400 245 1400 c 2
 245 1400 685 1400 685 1400 c 2
 765 1400 830 1335 830 1255 c 2
 830 1255 830 955 830 955 c 1
 830 955 600 955 600 955 c 1
 600 955 600 1152 600 1152 c 1
 600 1152 350 1152 350 1152 c 1
 350 1152 350 248 350 248 c 1
 350 248 537 248 537 248 c 2
 572 248 600 276 600 311 c 2
 600 311 600 470 600 470 c 1
 600 470 480 470 480 470 c 1
 480 470 480 700 480 700 c 1
 480 700 830 700 830 700 c 1
 830 700 830 144 830 144 c 2
 830 89 859 42 904 18 c 0
 907 16 912 14 912 8 c 0
 912 2 909 0 904 0 c 2
 904 0 826 0 826 0 c 2
 746 0 681 66 680 148 c 1
 680 148 678 148 678 148 c 1
 678 148 678 140 678 140 c 2
 678 67 621 7 549 0 c 1
 549 0 630 -80 630 -80 c 1
 630 -80 630 -230 630 -230 c 2
 630 -318 558 -390 470 -390 c 2
 470 -390 210 -390 210 -390 c 2
 122 -390 50 -318 50 -230 c 2
 50 -230 50 -155 50 -155 c 1
 50 -155 210 -155 210 -155 c 1
 210 -155 210 -167 210 -167 c 2
 210 -202 238 -230 273 -230 c 2
 273 -230 408 -230 408 -230 c 2
 443 -230 470 -202 470 -167 c 2
 470 -167 470 -150 470 -150 c 1
EndSplineSet
Validated: 1
EndChar

StartChar: uni0123
Encoding: 223 291 223
Width: 932
Flags: W
LayerCount: 2
Fore
SplineSet
470 -150 m 1
 470 -150 324 0 324 0 c 1
 324 0 245 0 245 0 c 2
 165 0 100 65 100 145 c 2
 100 145 100 1255 100 1255 c 2
 100 1335 165 1400 245 1400 c 2
 245 1400 685 1400 685 1400 c 2
 765 1400 830 1335 830 1255 c 2
 830 1255 830 955 830 955 c 1
 830 955 600 955 600 955 c 1
 600 955 600 1152 600 1152 c 1
 600 1152 350 1152 350 1152 c 1
 350 1152 350 248 350 248 c 1
 350 248 537 248 537 248 c 2
 572 248 600 276 600 311 c 2
 600 311 600 470 600 470 c 1
 600 470 480 470 480 470 c 1
 480 470 480 700 480 700 c 1
 480 700 830 700 830 700 c 1
 830 700 830 144 830 144 c 2
 830 89 859 42 904 18 c 0
 907 16 912 14 912 8 c 0
 912 2 909 0 904 0 c 2
 904 0 826 0 826 0 c 2
 746 0 681 66 680 148 c 1
 680 148 678 148 678 148 c 1
 678 148 678 140 678 140 c 2
 678 67 621 7 549 0 c 1
 549 0 630 -80 630 -80 c 1
 630 -80 630 -230 630 -230 c 2
 630 -318 558 -390 470 -390 c 2
 470 -390 210 -390 210 -390 c 2
 122 -390 50 -318 50 -230 c 2
 50 -230 50 -155 50 -155 c 1
 50 -155 210 -155 210 -155 c 1
 210 -155 210 -167 210 -167 c 2
 210 -202 238 -230 273 -230 c 2
 273 -230 408 -230 408 -230 c 2
 443 -230 470 -202 470 -167 c 2
 470 -167 470 -150 470 -150 c 1
EndSplineSet
Validated: 1
EndChar

StartChar: Hcircumflex
Encoding: 224 292 224
Width: 970
Flags: W
LayerCount: 2
Fore
SplineSet
350 0 m 1
 350 0 100 0 100 0 c 1
 100 0 100 1400 100 1400 c 1
 100 1400 350 1400 350 1400 c 1
 350 1400 350 810 350 810 c 1
 350 810 620 810 620 810 c 1
 620 810 620 1400 620 1400 c 1
 620 1400 870 1400 870 1400 c 1
 870 1400 870 0 870 0 c 1
 870 0 620 0 620 0 c 1
 620 0 620 570 620 570 c 1
 620 570 350 570 350 570 c 1
 350 570 350 0 350 0 c 1
399 1800 m 1
 399 1800 572 1800 572 1800 c 1
 572 1800 756 1500 756 1500 c 1
 756 1500 601 1500 601 1500 c 1
 601 1500 486 1682 486 1682 c 1
 486 1682 370 1500 370 1500 c 1
 370 1500 215 1500 215 1500 c 1
 215 1500 399 1800 399 1800 c 1
EndSplineSet
Validated: 1
EndChar

StartChar: hcircumflex
Encoding: 225 293 225
Width: 970
Flags: W
LayerCount: 2
Fore
SplineSet
350 0 m 1
 350 0 100 0 100 0 c 1
 100 0 100 1400 100 1400 c 1
 100 1400 350 1400 350 1400 c 1
 350 1400 350 810 350 810 c 1
 350 810 620 810 620 810 c 1
 620 810 620 1400 620 1400 c 1
 620 1400 870 1400 870 1400 c 1
 870 1400 870 0 870 0 c 1
 870 0 620 0 620 0 c 1
 620 0 620 570 620 570 c 1
 620 570 350 570 350 570 c 1
 350 570 350 0 350 0 c 1
399 1800 m 1
 399 1800 572 1800 572 1800 c 1
 572 1800 756 1500 756 1500 c 1
 756 1500 601 1500 601 1500 c 1
 601 1500 486 1682 486 1682 c 1
 486 1682 370 1500 370 1500 c 1
 370 1500 215 1500 215 1500 c 1
 215 1500 399 1800 399 1800 c 1
EndSplineSet
Validated: 1
EndChar

StartChar: Hbar
Encoding: 226 294 226
Width: 990
Flags: W
LayerCount: 2
Fore
SplineSet
350 0 m 1
 350 0 100 0 100 0 c 1
 100 0 100 940 100 940 c 1
 100 940 20 940 20 940 c 1
 20 940 20 1050 20 1050 c 1
 20 1050 100 1050 100 1050 c 1
 100 1050 100 1400 100 1400 c 1
 100 1400 350 1400 350 1400 c 1
 350 1400 350 1050 350 1050 c 1
 350 1050 620 1050 620 1050 c 1
 620 1050 620 1400 620 1400 c 1
 620 1400 870 1400 870 1400 c 1
 870 1400 870 1050 870 1050 c 1
 870 1050 970 1050 970 1050 c 1
 970 1050 970 940 970 940 c 1
 970 940 870 940 870 940 c 1
 870 940 870 0 870 0 c 1
 870 0 620 0 620 0 c 1
 620 0 620 570 620 570 c 1
 620 570 350 570 350 570 c 1
 350 570 350 0 350 0 c 1
620 940 m 1
 620 940 350 940 350 940 c 1
 350 940 350 810 350 810 c 1
 350 810 620 810 620 810 c 1
 620 810 620 940 620 940 c 1
EndSplineSet
Validated: 1
EndChar

StartChar: hbar
Encoding: 227 295 227
Width: 990
Flags: W
LayerCount: 2
Fore
SplineSet
350 0 m 1
 350 0 100 0 100 0 c 1
 100 0 100 940 100 940 c 1
 100 940 20 940 20 940 c 1
 20 940 20 1050 20 1050 c 1
 20 1050 100 1050 100 1050 c 1
 100 1050 100 1400 100 1400 c 1
 100 1400 350 1400 350 1400 c 1
 350 1400 350 1050 350 1050 c 1
 350 1050 620 1050 620 1050 c 1
 620 1050 620 1400 620 1400 c 1
 620 1400 870 1400 870 1400 c 1
 870 1400 870 1050 870 1050 c 1
 870 1050 970 1050 970 1050 c 1
 970 1050 970 940 970 940 c 1
 970 940 870 940 870 940 c 1
 870 940 870 0 870 0 c 1
 870 0 620 0 620 0 c 1
 620 0 620 570 620 570 c 1
 620 570 350 570 350 570 c 1
 350 570 350 0 350 0 c 1
620 940 m 1
 620 940 350 940 350 940 c 1
 350 940 350 810 350 810 c 1
 350 810 620 810 620 810 c 1
 620 810 620 940 620 940 c 1
EndSplineSet
Validated: 1
EndChar

StartChar: Itilde
Encoding: 228 296 228
Width: 702
Flags: W
LayerCount: 2
Fore
SplineSet
100 1400 m 1
 100 1400 350 1400 350 1400 c 1
 350 1400 350 0 350 0 c 1
 350 0 100 0 100 0 c 1
 100 0 100 1400 100 1400 c 1
388 1653 m 1
 388 1653 477 1626 477 1626 c 1
 464 1553 396 1496 320 1496 c 0
 254 1496 200 1535 178 1593 c 1
 167 1608 152 1619 132 1619 c 0
 97 1619 64 1589 64 1553 c 1
 64 1553 -25 1580 -25 1580 c 1
 -13 1653 55 1710 132 1710 c 0
 197 1710 252 1671 273 1613 c 1
 285 1598 299 1587 320 1587 c 0
 355 1587 388 1617 388 1653 c 1
EndSplineSet
Validated: 1
EndChar

StartChar: itilde
Encoding: 229 297 229
Width: 702
Flags: W
LayerCount: 2
Fore
SplineSet
225 1400 m 1
 225 1400 475 1400 475 1400 c 1
 475 1400 475 0 475 0 c 1
 475 0 225 0 225 0 c 1
 225 0 225 1400 225 1400 c 1
513 1653 m 1
 513 1653 602 1626 602 1626 c 1
 589 1553 521 1496 445 1496 c 0
 379 1496 325 1535 303 1593 c 1
 292 1608 277 1619 257 1619 c 0
 222 1619 189 1589 189 1553 c 1
 189 1553 100 1580 100 1580 c 1
 112 1653 180 1710 257 1710 c 0
 322 1710 377 1671 398 1613 c 1
 410 1598 424 1587 445 1587 c 0
 480 1587 513 1617 513 1653 c 1
EndSplineSet
Validated: 1
EndChar

StartChar: Imacron
Encoding: 230 298 230
Width: 645
Flags: W
LayerCount: 2
Fore
SplineSet
100 1400 m 1
 100 1400 350 1400 350 1400 c 1
 350 1400 350 0 350 0 c 1
 350 0 100 0 100 0 c 1
 100 0 100 1400 100 1400 c 1
5 1640 m 1
 5 1640 445 1640 445 1640 c 1
 445 1640 445 1530 445 1530 c 1
 445 1530 5 1530 5 1530 c 1
 5 1530 5 1640 5 1640 c 1
EndSplineSet
Validated: 1
EndChar

StartChar: imacron
Encoding: 231 299 231
Width: 645
Flags: W
LayerCount: 2
Fore
SplineSet
200 1400 m 1
 200 1400 450 1400 450 1400 c 1
 450 1400 450 0 450 0 c 1
 450 0 200 0 200 0 c 1
 200 0 200 1400 200 1400 c 1
105 1640 m 1
 105 1640 545 1640 545 1640 c 1
 545 1640 545 1530 545 1530 c 1
 545 1530 105 1530 105 1530 c 1
 105 1530 105 1640 105 1640 c 1
EndSplineSet
Validated: 1
EndChar

StartChar: Ibreve
Encoding: 232 300 232
Width: 592
Flags: W
LayerCount: 2
Fore
SplineSet
100 1400 m 1
 100 1400 350 1400 350 1400 c 1
 350 1400 350 0 350 0 c 1
 350 0 100 0 100 0 c 1
 100 0 100 1400 100 1400 c 1
226 1504 m 0
 130 1504 45 1575 30 1667 c 1
 30 1667 141 1700 141 1700 c 1
 141 1656 182 1619 226 1619 c 0
 270 1619 311 1656 311 1700 c 1
 311 1700 422 1667 422 1667 c 1
 407 1575 322 1504 226 1504 c 0
EndSplineSet
Validated: 1
EndChar

StartChar: ibreve
Encoding: 233 301 233
Width: 592
Flags: W
LayerCount: 2
Fore
SplineSet
170 1400 m 1
 170 1400 420 1400 420 1400 c 1
 420 1400 420 0 420 0 c 1
 420 0 170 0 170 0 c 1
 170 0 170 1400 170 1400 c 1
296 1504 m 0
 200 1504 115 1575 100 1667 c 1
 100 1667 211 1700 211 1700 c 1
 211 1656 252 1619 296 1619 c 0
 340 1619 381 1656 381 1700 c 1
 381 1700 492 1667 492 1667 c 1
 477 1575 392 1504 296 1504 c 0
EndSplineSet
Validated: 1
EndChar

StartChar: Iogonek
Encoding: 234 302 234
Width: 720
Flags: W
LayerCount: 2
Fore
SplineSet
100 -20 m 1
 100 -20 100 1400 100 1400 c 1
 100 1400 350 1400 350 1400 c 1
 350 1400 350 0 350 0 c 1
 350 0 200 -153 200 -153 c 1
 200 -153 200 -167 200 -167 c 2
 200 -202 227 -230 262 -230 c 2
 262 -230 397 -230 397 -230 c 2
 432 -230 460 -202 460 -167 c 2
 460 -167 460 -155 460 -155 c 1
 460 -155 620 -155 620 -155 c 1
 620 -155 620 -230 620 -230 c 2
 620 -318 548 -390 460 -390 c 2
 460 -390 200 -390 200 -390 c 2
 112 -390 40 -318 40 -230 c 2
 40 -230 40 -80 40 -80 c 1
 40 -80 100 -20 100 -20 c 1
EndSplineSet
Validated: 1
EndChar

StartChar: iogonek
Encoding: 235 303 235
Width: 720
Flags: W
LayerCount: 2
Fore
SplineSet
100 -20 m 1
 100 -20 100 1400 100 1400 c 1
 100 1400 350 1400 350 1400 c 1
 350 1400 350 0 350 0 c 1
 350 0 200 -153 200 -153 c 1
 200 -153 200 -167 200 -167 c 2
 200 -202 227 -230 262 -230 c 2
 262 -230 397 -230 397 -230 c 2
 432 -230 460 -202 460 -167 c 2
 460 -167 460 -155 460 -155 c 1
 460 -155 620 -155 620 -155 c 1
 620 -155 620 -230 620 -230 c 2
 620 -318 548 -390 460 -390 c 2
 460 -390 200 -390 200 -390 c 2
 112 -390 40 -318 40 -230 c 2
 40 -230 40 -80 40 -80 c 1
 40 -80 100 -20 100 -20 c 1
EndSplineSet
Validated: 1
EndChar

StartChar: Idotaccent
Encoding: 236 304 236
Width: 450
Flags: W
LayerCount: 2
Fore
SplineSet
100 1400 m 1
 100 1400 350 1400 350 1400 c 1
 350 1400 350 0 350 0 c 1
 350 0 100 0 100 0 c 1
 100 0 100 1400 100 1400 c 1
150 1700 m 1
 150 1700 300 1700 300 1700 c 1
 300 1700 300 1550 300 1550 c 1
 300 1550 150 1550 150 1550 c 1
 150 1550 150 1700 150 1700 c 1
EndSplineSet
Validated: 1
EndChar

StartChar: dotlessi
Encoding: 237 305 237
Width: 450
Flags: W
LayerCount: 2
Fore
SplineSet
100 1400 m 1
 100 1400 350 1400 350 1400 c 1
 350 1400 350 0 350 0 c 1
 350 0 100 0 100 0 c 1
 100 0 100 1400 100 1400 c 1
EndSplineSet
Validated: 1
EndChar

StartChar: IJ
Encoding: 238 306 238
Width: 910
Flags: W
LayerCount: 2
Fore
SplineSet
100 1400 m 1
 100 1400 350 1400 350 1400 c 1
 350 1400 350 0 350 0 c 1
 350 0 100 0 100 0 c 1
 100 0 100 1400 100 1400 c 1
100 -255 m 2
 100 -255 100 -80 100 -80 c 1
 100 -80 350 -80 350 -80 c 1
 350 -80 350 -140 350 -140 c 1
 350 -140 560 -140 560 -140 c 1
 560 -140 560 1400 560 1400 c 1
 560 1400 810 1400 810 1400 c 1
 810 1400 810 -255 810 -255 c 2
 810 -335 745 -400 665 -400 c 2
 665 -400 245 -400 245 -400 c 2
 165 -400 100 -335 100 -255 c 2
EndSplineSet
Validated: 1
EndChar

StartChar: ij
Encoding: 239 307 239
Width: 910
Flags: W
LayerCount: 2
Fore
SplineSet
100 1400 m 1
 100 1400 350 1400 350 1400 c 1
 350 1400 350 0 350 0 c 1
 350 0 100 0 100 0 c 1
 100 0 100 1400 100 1400 c 1
100 -255 m 2
 100 -255 100 -80 100 -80 c 1
 100 -80 350 -80 350 -80 c 1
 350 -80 350 -140 350 -140 c 1
 350 -140 560 -140 560 -140 c 1
 560 -140 560 1400 560 1400 c 1
 560 1400 810 1400 810 1400 c 1
 810 1400 810 -255 810 -255 c 2
 810 -335 745 -400 665 -400 c 2
 665 -400 245 -400 245 -400 c 2
 165 -400 100 -335 100 -255 c 2
EndSplineSet
Validated: 1
EndChar

StartChar: Jcircumflex
Encoding: 240 308 240
Width: 941
Flags: W
LayerCount: 2
Fore
SplineSet
100 145 m 2
 100 145 100 430 100 430 c 1
 100 430 350 430 350 430 c 1
 350 430 350 260 350 260 c 1
 350 260 560 260 560 260 c 1
 560 260 560 1400 560 1400 c 1
 560 1400 810 1400 810 1400 c 1
 810 1400 810 145 810 145 c 2
 810 65 745 0 665 0 c 2
 665 0 245 0 245 0 c 2
 165 0 100 65 100 145 c 2
584 1800 m 1
 584 1800 757 1800 757 1800 c 1
 757 1800 941 1500 941 1500 c 1
 941 1500 786 1500 786 1500 c 1
 786 1500 671 1682 671 1682 c 1
 671 1682 555 1500 555 1500 c 1
 555 1500 400 1500 400 1500 c 1
 400 1500 584 1800 584 1800 c 1
EndSplineSet
Validated: 1
EndChar

StartChar: jcircumflex
Encoding: 241 309 241
Width: 941
Flags: W
LayerCount: 2
Fore
SplineSet
100 145 m 2
 100 145 100 430 100 430 c 1
 100 430 350 430 350 430 c 1
 350 430 350 260 350 260 c 1
 350 260 560 260 560 260 c 1
 560 260 560 1400 560 1400 c 1
 560 1400 810 1400 810 1400 c 1
 810 1400 810 145 810 145 c 2
 810 65 745 0 665 0 c 2
 665 0 245 0 245 0 c 2
 165 0 100 65 100 145 c 2
584 1800 m 1
 584 1800 757 1800 757 1800 c 1
 757 1800 941 1500 941 1500 c 1
 941 1500 786 1500 786 1500 c 1
 786 1500 671 1682 671 1682 c 1
 671 1682 555 1500 555 1500 c 1
 555 1500 400 1500 400 1500 c 1
 400 1500 584 1800 584 1800 c 1
EndSplineSet
Validated: 1
EndChar

StartChar: uni0136
Encoding: 242 310 242
Width: 996
Flags: W
LayerCount: 2
Fore
SplineSet
640 0 m 1
 640 0 368 603 368 603 c 1
 368 603 350 603 350 603 c 1
 350 603 350 0 350 0 c 1
 350 0 100 0 100 0 c 1
 100 0 100 1400 100 1400 c 1
 100 1400 350 1400 350 1400 c 1
 350 1400 350 813 350 813 c 1
 350 813 367 813 367 813 c 1
 367 813 620 1400 620 1400 c 1
 620 1400 880 1400 880 1400 c 1
 880 1400 579 714 579 714 c 1
 579 714 946 -103 946 -103 c 1
 946 -103 946 -230 946 -230 c 2
 946 -318 874 -390 786 -390 c 2
 786 -390 526 -390 526 -390 c 2
 438 -390 366 -318 366 -230 c 2
 366 -230 366 -155 366 -155 c 1
 366 -155 526 -155 526 -155 c 1
 526 -155 526 -167 526 -167 c 2
 526 -202 554 -230 589 -230 c 2
 589 -230 724 -230 724 -230 c 2
 759 -230 786 -202 786 -167 c 2
 786 -167 786 -150 786 -150 c 1
 786 -150 640 0 640 0 c 1
EndSplineSet
Validated: 1
EndChar

StartChar: uni0137
Encoding: 243 311 243
Width: 996
Flags: W
LayerCount: 2
Fore
SplineSet
640 0 m 1
 640 0 368 603 368 603 c 1
 368 603 350 603 350 603 c 1
 350 603 350 0 350 0 c 1
 350 0 100 0 100 0 c 1
 100 0 100 1400 100 1400 c 1
 100 1400 350 1400 350 1400 c 1
 350 1400 350 813 350 813 c 1
 350 813 367 813 367 813 c 1
 367 813 620 1400 620 1400 c 1
 620 1400 880 1400 880 1400 c 1
 880 1400 579 714 579 714 c 1
 579 714 946 -103 946 -103 c 1
 946 -103 946 -230 946 -230 c 2
 946 -318 874 -390 786 -390 c 2
 786 -390 526 -390 526 -390 c 2
 438 -390 366 -318 366 -230 c 2
 366 -230 366 -155 366 -155 c 1
 366 -155 526 -155 526 -155 c 1
 526 -155 526 -167 526 -167 c 2
 526 -202 554 -230 589 -230 c 2
 589 -230 724 -230 724 -230 c 2
 759 -230 786 -202 786 -167 c 2
 786 -167 786 -150 786 -150 c 1
 786 -150 640 0 640 0 c 1
EndSplineSet
Validated: 1
EndChar

StartChar: kgreenlandic
Encoding: 244 312 244
Width: 1240
Flags: W
LayerCount: 2
Fore
SplineSet
579 714 m 1
 579 714 900 0 900 0 c 1
 900 0 640 0 640 0 c 1
 640 0 368 603 368 603 c 1
 368 603 350 603 350 603 c 1
 350 603 350 0 350 0 c 1
 350 0 100 0 100 0 c 1
 100 0 100 1400 100 1400 c 1
 100 1400 350 1400 350 1400 c 1
 350 1400 350 813 350 813 c 1
 350 813 367 813 367 813 c 1
 367 813 620 1400 620 1400 c 1
 620 1400 880 1400 880 1400 c 1
 880 1400 579 714 579 714 c 1
1130 990 m 1
 1130 990 1020 990 1020 990 c 1
 1020 990 960 1220 960 1220 c 1
 960 1220 960 1450 960 1450 c 1
 960 1450 1190 1450 1190 1450 c 1
 1190 1450 1190 1220 1190 1220 c 1
 1190 1220 1130 990 1130 990 c 1
EndSplineSet
Validated: 1
EndChar

StartChar: Lacute
Encoding: 245 313 245
Width: 880
Flags: W
LayerCount: 2
Fore
SplineSet
350 255 m 1
 350 255 800 255 800 255 c 1
 800 255 800 0 800 0 c 1
 800 0 100 0 100 0 c 1
 100 0 100 1400 100 1400 c 1
 100 1400 350 1400 350 1400 c 1
 350 1400 350 255 350 255 c 1
460 1750 m 1
 460 1750 260 1490 260 1490 c 1
 260 1490 100 1490 100 1490 c 1
 100 1490 240 1750 240 1750 c 1
 240 1750 460 1750 460 1750 c 1
EndSplineSet
Validated: 1
EndChar

StartChar: lacute
Encoding: 246 314 246
Width: 880
Flags: W
LayerCount: 2
Fore
SplineSet
350 255 m 1
 350 255 800 255 800 255 c 1
 800 255 800 0 800 0 c 1
 800 0 100 0 100 0 c 1
 100 0 100 1400 100 1400 c 1
 100 1400 350 1400 350 1400 c 1
 350 1400 350 255 350 255 c 1
460 1750 m 1
 460 1750 260 1490 260 1490 c 1
 260 1490 100 1490 100 1490 c 1
 100 1490 240 1750 240 1750 c 1
 240 1750 460 1750 460 1750 c 1
EndSplineSet
Validated: 1
EndChar

StartChar: uni013B
Encoding: 247 315 247
Width: 880
Flags: W
LayerCount: 2
Fore
SplineSet
350 255 m 1
 350 255 800 255 800 255 c 1
 800 255 800 0 800 0 c 1
 800 0 720 0 720 0 c 1
 720 0 800 -80 800 -80 c 1
 800 -80 800 -230 800 -230 c 2
 800 -318 728 -390 640 -390 c 2
 640 -390 380 -390 380 -390 c 2
 292 -390 220 -318 220 -230 c 2
 220 -230 220 -155 220 -155 c 1
 220 -155 380 -155 380 -155 c 1
 380 -155 380 -167 380 -167 c 2
 380 -202 408 -230 443 -230 c 2
 443 -230 578 -230 578 -230 c 2
 613 -230 640 -202 640 -167 c 2
 640 -167 640 -150 640 -150 c 1
 640 -150 494 0 494 0 c 1
 494 0 100 0 100 0 c 1
 100 0 100 1400 100 1400 c 1
 100 1400 350 1400 350 1400 c 1
 350 1400 350 255 350 255 c 1
EndSplineSet
Validated: 1
EndChar

StartChar: uni013C
Encoding: 248 316 248
Width: 880
Flags: W
LayerCount: 2
Fore
SplineSet
350 255 m 1
 350 255 800 255 800 255 c 1
 800 255 800 0 800 0 c 1
 800 0 720 0 720 0 c 1
 720 0 800 -80 800 -80 c 1
 800 -80 800 -230 800 -230 c 2
 800 -318 728 -390 640 -390 c 2
 640 -390 380 -390 380 -390 c 2
 292 -390 220 -318 220 -230 c 2
 220 -230 220 -155 220 -155 c 1
 220 -155 380 -155 380 -155 c 1
 380 -155 380 -167 380 -167 c 2
 380 -202 408 -230 443 -230 c 2
 443 -230 578 -230 578 -230 c 2
 613 -230 640 -202 640 -167 c 2
 640 -167 640 -150 640 -150 c 1
 640 -150 494 0 494 0 c 1
 494 0 100 0 100 0 c 1
 100 0 100 1400 100 1400 c 1
 100 1400 350 1400 350 1400 c 1
 350 1400 350 255 350 255 c 1
EndSplineSet
Validated: 1
EndChar

StartChar: Lcaron
Encoding: 249 317 249
Width: 880
Flags: W
LayerCount: 2
Fore
SplineSet
350 255 m 1
 350 255 800 255 800 255 c 1
 800 255 800 0 800 0 c 1
 800 0 100 0 100 0 c 1
 100 0 100 1400 100 1400 c 1
 100 1400 350 1400 350 1400 c 1
 350 1400 350 255 350 255 c 1
139 1500 m 1
 139 1500 -45 1800 -45 1800 c 1
 -45 1800 110 1800 110 1800 c 1
 110 1800 226 1618 226 1618 c 1
 226 1618 341 1800 341 1800 c 1
 341 1800 496 1800 496 1800 c 1
 496 1800 312 1500 312 1500 c 1
 312 1500 139 1500 139 1500 c 1
EndSplineSet
Validated: 1
EndChar

StartChar: lcaron
Encoding: 250 318 250
Width: 880
Flags: W
LayerCount: 2
Fore
SplineSet
350 255 m 1
 350 255 800 255 800 255 c 1
 800 255 800 0 800 0 c 1
 800 0 100 0 100 0 c 1
 100 0 100 1400 100 1400 c 1
 100 1400 350 1400 350 1400 c 1
 350 1400 350 255 350 255 c 1
139 1500 m 1
 139 1500 -45 1800 -45 1800 c 1
 -45 1800 110 1800 110 1800 c 1
 110 1800 226 1618 226 1618 c 1
 226 1618 341 1800 341 1800 c 1
 341 1800 496 1800 496 1800 c 1
 496 1800 312 1500 312 1500 c 1
 312 1500 139 1500 139 1500 c 1
EndSplineSet
Validated: 1
EndChar

StartChar: Ldot
Encoding: 251 319 251
Width: 880
Flags: W
LayerCount: 2
Fore
SplineSet
350 255 m 1
 350 255 800 255 800 255 c 1
 800 255 800 0 800 0 c 1
 800 0 100 0 100 0 c 1
 100 0 100 1400 100 1400 c 1
 100 1400 350 1400 350 1400 c 1
 350 1400 350 255 350 255 c 1
450 815 m 1
 450 815 680 815 680 815 c 1
 680 815 680 585 680 585 c 1
 680 585 450 585 450 585 c 1
 450 585 450 815 450 815 c 1
EndSplineSet
Validated: 1
EndChar

StartChar: ldot
Encoding: 252 320 252
Width: 880
Flags: W
LayerCount: 2
Fore
SplineSet
350 255 m 1
 350 255 800 255 800 255 c 1
 800 255 800 0 800 0 c 1
 800 0 100 0 100 0 c 1
 100 0 100 1400 100 1400 c 1
 100 1400 350 1400 350 1400 c 1
 350 1400 350 255 350 255 c 1
450 815 m 1
 450 815 680 815 680 815 c 1
 680 815 680 585 680 585 c 1
 680 585 450 585 450 585 c 1
 450 585 450 815 450 815 c 1
EndSplineSet
Validated: 1
EndChar

StartChar: Lslash
Encoding: 253 321 253
Width: 880
Flags: W
LayerCount: 2
Fore
SplineSet
350 255 m 1
 350 255 800 255 800 255 c 1
 800 255 800 0 800 0 c 1
 800 0 100 0 100 0 c 1
 100 0 100 645 100 645 c 1
 100 645 50 645 50 645 c 1
 50 645 50 755 50 755 c 1
 50 755 100 755 100 755 c 1
 100 755 100 1400 100 1400 c 1
 100 1400 350 1400 350 1400 c 1
 350 1400 350 755 350 755 c 1
 350 755 590 755 590 755 c 1
 590 755 590 645 590 645 c 1
 590 645 350 645 350 645 c 1
 350 645 350 255 350 255 c 1
EndSplineSet
Validated: 1
EndChar

StartChar: lslash
Encoding: 254 322 254
Width: 880
Flags: W
LayerCount: 2
Fore
SplineSet
350 255 m 1
 350 255 800 255 800 255 c 1
 800 255 800 0 800 0 c 1
 800 0 100 0 100 0 c 1
 100 0 100 645 100 645 c 1
 100 645 50 645 50 645 c 1
 50 645 50 755 50 755 c 1
 50 755 100 755 100 755 c 1
 100 755 100 1400 100 1400 c 1
 100 1400 350 1400 350 1400 c 1
 350 1400 350 755 350 755 c 1
 350 755 590 755 590 755 c 1
 590 755 590 645 590 645 c 1
 590 645 350 645 350 645 c 1
 350 645 350 255 350 255 c 1
EndSplineSet
Validated: 1
EndChar

StartChar: Nacute
Encoding: 255 323 255
Width: 980
Flags: W
LayerCount: 2
Fore
SplineSet
640 610 m 1
 640 610 640 1400 640 1400 c 1
 640 1400 880 1400 880 1400 c 1
 880 1400 880 0 880 0 c 1
 880 0 670 0 670 0 c 1
 670 0 330 754 330 754 c 1
 330 754 330 0 330 0 c 1
 330 0 100 0 100 0 c 1
 100 0 100 1400 100 1400 c 1
 100 1400 310 1400 310 1400 c 1
 310 1400 640 610 640 610 c 1
680 1750 m 1
 680 1750 480 1490 480 1490 c 1
 480 1490 320 1490 320 1490 c 1
 320 1490 460 1750 460 1750 c 1
 460 1750 680 1750 680 1750 c 1
EndSplineSet
Validated: 1
EndChar

StartChar: nacute
Encoding: 256 324 256
Width: 980
Flags: W
LayerCount: 2
Fore
SplineSet
640 610 m 1
 640 610 640 1400 640 1400 c 1
 640 1400 880 1400 880 1400 c 1
 880 1400 880 0 880 0 c 1
 880 0 670 0 670 0 c 1
 670 0 330 754 330 754 c 1
 330 754 330 0 330 0 c 1
 330 0 100 0 100 0 c 1
 100 0 100 1400 100 1400 c 1
 100 1400 310 1400 310 1400 c 1
 310 1400 640 610 640 610 c 1
680 1750 m 1
 680 1750 480 1490 480 1490 c 1
 480 1490 320 1490 320 1490 c 1
 320 1490 460 1750 460 1750 c 1
 460 1750 680 1750 680 1750 c 1
EndSplineSet
Validated: 1
EndChar

StartChar: uni0145
Encoding: 257 325 257
Width: 1036
Flags: W
LayerCount: 2
Fore
SplineSet
630 630 m 1
 630 630 630 1400 630 1400 c 1
 630 1400 880 1400 880 1400 c 1
 880 1400 880 -24 880 -24 c 1
 880 -24 936 -80 936 -80 c 1
 936 -80 936 -230 936 -230 c 2
 936 -318 864 -390 776 -390 c 2
 776 -390 516 -390 516 -390 c 2
 428 -390 356 -318 356 -230 c 2
 356 -230 356 -155 356 -155 c 1
 356 -155 516 -155 516 -155 c 1
 516 -155 516 -167 516 -167 c 2
 516 -202 544 -230 579 -230 c 2
 579 -230 714 -230 714 -230 c 2
 749 -230 776 -202 776 -167 c 2
 776 -167 776 -150 776 -150 c 1
 776 -150 630 0 630 0 c 1
 630 0 350 734 350 734 c 1
 350 734 350 0 350 0 c 1
 350 0 100 0 100 0 c 1
 100 0 100 1400 100 1400 c 1
 100 1400 350 1400 350 1400 c 1
 350 1400 630 630 630 630 c 1
EndSplineSet
Validated: 1
EndChar

StartChar: uni0146
Encoding: 258 326 258
Width: 1036
Flags: W
LayerCount: 2
Fore
SplineSet
630 630 m 1
 630 630 630 1400 630 1400 c 1
 630 1400 880 1400 880 1400 c 1
 880 1400 880 -24 880 -24 c 1
 880 -24 936 -80 936 -80 c 1
 936 -80 936 -230 936 -230 c 2
 936 -318 864 -390 776 -390 c 2
 776 -390 516 -390 516 -390 c 2
 428 -390 356 -318 356 -230 c 2
 356 -230 356 -155 356 -155 c 1
 356 -155 516 -155 516 -155 c 1
 516 -155 516 -167 516 -167 c 2
 516 -202 544 -230 579 -230 c 2
 579 -230 714 -230 714 -230 c 2
 749 -230 776 -202 776 -167 c 2
 776 -167 776 -150 776 -150 c 1
 776 -150 630 0 630 0 c 1
 630 0 350 734 350 734 c 1
 350 734 350 0 350 0 c 1
 350 0 100 0 100 0 c 1
 100 0 100 1400 100 1400 c 1
 100 1400 350 1400 350 1400 c 1
 350 1400 630 630 630 630 c 1
EndSplineSet
Validated: 1
EndChar

StartChar: Ncaron
Encoding: 259 327 259
Width: 980
Flags: W
LayerCount: 2
Fore
SplineSet
640 610 m 1
 640 610 640 1400 640 1400 c 1
 640 1400 880 1400 880 1400 c 1
 880 1400 880 0 880 0 c 1
 880 0 670 0 670 0 c 1
 670 0 330 754 330 754 c 1
 330 754 330 0 330 0 c 1
 330 0 100 0 100 0 c 1
 100 0 100 1400 100 1400 c 1
 100 1400 310 1400 310 1400 c 1
 310 1400 640 610 640 610 c 1
404 1500 m 1
 404 1500 220 1800 220 1800 c 1
 220 1800 375 1800 375 1800 c 1
 375 1800 491 1618 491 1618 c 1
 491 1618 606 1800 606 1800 c 1
 606 1800 761 1800 761 1800 c 1
 761 1800 577 1500 577 1500 c 1
 577 1500 404 1500 404 1500 c 1
EndSplineSet
Validated: 1
EndChar

StartChar: ncaron
Encoding: 260 328 260
Width: 980
Flags: W
LayerCount: 2
Fore
SplineSet
640 610 m 1
 640 610 640 1400 640 1400 c 1
 640 1400 880 1400 880 1400 c 1
 880 1400 880 0 880 0 c 1
 880 0 670 0 670 0 c 1
 670 0 330 754 330 754 c 1
 330 754 330 0 330 0 c 1
 330 0 100 0 100 0 c 1
 100 0 100 1400 100 1400 c 1
 100 1400 310 1400 310 1400 c 1
 310 1400 640 610 640 610 c 1
404 1500 m 1
 404 1500 220 1800 220 1800 c 1
 220 1800 375 1800 375 1800 c 1
 375 1800 491 1618 491 1618 c 1
 491 1618 606 1800 606 1800 c 1
 606 1800 761 1800 761 1800 c 1
 761 1800 577 1500 577 1500 c 1
 577 1500 404 1500 404 1500 c 1
EndSplineSet
Validated: 1
EndChar

StartChar: napostrophe
Encoding: 261 329 261
Width: 1300
Flags: W
LayerCount: 2
Fore
SplineSet
960 610 m 1
 960 610 960 1400 960 1400 c 1
 960 1400 1200 1400 1200 1400 c 1
 1200 1400 1200 0 1200 0 c 1
 1200 0 990 0 990 0 c 1
 990 0 650 754 650 754 c 1
 650 754 650 0 650 0 c 1
 650 0 420 0 420 0 c 1
 420 0 420 1400 420 1400 c 1
 420 1400 630 1400 630 1400 c 1
 630 1400 960 610 960 610 c 1
270 990 m 1
 270 990 160 990 160 990 c 1
 160 990 100 1220 100 1220 c 1
 100 1220 100 1450 100 1450 c 1
 100 1450 330 1450 330 1450 c 1
 330 1450 330 1220 330 1220 c 1
 330 1220 270 990 270 990 c 1
EndSplineSet
Validated: 1
EndChar

StartChar: Eng
Encoding: 262 330 262
Width: 980
Flags: W
LayerCount: 2
Fore
SplineSet
630 1400 m 1
 630 1400 880 1400 880 1400 c 1
 880 1400 880 -50 880 -50 c 2
 880 -188 768 -300 630 -300 c 2
 630 -300 500 -300 500 -300 c 1
 500 -300 500 -70 500 -70 c 1
 500 -70 628 -70 628 -70 c 2
 639 -70 649 -61 649 -50 c 2
 649 -50 350 733 350 733 c 1
 350 733 350 0 350 0 c 1
 350 0 100 0 100 0 c 1
 100 0 100 1400 100 1400 c 1
 100 1400 350 1400 350 1400 c 1
 350 1400 630 630 630 630 c 1
 630 630 630 1400 630 1400 c 1
EndSplineSet
Validated: 1
EndChar

StartChar: eng
Encoding: 263 331 263
Width: 980
Flags: W
LayerCount: 2
Fore
SplineSet
630 1400 m 1
 630 1400 880 1400 880 1400 c 1
 880 1400 880 -50 880 -50 c 2
 880 -188 768 -300 630 -300 c 2
 630 -300 500 -300 500 -300 c 1
 500 -300 500 -70 500 -70 c 1
 500 -70 628 -70 628 -70 c 2
 639 -70 649 -61 649 -50 c 2
 649 -50 350 733 350 733 c 1
 350 733 350 0 350 0 c 1
 350 0 100 0 100 0 c 1
 100 0 100 1400 100 1400 c 1
 100 1400 350 1400 350 1400 c 1
 350 1400 630 630 630 630 c 1
 630 630 630 1400 630 1400 c 1
EndSplineSet
Validated: 1
EndChar

StartChar: Omacron
Encoding: 264 332 264
Width: 940
Flags: W
LayerCount: 2
Fore
SplineSet
840 1255 m 2
 840 1255 840 145 840 145 c 2
 840 65 775 0 695 0 c 2
 695 0 245 0 245 0 c 2
 165 0 100 65 100 145 c 2
 100 145 100 1255 100 1255 c 2
 100 1335 165 1400 245 1400 c 2
 245 1400 695 1400 695 1400 c 2
 775 1400 840 1335 840 1255 c 2
350 250 m 1
 350 250 590 250 590 250 c 1
 590 250 590 1150 590 1150 c 1
 590 1150 350 1150 350 1150 c 1
 350 1150 350 250 350 250 c 1
250 1640 m 1
 250 1640 690 1640 690 1640 c 1
 690 1640 690 1530 690 1530 c 1
 690 1530 250 1530 250 1530 c 1
 250 1530 250 1640 250 1640 c 1
EndSplineSet
Validated: 1
EndChar

StartChar: omacron
Encoding: 265 333 265
Width: 940
Flags: W
LayerCount: 2
Fore
SplineSet
840 1255 m 2
 840 1255 840 145 840 145 c 2
 840 65 775 0 695 0 c 2
 695 0 245 0 245 0 c 2
 165 0 100 65 100 145 c 2
 100 145 100 1255 100 1255 c 2
 100 1335 165 1400 245 1400 c 2
 245 1400 695 1400 695 1400 c 2
 775 1400 840 1335 840 1255 c 2
350 250 m 1
 350 250 590 250 590 250 c 1
 590 250 590 1150 590 1150 c 1
 590 1150 350 1150 350 1150 c 1
 350 1150 350 250 350 250 c 1
250 1640 m 1
 250 1640 690 1640 690 1640 c 1
 690 1640 690 1530 690 1530 c 1
 690 1530 250 1530 250 1530 c 1
 250 1530 250 1640 250 1640 c 1
EndSplineSet
Validated: 1
EndChar

StartChar: Obreve
Encoding: 266 334 266
Width: 940
Flags: W
LayerCount: 2
Fore
SplineSet
840 1255 m 2
 840 1255 840 145 840 145 c 2
 840 65 775 0 695 0 c 2
 695 0 245 0 245 0 c 2
 165 0 100 65 100 145 c 2
 100 145 100 1255 100 1255 c 2
 100 1335 165 1400 245 1400 c 2
 245 1400 695 1400 695 1400 c 2
 775 1400 840 1335 840 1255 c 2
350 250 m 1
 350 250 590 250 590 250 c 1
 590 250 590 1150 590 1150 c 1
 590 1150 350 1150 350 1150 c 1
 350 1150 350 250 350 250 c 1
470 1504 m 0
 374 1504 289 1575 274 1667 c 1
 274 1667 385 1700 385 1700 c 1
 385 1656 426 1619 470 1619 c 0
 514 1619 555 1656 555 1700 c 1
 555 1700 666 1667 666 1667 c 1
 651 1575 566 1504 470 1504 c 0
EndSplineSet
Validated: 1
EndChar

StartChar: obreve
Encoding: 267 335 267
Width: 940
Flags: W
LayerCount: 2
Fore
SplineSet
840 1255 m 2
 840 1255 840 145 840 145 c 2
 840 65 775 0 695 0 c 2
 695 0 245 0 245 0 c 2
 165 0 100 65 100 145 c 2
 100 145 100 1255 100 1255 c 2
 100 1335 165 1400 245 1400 c 2
 245 1400 695 1400 695 1400 c 2
 775 1400 840 1335 840 1255 c 2
350 250 m 1
 350 250 590 250 590 250 c 1
 590 250 590 1150 590 1150 c 1
 590 1150 350 1150 350 1150 c 1
 350 1150 350 250 350 250 c 1
470 1504 m 0
 374 1504 289 1575 274 1667 c 1
 274 1667 385 1700 385 1700 c 1
 385 1656 426 1619 470 1619 c 0
 514 1619 555 1656 555 1700 c 1
 555 1700 666 1667 666 1667 c 1
 651 1575 566 1504 470 1504 c 0
EndSplineSet
Validated: 1
EndChar

StartChar: Ohungarumlaut
Encoding: 268 336 268
Width: 940
Flags: W
LayerCount: 2
Fore
SplineSet
840 1255 m 2
 840 1255 840 145 840 145 c 2
 840 65 775 0 695 0 c 2
 695 0 245 0 245 0 c 2
 165 0 100 65 100 145 c 2
 100 145 100 1255 100 1255 c 2
 100 1335 165 1400 245 1400 c 2
 245 1400 695 1400 695 1400 c 2
 775 1400 840 1335 840 1255 c 2
350 250 m 1
 350 250 590 250 590 250 c 1
 590 250 590 1150 590 1150 c 1
 590 1150 350 1150 350 1150 c 1
 350 1150 350 250 350 250 c 1
540 1750 m 1
 540 1750 340 1490 340 1490 c 1
 340 1490 180 1490 180 1490 c 1
 180 1490 320 1750 320 1750 c 1
 320 1750 540 1750 540 1750 c 1
840 1750 m 1
 840 1750 640 1490 640 1490 c 1
 640 1490 480 1490 480 1490 c 1
 480 1490 620 1750 620 1750 c 1
 620 1750 840 1750 840 1750 c 1
EndSplineSet
Validated: 1
EndChar

StartChar: ohungarumlaut
Encoding: 269 337 269
Width: 940
Flags: W
LayerCount: 2
Fore
SplineSet
840 1255 m 2
 840 1255 840 145 840 145 c 2
 840 65 775 0 695 0 c 2
 695 0 245 0 245 0 c 2
 165 0 100 65 100 145 c 2
 100 145 100 1255 100 1255 c 2
 100 1335 165 1400 245 1400 c 2
 245 1400 695 1400 695 1400 c 2
 775 1400 840 1335 840 1255 c 2
350 250 m 1
 350 250 590 250 590 250 c 1
 590 250 590 1150 590 1150 c 1
 590 1150 350 1150 350 1150 c 1
 350 1150 350 250 350 250 c 1
540 1750 m 1
 540 1750 340 1490 340 1490 c 1
 340 1490 180 1490 180 1490 c 1
 180 1490 320 1750 320 1750 c 1
 320 1750 540 1750 540 1750 c 1
840 1750 m 1
 840 1750 640 1490 640 1490 c 1
 640 1490 480 1490 480 1490 c 1
 480 1490 620 1750 620 1750 c 1
 620 1750 840 1750 840 1750 c 1
EndSplineSet
Validated: 1
EndChar

StartChar: OE
Encoding: 270 338 270
Width: 1529
Flags: W
LayerCount: 2
Fore
SplineSet
967 240 m 1
 967 240 1429 240 1429 240 c 1
 1429 240 1429 0 1429 0 c 1
 1429 0 717 0 717 0 c 1
 717 0 717 42 717 42 c 1
 690 15 653 0 615 0 c 2
 615 0 245 0 245 0 c 2
 165 0 100 65 100 145 c 2
 100 145 100 1255 100 1255 c 2
 100 1335 165 1400 245 1400 c 2
 245 1400 615 1400 615 1400 c 2
 653 1400 690 1385 717 1358 c 1
 717 1358 717 1400 717 1400 c 1
 717 1400 1428 1400 1428 1400 c 1
 1428 1400 1428 1170 1428 1170 c 1
 1428 1170 967 1170 967 1170 c 1
 967 1170 967 820 967 820 c 1
 967 820 1347 820 1347 820 c 1
 1347 820 1347 580 1347 580 c 1
 1347 580 967 580 967 580 c 1
 967 580 967 240 967 240 c 1
717 1087 m 2
 717 1122 690 1150 655 1150 c 2
 655 1150 412 1150 412 1150 c 2
 377 1150 350 1122 350 1087 c 2
 350 1087 350 313 350 313 c 2
 350 278 377 250 412 250 c 2
 412 250 655 250 655 250 c 2
 690 250 717 278 717 313 c 2
 717 313 717 1087 717 1087 c 2
EndSplineSet
Validated: 1
EndChar

StartChar: oe
Encoding: 271 339 271
Width: 1529
Flags: W
LayerCount: 2
Fore
SplineSet
967 240 m 1
 967 240 1429 240 1429 240 c 1
 1429 240 1429 0 1429 0 c 1
 1429 0 717 0 717 0 c 1
 717 0 717 42 717 42 c 1
 690 15 653 0 615 0 c 2
 615 0 245 0 245 0 c 2
 165 0 100 65 100 145 c 2
 100 145 100 1255 100 1255 c 2
 100 1335 165 1400 245 1400 c 2
 245 1400 615 1400 615 1400 c 2
 653 1400 690 1385 717 1358 c 1
 717 1358 717 1400 717 1400 c 1
 717 1400 1428 1400 1428 1400 c 1
 1428 1400 1428 1170 1428 1170 c 1
 1428 1170 967 1170 967 1170 c 1
 967 1170 967 820 967 820 c 1
 967 820 1347 820 1347 820 c 1
 1347 820 1347 580 1347 580 c 1
 1347 580 967 580 967 580 c 1
 967 580 967 240 967 240 c 1
717 1087 m 2
 717 1122 690 1150 655 1150 c 2
 655 1150 412 1150 412 1150 c 2
 377 1150 350 1122 350 1087 c 2
 350 1087 350 313 350 313 c 2
 350 278 377 250 412 250 c 2
 412 250 655 250 655 250 c 2
 690 250 717 278 717 313 c 2
 717 313 717 1087 717 1087 c 2
EndSplineSet
Validated: 1
EndChar

StartChar: Racute
Encoding: 272 340 272
Width: 883
Flags: W
LayerCount: 2
Fore
SplineSet
350 0 m 1
 350 0 100 0 100 0 c 1
 100 0 100 1400 100 1400 c 1
 100 1400 635 1400 635 1400 c 2
 715 1400 780 1335 780 1255 c 2
 780 1255 780 745 780 745 c 2
 780 697 756 652 716 625 c 1
 756 598 780 553 780 505 c 2
 780 505 780 144 780 144 c 2
 780 91 809 43 855 18 c 0
 858 16 863 14 863 8 c 0
 863 2 860 0 855 0 c 2
 855 0 684 0 684 0 c 2
 604 0 540 64 540 144 c 2
 540 144 540 520 540 520 c 1
 540 520 350 520 350 520 c 1
 350 520 350 0 350 0 c 1
350 740 m 1
 350 740 540 740 540 740 c 1
 540 740 540 1150 540 1150 c 1
 540 1150 350 1150 350 1150 c 1
 350 1150 350 740 350 740 c 1
660 1750 m 1
 660 1750 460 1490 460 1490 c 1
 460 1490 300 1490 300 1490 c 1
 300 1490 440 1750 440 1750 c 1
 440 1750 660 1750 660 1750 c 1
EndSplineSet
Validated: 1
EndChar

StartChar: racute
Encoding: 273 341 273
Width: 883
Flags: W
LayerCount: 2
Fore
SplineSet
350 0 m 1
 350 0 100 0 100 0 c 1
 100 0 100 1400 100 1400 c 1
 100 1400 635 1400 635 1400 c 2
 715 1400 780 1335 780 1255 c 2
 780 1255 780 745 780 745 c 2
 780 697 756 652 716 625 c 1
 756 598 780 553 780 505 c 2
 780 505 780 144 780 144 c 2
 780 91 809 43 855 18 c 0
 858 16 863 14 863 8 c 0
 863 2 860 0 855 0 c 2
 855 0 684 0 684 0 c 2
 604 0 540 64 540 144 c 2
 540 144 540 520 540 520 c 1
 540 520 350 520 350 520 c 1
 350 520 350 0 350 0 c 1
350 740 m 1
 350 740 540 740 540 740 c 1
 540 740 540 1150 540 1150 c 1
 540 1150 350 1150 350 1150 c 1
 350 1150 350 740 350 740 c 1
660 1750 m 1
 660 1750 460 1490 460 1490 c 1
 460 1490 300 1490 300 1490 c 1
 300 1490 440 1750 440 1750 c 1
 440 1750 660 1750 660 1750 c 1
EndSplineSet
Validated: 1
EndChar

StartChar: uni0156
Encoding: 274 342 274
Width: 866
Flags: W
LayerCount: 2
Fore
SplineSet
780 -14 m 1
 780 -14 846 -80 846 -80 c 1
 846 -80 846 -230 846 -230 c 2
 846 -318 774 -390 686 -390 c 2
 686 -390 426 -390 426 -390 c 2
 338 -390 266 -318 266 -230 c 2
 266 -230 266 -155 266 -155 c 1
 266 -155 426 -155 426 -155 c 1
 426 -155 426 -167 426 -167 c 2
 426 -202 454 -230 489 -230 c 2
 489 -230 624 -230 624 -230 c 2
 659 -230 686 -202 686 -167 c 2
 686 -167 686 -150 686 -150 c 1
 686 -150 540 0 540 0 c 1
 540 0 540 520 540 520 c 1
 540 520 350 520 350 520 c 1
 350 520 350 0 350 0 c 1
 350 0 100 0 100 0 c 1
 100 0 100 1400 100 1400 c 1
 100 1400 635 1400 635 1400 c 2
 715 1400 780 1335 780 1255 c 2
 780 1255 780 745 780 745 c 2
 780 697 756 652 716 625 c 1
 756 598 780 553 780 505 c 2
 780 505 780 -14 780 -14 c 1
350 740 m 1
 350 740 540 740 540 740 c 1
 540 740 540 1150 540 1150 c 1
 540 1150 350 1150 350 1150 c 1
 350 1150 350 740 350 740 c 1
EndSplineSet
Validated: 1
EndChar

StartChar: uni0157
Encoding: 275 343 275
Width: 866
Flags: W
LayerCount: 2
Fore
SplineSet
780 -14 m 1
 780 -14 846 -80 846 -80 c 1
 846 -80 846 -230 846 -230 c 2
 846 -318 774 -390 686 -390 c 2
 686 -390 426 -390 426 -390 c 2
 338 -390 266 -318 266 -230 c 2
 266 -230 266 -155 266 -155 c 1
 266 -155 426 -155 426 -155 c 1
 426 -155 426 -167 426 -167 c 2
 426 -202 454 -230 489 -230 c 2
 489 -230 624 -230 624 -230 c 2
 659 -230 686 -202 686 -167 c 2
 686 -167 686 -150 686 -150 c 1
 686 -150 540 0 540 0 c 1
 540 0 540 520 540 520 c 1
 540 520 350 520 350 520 c 1
 350 520 350 0 350 0 c 1
 350 0 100 0 100 0 c 1
 100 0 100 1400 100 1400 c 1
 100 1400 635 1400 635 1400 c 2
 715 1400 780 1335 780 1255 c 2
 780 1255 780 745 780 745 c 2
 780 697 756 652 716 625 c 1
 756 598 780 553 780 505 c 2
 780 505 780 -14 780 -14 c 1
350 740 m 1
 350 740 540 740 540 740 c 1
 540 740 540 1150 540 1150 c 1
 540 1150 350 1150 350 1150 c 1
 350 1150 350 740 350 740 c 1
EndSplineSet
Validated: 1
EndChar

StartChar: Rcaron
Encoding: 276 344 276
Width: 883
Flags: W
LayerCount: 2
Fore
SplineSet
350 0 m 1
 350 0 100 0 100 0 c 1
 100 0 100 1400 100 1400 c 1
 100 1400 635 1400 635 1400 c 2
 715 1400 780 1335 780 1255 c 2
 780 1255 780 745 780 745 c 2
 780 697 756 652 716 625 c 1
 756 598 780 553 780 505 c 2
 780 505 780 144 780 144 c 2
 780 91 809 43 855 18 c 0
 858 16 863 14 863 8 c 0
 863 2 860 0 855 0 c 2
 855 0 684 0 684 0 c 2
 604 0 540 64 540 144 c 2
 540 144 540 520 540 520 c 1
 540 520 350 520 350 520 c 1
 350 520 350 0 350 0 c 1
350 740 m 1
 350 740 540 740 540 740 c 1
 540 740 540 1150 540 1150 c 1
 540 1150 350 1150 350 1150 c 1
 350 1150 350 740 350 740 c 1
354 1500 m 1
 354 1500 170 1800 170 1800 c 1
 170 1800 325 1800 325 1800 c 1
 325 1800 441 1618 441 1618 c 1
 441 1618 556 1800 556 1800 c 1
 556 1800 711 1800 711 1800 c 1
 711 1800 527 1500 527 1500 c 1
 527 1500 354 1500 354 1500 c 1
EndSplineSet
Validated: 1
EndChar

StartChar: rcaron
Encoding: 277 345 277
Width: 883
Flags: W
LayerCount: 2
Fore
SplineSet
350 0 m 1
 350 0 100 0 100 0 c 1
 100 0 100 1400 100 1400 c 1
 100 1400 635 1400 635 1400 c 2
 715 1400 780 1335 780 1255 c 2
 780 1255 780 745 780 745 c 2
 780 697 756 652 716 625 c 1
 756 598 780 553 780 505 c 2
 780 505 780 144 780 144 c 2
 780 91 809 43 855 18 c 0
 858 16 863 14 863 8 c 0
 863 2 860 0 855 0 c 2
 855 0 684 0 684 0 c 2
 604 0 540 64 540 144 c 2
 540 144 540 520 540 520 c 1
 540 520 350 520 350 520 c 1
 350 520 350 0 350 0 c 1
350 740 m 1
 350 740 540 740 540 740 c 1
 540 740 540 1150 540 1150 c 1
 540 1150 350 1150 350 1150 c 1
 350 1150 350 740 350 740 c 1
354 1500 m 1
 354 1500 170 1800 170 1800 c 1
 170 1800 325 1800 325 1800 c 1
 325 1800 441 1618 441 1618 c 1
 441 1618 556 1800 556 1800 c 1
 556 1800 711 1800 711 1800 c 1
 711 1800 527 1500 527 1500 c 1
 527 1500 354 1500 354 1500 c 1
EndSplineSet
Validated: 1
EndChar

StartChar: Sacute
Encoding: 278 346 278
Width: 940
Flags: W
LayerCount: 2
Fore
SplineSet
100 150 m 2
 100 150 100 463 100 463 c 1
 100 463 340 463 340 463 c 1
 340 463 340 261 340 261 c 2
 340 249 349 240 361 240 c 2
 361 240 579 240 579 240 c 2
 591 240 600 249 600 261 c 2
 600 261 600 559 600 559 c 2
 600 571 591 580 579 580 c 2
 579 580 250 580 250 580 c 2
 167 580 100 648 100 731 c 2
 100 731 100 1250 100 1250 c 2
 100 1333 167 1400 250 1400 c 2
 250 1400 690 1400 690 1400 c 2
 773 1400 840 1333 840 1250 c 2
 840 1250 840 980 840 980 c 1
 840 980 600 980 600 980 c 1
 600 980 600 1139 600 1139 c 2
 600 1151 591 1160 579 1160 c 2
 579 1160 361 1160 361 1160 c 2
 349 1160 340 1151 340 1139 c 2
 340 1139 340 841 340 841 c 2
 340 829 349 820 361 820 c 2
 361 820 690 820 690 820 c 2
 773 820 840 753 840 670 c 2
 840 670 840 150 840 150 c 2
 840 67 773 0 690 0 c 2
 690 0 250 0 250 0 c 2
 167 0 100 67 100 150 c 2
650 1750 m 1
 650 1750 450 1490 450 1490 c 1
 450 1490 290 1490 290 1490 c 1
 290 1490 430 1750 430 1750 c 1
 430 1750 650 1750 650 1750 c 1
EndSplineSet
Validated: 1
EndChar

StartChar: sacute
Encoding: 279 347 279
Width: 940
Flags: W
LayerCount: 2
Fore
SplineSet
100 150 m 2
 100 150 100 463 100 463 c 1
 100 463 340 463 340 463 c 1
 340 463 340 261 340 261 c 2
 340 249 349 240 361 240 c 2
 361 240 579 240 579 240 c 2
 591 240 600 249 600 261 c 2
 600 261 600 559 600 559 c 2
 600 571 591 580 579 580 c 2
 579 580 250 580 250 580 c 2
 167 580 100 648 100 731 c 2
 100 731 100 1250 100 1250 c 2
 100 1333 167 1400 250 1400 c 2
 250 1400 690 1400 690 1400 c 2
 773 1400 840 1333 840 1250 c 2
 840 1250 840 980 840 980 c 1
 840 980 600 980 600 980 c 1
 600 980 600 1139 600 1139 c 2
 600 1151 591 1160 579 1160 c 2
 579 1160 361 1160 361 1160 c 2
 349 1160 340 1151 340 1139 c 2
 340 1139 340 841 340 841 c 2
 340 829 349 820 361 820 c 2
 361 820 690 820 690 820 c 2
 773 820 840 753 840 670 c 2
 840 670 840 150 840 150 c 2
 840 67 773 0 690 0 c 2
 690 0 250 0 250 0 c 2
 167 0 100 67 100 150 c 2
650 1750 m 1
 650 1750 450 1490 450 1490 c 1
 450 1490 290 1490 290 1490 c 1
 290 1490 430 1750 430 1750 c 1
 430 1750 650 1750 650 1750 c 1
EndSplineSet
Validated: 1
EndChar

StartChar: Scircumflex
Encoding: 280 348 280
Width: 940
Flags: W
LayerCount: 2
Fore
SplineSet
100 150 m 2
 100 150 100 463 100 463 c 1
 100 463 340 463 340 463 c 1
 340 463 340 261 340 261 c 2
 340 249 349 240 361 240 c 2
 361 240 579 240 579 240 c 2
 591 240 600 249 600 261 c 2
 600 261 600 559 600 559 c 2
 600 571 591 580 579 580 c 2
 579 580 250 580 250 580 c 2
 167 580 100 648 100 731 c 2
 100 731 100 1250 100 1250 c 2
 100 1333 167 1400 250 1400 c 2
 250 1400 690 1400 690 1400 c 2
 773 1400 840 1333 840 1250 c 2
 840 1250 840 980 840 980 c 1
 840 980 600 980 600 980 c 1
 600 980 600 1139 600 1139 c 2
 600 1151 591 1160 579 1160 c 2
 579 1160 361 1160 361 1160 c 2
 349 1160 340 1151 340 1139 c 2
 340 1139 340 841 340 841 c 2
 340 829 349 820 361 820 c 2
 361 820 690 820 690 820 c 2
 773 820 840 753 840 670 c 2
 840 670 840 150 840 150 c 2
 840 67 773 0 690 0 c 2
 690 0 250 0 250 0 c 2
 167 0 100 67 100 150 c 2
384 1800 m 1
 384 1800 557 1800 557 1800 c 1
 557 1800 741 1500 741 1500 c 1
 741 1500 586 1500 586 1500 c 1
 586 1500 471 1682 471 1682 c 1
 471 1682 355 1500 355 1500 c 1
 355 1500 200 1500 200 1500 c 1
 200 1500 384 1800 384 1800 c 1
EndSplineSet
Validated: 1
EndChar

StartChar: scircumflex
Encoding: 281 349 281
Width: 940
Flags: W
LayerCount: 2
Fore
SplineSet
100 150 m 2
 100 150 100 463 100 463 c 1
 100 463 340 463 340 463 c 1
 340 463 340 261 340 261 c 2
 340 249 349 240 361 240 c 2
 361 240 579 240 579 240 c 2
 591 240 600 249 600 261 c 2
 600 261 600 559 600 559 c 2
 600 571 591 580 579 580 c 2
 579 580 250 580 250 580 c 2
 167 580 100 648 100 731 c 2
 100 731 100 1250 100 1250 c 2
 100 1333 167 1400 250 1400 c 2
 250 1400 690 1400 690 1400 c 2
 773 1400 840 1333 840 1250 c 2
 840 1250 840 980 840 980 c 1
 840 980 600 980 600 980 c 1
 600 980 600 1139 600 1139 c 2
 600 1151 591 1160 579 1160 c 2
 579 1160 361 1160 361 1160 c 2
 349 1160 340 1151 340 1139 c 2
 340 1139 340 841 340 841 c 2
 340 829 349 820 361 820 c 2
 361 820 690 820 690 820 c 2
 773 820 840 753 840 670 c 2
 840 670 840 150 840 150 c 2
 840 67 773 0 690 0 c 2
 690 0 250 0 250 0 c 2
 167 0 100 67 100 150 c 2
384 1800 m 1
 384 1800 557 1800 557 1800 c 1
 557 1800 741 1500 741 1500 c 1
 741 1500 586 1500 586 1500 c 1
 586 1500 471 1682 471 1682 c 1
 471 1682 355 1500 355 1500 c 1
 355 1500 200 1500 200 1500 c 1
 200 1500 384 1800 384 1800 c 1
EndSplineSet
Validated: 1
EndChar

StartChar: Scedilla
Encoding: 282 350 282
Width: 940
Flags: W
LayerCount: 2
Fore
SplineSet
464 0 m 1
 464 0 250 0 250 0 c 2
 167 0 100 67 100 150 c 2
 100 150 100 463 100 463 c 1
 100 463 340 463 340 463 c 1
 340 463 340 261 340 261 c 2
 340 249 349 240 361 240 c 2
 361 240 579 240 579 240 c 2
 591 240 600 249 600 261 c 2
 600 261 600 559 600 559 c 2
 600 571 591 580 579 580 c 2
 579 580 250 580 250 580 c 2
 167 580 100 648 100 731 c 2
 100 731 100 1250 100 1250 c 2
 100 1333 167 1400 250 1400 c 2
 250 1400 690 1400 690 1400 c 2
 773 1400 840 1333 840 1250 c 2
 840 1250 840 980 840 980 c 1
 840 980 600 980 600 980 c 1
 600 980 600 1139 600 1139 c 2
 600 1151 591 1160 579 1160 c 2
 579 1160 361 1160 361 1160 c 2
 349 1160 340 1151 340 1139 c 2
 340 1139 340 841 340 841 c 2
 340 829 349 820 361 820 c 2
 361 820 690 820 690 820 c 2
 773 820 840 753 840 670 c 2
 840 670 840 150 840 150 c 2
 840 67 773 0 690 0 c 1
 690 0 770 -80 770 -80 c 1
 770 -80 770 -230 770 -230 c 2
 770 -318 698 -390 610 -390 c 2
 610 -390 350 -390 350 -390 c 2
 262 -390 190 -318 190 -230 c 2
 190 -230 190 -155 190 -155 c 1
 190 -155 350 -155 350 -155 c 1
 350 -155 350 -167 350 -167 c 2
 350 -202 378 -230 413 -230 c 2
 413 -230 548 -230 548 -230 c 2
 583 -230 610 -202 610 -167 c 2
 610 -167 610 -150 610 -150 c 1
 610 -150 464 0 464 0 c 1
EndSplineSet
Validated: 1
EndChar

StartChar: scedilla
Encoding: 283 351 283
Width: 940
Flags: W
LayerCount: 2
Fore
SplineSet
464 0 m 1
 464 0 250 0 250 0 c 2
 167 0 100 67 100 150 c 2
 100 150 100 463 100 463 c 1
 100 463 340 463 340 463 c 1
 340 463 340 261 340 261 c 2
 340 249 349 240 361 240 c 2
 361 240 579 240 579 240 c 2
 591 240 600 249 600 261 c 2
 600 261 600 559 600 559 c 2
 600 571 591 580 579 580 c 2
 579 580 250 580 250 580 c 2
 167 580 100 648 100 731 c 2
 100 731 100 1250 100 1250 c 2
 100 1333 167 1400 250 1400 c 2
 250 1400 690 1400 690 1400 c 2
 773 1400 840 1333 840 1250 c 2
 840 1250 840 980 840 980 c 1
 840 980 600 980 600 980 c 1
 600 980 600 1139 600 1139 c 2
 600 1151 591 1160 579 1160 c 2
 579 1160 361 1160 361 1160 c 2
 349 1160 340 1151 340 1139 c 2
 340 1139 340 841 340 841 c 2
 340 829 349 820 361 820 c 2
 361 820 690 820 690 820 c 2
 773 820 840 753 840 670 c 2
 840 670 840 150 840 150 c 2
 840 67 773 0 690 0 c 1
 690 0 770 -80 770 -80 c 1
 770 -80 770 -230 770 -230 c 2
 770 -318 698 -390 610 -390 c 2
 610 -390 350 -390 350 -390 c 2
 262 -390 190 -318 190 -230 c 2
 190 -230 190 -155 190 -155 c 1
 190 -155 350 -155 350 -155 c 1
 350 -155 350 -167 350 -167 c 2
 350 -202 378 -230 413 -230 c 2
 413 -230 548 -230 548 -230 c 2
 583 -230 610 -202 610 -167 c 2
 610 -167 610 -150 610 -150 c 1
 610 -150 464 0 464 0 c 1
EndSplineSet
Validated: 1
EndChar

StartChar: Scaron
Encoding: 284 352 284
Width: 940
Flags: W
LayerCount: 2
Fore
SplineSet
100 150 m 2
 100 150 100 463 100 463 c 1
 100 463 340 463 340 463 c 1
 340 463 340 261 340 261 c 2
 340 249 349 240 361 240 c 2
 361 240 579 240 579 240 c 2
 591 240 600 249 600 261 c 2
 600 261 600 559 600 559 c 2
 600 571 591 580 579 580 c 2
 579 580 250 580 250 580 c 2
 167 580 100 648 100 731 c 2
 100 731 100 1250 100 1250 c 2
 100 1333 167 1400 250 1400 c 2
 250 1400 690 1400 690 1400 c 2
 773 1400 840 1333 840 1250 c 2
 840 1250 840 980 840 980 c 1
 840 980 600 980 600 980 c 1
 600 980 600 1139 600 1139 c 2
 600 1151 591 1160 579 1160 c 2
 579 1160 361 1160 361 1160 c 2
 349 1160 340 1151 340 1139 c 2
 340 1139 340 841 340 841 c 2
 340 829 349 820 361 820 c 2
 361 820 690 820 690 820 c 2
 773 820 840 753 840 670 c 2
 840 670 840 150 840 150 c 2
 840 67 773 0 690 0 c 2
 690 0 250 0 250 0 c 2
 167 0 100 67 100 150 c 2
384 1500 m 1
 384 1500 200 1800 200 1800 c 1
 200 1800 355 1800 355 1800 c 1
 355 1800 471 1618 471 1618 c 1
 471 1618 586 1800 586 1800 c 1
 586 1800 741 1800 741 1800 c 1
 741 1800 557 1500 557 1500 c 1
 557 1500 384 1500 384 1500 c 1
EndSplineSet
Validated: 1
EndChar

StartChar: scaron
Encoding: 285 353 285
Width: 940
Flags: W
LayerCount: 2
Fore
SplineSet
100 150 m 2
 100 150 100 463 100 463 c 1
 100 463 340 463 340 463 c 1
 340 463 340 261 340 261 c 2
 340 249 349 240 361 240 c 2
 361 240 579 240 579 240 c 2
 591 240 600 249 600 261 c 2
 600 261 600 559 600 559 c 2
 600 571 591 580 579 580 c 2
 579 580 250 580 250 580 c 2
 167 580 100 648 100 731 c 2
 100 731 100 1250 100 1250 c 2
 100 1333 167 1400 250 1400 c 2
 250 1400 690 1400 690 1400 c 2
 773 1400 840 1333 840 1250 c 2
 840 1250 840 980 840 980 c 1
 840 980 600 980 600 980 c 1
 600 980 600 1139 600 1139 c 2
 600 1151 591 1160 579 1160 c 2
 579 1160 361 1160 361 1160 c 2
 349 1160 340 1151 340 1139 c 2
 340 1139 340 841 340 841 c 2
 340 829 349 820 361 820 c 2
 361 820 690 820 690 820 c 2
 773 820 840 753 840 670 c 2
 840 670 840 150 840 150 c 2
 840 67 773 0 690 0 c 2
 690 0 250 0 250 0 c 2
 167 0 100 67 100 150 c 2
384 1500 m 1
 384 1500 200 1800 200 1800 c 1
 200 1800 355 1800 355 1800 c 1
 355 1800 471 1618 471 1618 c 1
 471 1618 586 1800 586 1800 c 1
 586 1800 741 1800 741 1800 c 1
 741 1800 557 1500 557 1500 c 1
 557 1500 384 1500 384 1500 c 1
EndSplineSet
Validated: 1
EndChar

StartChar: uni0162
Encoding: 286 354 286
Width: 880
Flags: W
LayerCount: 2
Fore
SplineSet
565 -24 m 1
 565 -24 621 -80 621 -80 c 1
 621 -80 621 -230 621 -230 c 2
 621 -318 549 -390 461 -390 c 2
 461 -390 201 -390 201 -390 c 2
 113 -390 41 -318 41 -230 c 2
 41 -230 41 -155 41 -155 c 1
 41 -155 201 -155 201 -155 c 1
 201 -155 201 -167 201 -167 c 2
 201 -202 229 -230 264 -230 c 2
 264 -230 399 -230 399 -230 c 2
 434 -230 461 -202 461 -167 c 2
 461 -167 461 -150 461 -150 c 1
 461 -150 315 0 315 0 c 1
 315 0 315 1160 315 1160 c 1
 315 1160 50 1160 50 1160 c 1
 50 1160 50 1400 50 1400 c 1
 50 1400 830 1400 830 1400 c 1
 830 1400 830 1160 830 1160 c 1
 830 1160 565 1160 565 1160 c 1
 565 1160 565 -24 565 -24 c 1
EndSplineSet
Validated: 1
EndChar

StartChar: uni0163
Encoding: 287 355 287
Width: 880
Flags: W
LayerCount: 2
Fore
SplineSet
565 -24 m 1
 565 -24 621 -80 621 -80 c 1
 621 -80 621 -230 621 -230 c 2
 621 -318 549 -390 461 -390 c 2
 461 -390 201 -390 201 -390 c 2
 113 -390 41 -318 41 -230 c 2
 41 -230 41 -155 41 -155 c 1
 41 -155 201 -155 201 -155 c 1
 201 -155 201 -167 201 -167 c 2
 201 -202 229 -230 264 -230 c 2
 264 -230 399 -230 399 -230 c 2
 434 -230 461 -202 461 -167 c 2
 461 -167 461 -150 461 -150 c 1
 461 -150 315 0 315 0 c 1
 315 0 315 1160 315 1160 c 1
 315 1160 50 1160 50 1160 c 1
 50 1160 50 1400 50 1400 c 1
 50 1400 830 1400 830 1400 c 1
 830 1400 830 1160 830 1160 c 1
 830 1160 565 1160 565 1160 c 1
 565 1160 565 -24 565 -24 c 1
EndSplineSet
Validated: 1
EndChar

StartChar: Tcaron
Encoding: 288 356 288
Width: 880
Flags: W
LayerCount: 2
Fore
SplineSet
315 0 m 1
 315 0 315 1160 315 1160 c 1
 315 1160 50 1160 50 1160 c 1
 50 1160 50 1400 50 1400 c 1
 50 1400 830 1400 830 1400 c 1
 830 1400 830 1160 830 1160 c 1
 830 1160 565 1160 565 1160 c 1
 565 1160 565 0 565 0 c 1
 565 0 315 0 315 0 c 1
404 1500 m 1
 404 1500 220 1800 220 1800 c 1
 220 1800 375 1800 375 1800 c 1
 375 1800 491 1618 491 1618 c 1
 491 1618 606 1800 606 1800 c 1
 606 1800 761 1800 761 1800 c 1
 761 1800 577 1500 577 1500 c 1
 577 1500 404 1500 404 1500 c 1
EndSplineSet
Validated: 1
EndChar

StartChar: tcaron
Encoding: 289 357 289
Width: 880
Flags: W
LayerCount: 2
Fore
SplineSet
315 0 m 1
 315 0 315 1160 315 1160 c 1
 315 1160 50 1160 50 1160 c 1
 50 1160 50 1400 50 1400 c 1
 50 1400 830 1400 830 1400 c 1
 830 1400 830 1160 830 1160 c 1
 830 1160 565 1160 565 1160 c 1
 565 1160 565 0 565 0 c 1
 565 0 315 0 315 0 c 1
354 1500 m 1
 354 1500 170 1800 170 1800 c 1
 170 1800 325 1800 325 1800 c 1
 325 1800 441 1618 441 1618 c 1
 441 1618 556 1800 556 1800 c 1
 556 1800 711 1800 711 1800 c 1
 711 1800 527 1500 527 1500 c 1
 527 1500 354 1500 354 1500 c 1
EndSplineSet
Validated: 1
EndChar

StartChar: Tbar
Encoding: 290 358 290
Width: 880
Flags: W
LayerCount: 2
Fore
SplineSet
315 0 m 1
 315 0 315 645 315 645 c 1
 315 645 220 645 220 645 c 1
 220 645 220 755 220 755 c 1
 220 755 315 755 315 755 c 1
 315 755 315 1160 315 1160 c 1
 315 1160 50 1160 50 1160 c 1
 50 1160 50 1400 50 1400 c 1
 50 1400 830 1400 830 1400 c 1
 830 1400 830 1160 830 1160 c 1
 830 1160 565 1160 565 1160 c 1
 565 1160 565 755 565 755 c 1
 565 755 660 755 660 755 c 1
 660 755 660 645 660 645 c 1
 660 645 565 645 565 645 c 1
 565 645 565 0 565 0 c 1
 565 0 315 0 315 0 c 1
EndSplineSet
Validated: 1
EndChar

StartChar: tbar
Encoding: 291 359 291
Width: 880
Flags: W
LayerCount: 2
Fore
SplineSet
315 0 m 1
 315 0 315 645 315 645 c 1
 315 645 220 645 220 645 c 1
 220 645 220 755 220 755 c 1
 220 755 315 755 315 755 c 1
 315 755 315 1160 315 1160 c 1
 315 1160 50 1160 50 1160 c 1
 50 1160 50 1400 50 1400 c 1
 50 1400 830 1400 830 1400 c 1
 830 1400 830 1160 830 1160 c 1
 830 1160 565 1160 565 1160 c 1
 565 1160 565 755 565 755 c 1
 565 755 660 755 660 755 c 1
 660 755 660 645 660 645 c 1
 660 645 565 645 565 645 c 1
 565 645 565 0 565 0 c 1
 565 0 315 0 315 0 c 1
EndSplineSet
Validated: 1
EndChar

StartChar: Utilde
Encoding: 292 360 292
Width: 970
Flags: W
LayerCount: 2
Fore
SplineSet
350 1400 m 1
 350 1400 350 250 350 250 c 1
 350 250 620 250 620 250 c 1
 620 250 620 1400 620 1400 c 1
 620 1400 870 1400 870 1400 c 1
 870 1400 870 145 870 145 c 2
 870 65 805 0 725 0 c 2
 725 0 245 0 245 0 c 2
 165 0 100 65 100 145 c 2
 100 145 100 1400 100 1400 c 1
 100 1400 350 1400 350 1400 c 1
647 1653 m 1
 647 1653 736 1626 736 1626 c 1
 723 1553 655 1496 579 1496 c 0
 513 1496 459 1535 437 1593 c 1
 426 1608 411 1619 391 1619 c 0
 356 1619 323 1589 323 1553 c 1
 323 1553 234 1580 234 1580 c 1
 246 1653 314 1710 391 1710 c 0
 456 1710 511 1671 532 1613 c 1
 544 1598 558 1587 579 1587 c 0
 614 1587 647 1617 647 1653 c 1
EndSplineSet
Validated: 1
EndChar

StartChar: utilde
Encoding: 293 361 293
Width: 970
Flags: W
LayerCount: 2
Fore
SplineSet
350 1400 m 1
 350 1400 350 250 350 250 c 1
 350 250 620 250 620 250 c 1
 620 250 620 1400 620 1400 c 1
 620 1400 870 1400 870 1400 c 1
 870 1400 870 145 870 145 c 2
 870 65 805 0 725 0 c 2
 725 0 245 0 245 0 c 2
 165 0 100 65 100 145 c 2
 100 145 100 1400 100 1400 c 1
 100 1400 350 1400 350 1400 c 1
647 1653 m 1
 647 1653 736 1626 736 1626 c 1
 723 1553 655 1496 579 1496 c 0
 513 1496 459 1535 437 1593 c 1
 426 1608 411 1619 391 1619 c 0
 356 1619 323 1589 323 1553 c 1
 323 1553 234 1580 234 1580 c 1
 246 1653 314 1710 391 1710 c 0
 456 1710 511 1671 532 1613 c 1
 544 1598 558 1587 579 1587 c 0
 614 1587 647 1617 647 1653 c 1
EndSplineSet
Validated: 1
EndChar

StartChar: Umacron
Encoding: 294 362 294
Width: 970
Flags: W
LayerCount: 2
Fore
SplineSet
350 1400 m 1
 350 1400 350 250 350 250 c 1
 350 250 620 250 620 250 c 1
 620 250 620 1400 620 1400 c 1
 620 1400 870 1400 870 1400 c 1
 870 1400 870 145 870 145 c 2
 870 65 805 0 725 0 c 2
 725 0 245 0 245 0 c 2
 165 0 100 65 100 145 c 2
 100 145 100 1400 100 1400 c 1
 100 1400 350 1400 350 1400 c 1
265 1640 m 1
 265 1640 705 1640 705 1640 c 1
 705 1640 705 1530 705 1530 c 1
 705 1530 265 1530 265 1530 c 1
 265 1530 265 1640 265 1640 c 1
EndSplineSet
Validated: 1
EndChar

StartChar: umacron
Encoding: 295 363 295
Width: 970
Flags: W
LayerCount: 2
Fore
SplineSet
350 1400 m 1
 350 1400 350 250 350 250 c 1
 350 250 620 250 620 250 c 1
 620 250 620 1400 620 1400 c 1
 620 1400 870 1400 870 1400 c 1
 870 1400 870 145 870 145 c 2
 870 65 805 0 725 0 c 2
 725 0 245 0 245 0 c 2
 165 0 100 65 100 145 c 2
 100 145 100 1400 100 1400 c 1
 100 1400 350 1400 350 1400 c 1
265 1640 m 1
 265 1640 705 1640 705 1640 c 1
 705 1640 705 1530 705 1530 c 1
 705 1530 265 1530 265 1530 c 1
 265 1530 265 1640 265 1640 c 1
EndSplineSet
Validated: 1
EndChar

StartChar: Ubreve
Encoding: 296 364 296
Width: 970
Flags: W
LayerCount: 2
Fore
SplineSet
350 1400 m 1
 350 1400 350 250 350 250 c 1
 350 250 620 250 620 250 c 1
 620 250 620 1400 620 1400 c 1
 620 1400 870 1400 870 1400 c 1
 870 1400 870 145 870 145 c 2
 870 65 805 0 725 0 c 2
 725 0 245 0 245 0 c 2
 165 0 100 65 100 145 c 2
 100 145 100 1400 100 1400 c 1
 100 1400 350 1400 350 1400 c 1
485 1504 m 0
 389 1504 304 1575 289 1667 c 1
 289 1667 400 1700 400 1700 c 1
 400 1656 441 1619 485 1619 c 0
 529 1619 570 1656 570 1700 c 1
 570 1700 681 1667 681 1667 c 1
 666 1575 581 1504 485 1504 c 0
EndSplineSet
Validated: 1
EndChar

StartChar: ubreve
Encoding: 297 365 297
Width: 970
Flags: W
LayerCount: 2
Fore
SplineSet
350 1400 m 1
 350 1400 350 250 350 250 c 1
 350 250 620 250 620 250 c 1
 620 250 620 1400 620 1400 c 1
 620 1400 870 1400 870 1400 c 1
 870 1400 870 145 870 145 c 2
 870 65 805 0 725 0 c 2
 725 0 245 0 245 0 c 2
 165 0 100 65 100 145 c 2
 100 145 100 1400 100 1400 c 1
 100 1400 350 1400 350 1400 c 1
485 1504 m 0
 389 1504 304 1575 289 1667 c 1
 289 1667 400 1700 400 1700 c 1
 400 1656 441 1619 485 1619 c 0
 529 1619 570 1656 570 1700 c 1
 570 1700 681 1667 681 1667 c 1
 666 1575 581 1504 485 1504 c 0
EndSplineSet
Validated: 1
EndChar

StartChar: Uring
Encoding: 298 366 298
Width: 970
Flags: W
LayerCount: 2
Fore
SplineSet
350 1400 m 1
 350 1400 350 250 350 250 c 1
 350 250 620 250 620 250 c 1
 620 250 620 1400 620 1400 c 1
 620 1400 870 1400 870 1400 c 1
 870 1400 870 145 870 145 c 2
 870 65 805 0 725 0 c 2
 725 0 245 0 245 0 c 2
 165 0 100 65 100 145 c 2
 100 145 100 1400 100 1400 c 1
 100 1400 350 1400 350 1400 c 1
625 1661 m 2
 625 1661 625 1626 625 1626 c 2
 625 1549 564 1490 485 1490 c 0
 406 1490 345 1549 345 1626 c 2
 345 1626 345 1661 345 1661 c 2
 345 1738 406 1800 485 1800 c 0
 564 1800 625 1738 625 1661 c 2
540 1659 m 2
 540 1700 515 1730 485 1730 c 0
 455 1730 430 1700 430 1659 c 2
 430 1659 430 1631 430 1631 c 2
 430 1589 455 1560 485 1560 c 0
 515 1560 540 1589 540 1631 c 2
 540 1631 540 1659 540 1659 c 2
EndSplineSet
Validated: 1
EndChar

StartChar: uring
Encoding: 299 367 299
Width: 970
Flags: W
LayerCount: 2
Fore
SplineSet
350 1400 m 1
 350 1400 350 250 350 250 c 1
 350 250 620 250 620 250 c 1
 620 250 620 1400 620 1400 c 1
 620 1400 870 1400 870 1400 c 1
 870 1400 870 145 870 145 c 2
 870 65 805 0 725 0 c 2
 725 0 245 0 245 0 c 2
 165 0 100 65 100 145 c 2
 100 145 100 1400 100 1400 c 1
 100 1400 350 1400 350 1400 c 1
625 1661 m 2
 625 1661 625 1626 625 1626 c 2
 625 1549 564 1490 485 1490 c 0
 406 1490 345 1549 345 1626 c 2
 345 1626 345 1661 345 1661 c 2
 345 1738 406 1800 485 1800 c 0
 564 1800 625 1738 625 1661 c 2
540 1659 m 2
 540 1700 515 1730 485 1730 c 0
 455 1730 430 1700 430 1659 c 2
 430 1659 430 1631 430 1631 c 2
 430 1589 455 1560 485 1560 c 0
 515 1560 540 1589 540 1631 c 2
 540 1631 540 1659 540 1659 c 2
EndSplineSet
Validated: 1
EndChar

StartChar: Uhungarumlaut
Encoding: 300 368 300
Width: 970
Flags: W
LayerCount: 2
Fore
SplineSet
350 1400 m 1
 350 1400 350 250 350 250 c 1
 350 250 620 250 620 250 c 1
 620 250 620 1400 620 1400 c 1
 620 1400 870 1400 870 1400 c 1
 870 1400 870 145 870 145 c 2
 870 65 805 0 725 0 c 2
 725 0 245 0 245 0 c 2
 165 0 100 65 100 145 c 2
 100 145 100 1400 100 1400 c 1
 100 1400 350 1400 350 1400 c 1
570 1750 m 1
 570 1750 370 1490 370 1490 c 1
 370 1490 210 1490 210 1490 c 1
 210 1490 350 1750 350 1750 c 1
 350 1750 570 1750 570 1750 c 1
870 1750 m 1
 870 1750 670 1490 670 1490 c 1
 670 1490 510 1490 510 1490 c 1
 510 1490 650 1750 650 1750 c 1
 650 1750 870 1750 870 1750 c 1
EndSplineSet
Validated: 1
EndChar

StartChar: uhungarumlaut
Encoding: 301 369 301
Width: 970
Flags: W
LayerCount: 2
Fore
SplineSet
350 1400 m 1
 350 1400 350 250 350 250 c 1
 350 250 620 250 620 250 c 1
 620 250 620 1400 620 1400 c 1
 620 1400 870 1400 870 1400 c 1
 870 1400 870 145 870 145 c 2
 870 65 805 0 725 0 c 2
 725 0 245 0 245 0 c 2
 165 0 100 65 100 145 c 2
 100 145 100 1400 100 1400 c 1
 100 1400 350 1400 350 1400 c 1
570 1750 m 1
 570 1750 370 1490 370 1490 c 1
 370 1490 210 1490 210 1490 c 1
 210 1490 350 1750 350 1750 c 1
 350 1750 570 1750 570 1750 c 1
870 1750 m 1
 870 1750 670 1490 670 1490 c 1
 670 1490 510 1490 510 1490 c 1
 510 1490 650 1750 650 1750 c 1
 650 1750 870 1750 870 1750 c 1
EndSplineSet
Validated: 1
EndChar

StartChar: Uogonek
Encoding: 302 370 302
Width: 970
Flags: W
LayerCount: 2
Fore
SplineSet
350 1400 m 1
 350 1400 350 250 350 250 c 1
 350 250 620 250 620 250 c 1
 620 250 620 1400 620 1400 c 1
 620 1400 870 1400 870 1400 c 1
 870 1400 870 145 870 145 c 2
 870 65 805 0 725 0 c 2
 725 0 470 0 470 0 c 1
 470 0 320 -153 320 -153 c 1
 320 -153 320 -167 320 -167 c 2
 320 -202 347 -230 382 -230 c 2
 382 -230 517 -230 517 -230 c 2
 552 -230 580 -202 580 -167 c 2
 580 -167 580 -155 580 -155 c 1
 580 -155 740 -155 740 -155 c 1
 740 -155 740 -230 740 -230 c 2
 740 -318 668 -390 580 -390 c 2
 580 -390 320 -390 320 -390 c 2
 232 -390 160 -318 160 -230 c 2
 160 -230 160 -80 160 -80 c 1
 160 -80 240 0 240 0 c 1
 162 3 100 67 100 145 c 2
 100 145 100 1400 100 1400 c 1
 100 1400 350 1400 350 1400 c 1
EndSplineSet
Validated: 1
EndChar

